%TF.GenerationSoftware,KiCad,Pcbnew,9.0.5*%
%TF.CreationDate,2025-11-16T11:42:38+05:30*%
%TF.ProjectId,PCBProject,50434250-726f-46a6-9563-742e6b696361,rev?*%
%TF.SameCoordinates,Original*%
%TF.FileFunction,Soldermask,Top*%
%TF.FilePolarity,Negative*%
%FSLAX46Y46*%
G04 Gerber Fmt 4.6, Leading zero omitted, Abs format (unit mm)*
G04 Created by KiCad (PCBNEW 9.0.5) date 2025-11-16 11:42:38*
%MOMM*%
%LPD*%
G01*
G04 APERTURE LIST*
G04 Aperture macros list*
%AMRoundRect*
0 Rectangle with rounded corners*
0 $1 Rounding radius*
0 $2 $3 $4 $5 $6 $7 $8 $9 X,Y pos of 4 corners*
0 Add a 4 corners polygon primitive as box body*
4,1,4,$2,$3,$4,$5,$6,$7,$8,$9,$2,$3,0*
0 Add four circle primitives for the rounded corners*
1,1,$1+$1,$2,$3*
1,1,$1+$1,$4,$5*
1,1,$1+$1,$6,$7*
1,1,$1+$1,$8,$9*
0 Add four rect primitives between the rounded corners*
20,1,$1+$1,$2,$3,$4,$5,0*
20,1,$1+$1,$4,$5,$6,$7,0*
20,1,$1+$1,$6,$7,$8,$9,0*
20,1,$1+$1,$8,$9,$2,$3,0*%
G04 Aperture macros list end*
%ADD10C,1.400000*%
%ADD11R,2.800000X2.800000*%
%ADD12R,2.200000X1.600000*%
%ADD13R,2.010000X2.390000*%
%ADD14R,1.600000X2.200000*%
%ADD15RoundRect,0.150000X-0.150000X0.825000X-0.150000X-0.825000X0.150000X-0.825000X0.150000X0.825000X0*%
%ADD16RoundRect,0.150000X0.150000X-0.825000X0.150000X0.825000X-0.150000X0.825000X-0.150000X-0.825000X0*%
%ADD17RoundRect,0.250000X-0.600000X-0.750000X0.600000X-0.750000X0.600000X0.750000X-0.600000X0.750000X0*%
%ADD18O,1.700000X2.000000*%
%ADD19RoundRect,0.102000X-0.955000X0.955000X-0.955000X-0.955000X0.955000X-0.955000X0.955000X0.955000X0*%
%ADD20C,2.114000*%
%ADD21R,1.524000X2.524000*%
%ADD22O,1.524000X2.524000*%
%ADD23R,1.295400X1.295400*%
%ADD24C,1.295400*%
%ADD25RoundRect,0.102000X0.952500X-0.952500X0.952500X0.952500X-0.952500X0.952500X-0.952500X-0.952500X0*%
%ADD26C,2.109000*%
%ADD27RoundRect,0.250000X0.550000X-0.250000X0.550000X0.250000X-0.550000X0.250000X-0.550000X-0.250000X0*%
%ADD28RoundRect,0.203500X0.203500X-0.528500X0.203500X0.528500X-0.203500X0.528500X-0.203500X-0.528500X0*%
G04 APERTURE END LIST*
D10*
%TO.C,R7*%
X124710000Y-124000000D03*
X129790000Y-124000000D03*
%TD*%
D11*
%TO.C,J4*%
X72000000Y-105000000D03*
%TD*%
D12*
%TO.C,C8*%
X136290000Y-91500000D03*
X133290000Y-91500000D03*
%TD*%
%TO.C,C9*%
X123790000Y-112500000D03*
X120790000Y-112500000D03*
%TD*%
D13*
%TO.C,D1*%
X153190000Y-100500000D03*
X156390000Y-100500000D03*
%TD*%
D14*
%TO.C,C6*%
X130790000Y-109500000D03*
X130790000Y-106500000D03*
%TD*%
D10*
%TO.C,R2*%
X151290000Y-107500000D03*
X146210000Y-107500000D03*
%TD*%
%TO.C,R12*%
X173410000Y-139120000D03*
X168330000Y-139120000D03*
%TD*%
%TO.C,R8*%
X137710000Y-129500000D03*
X142790000Y-129500000D03*
%TD*%
D15*
%TO.C,U1*%
X126195000Y-116025000D03*
X124925000Y-116025000D03*
X123655000Y-116025000D03*
X122385000Y-116025000D03*
X122385000Y-120975000D03*
X123655000Y-120975000D03*
X124925000Y-120975000D03*
X126195000Y-120975000D03*
%TD*%
D12*
%TO.C,C11*%
X142290000Y-121000000D03*
X139290000Y-121000000D03*
%TD*%
D10*
%TO.C,R3*%
X151290000Y-110000000D03*
X146210000Y-110000000D03*
%TD*%
%TO.C,R1*%
X151250000Y-104500000D03*
X156330000Y-104500000D03*
%TD*%
%TO.C,R6*%
X116290000Y-116080000D03*
X116290000Y-111000000D03*
%TD*%
D16*
%TO.C,U2*%
X131885000Y-125975000D03*
X133155000Y-125975000D03*
X134425000Y-125975000D03*
X135695000Y-125975000D03*
X135695000Y-121025000D03*
X134425000Y-121025000D03*
X133155000Y-121025000D03*
X131885000Y-121025000D03*
%TD*%
D14*
%TO.C,C1*%
X116790000Y-103500000D03*
X116790000Y-100500000D03*
%TD*%
%TO.C,C2*%
X121790000Y-103500000D03*
X121790000Y-100500000D03*
%TD*%
D10*
%TO.C,R9*%
X156330000Y-88000000D03*
X151250000Y-88000000D03*
%TD*%
%TO.C,R14*%
X143790000Y-107500000D03*
X138710000Y-107500000D03*
%TD*%
D17*
%TO.C,PS1*%
X81002500Y-99500000D03*
D18*
X81002500Y-104500000D03*
X110082500Y-94500000D03*
X110082500Y-109500000D03*
%TD*%
D10*
%TO.C,R15*%
X143830000Y-110000000D03*
X138750000Y-110000000D03*
%TD*%
D11*
%TO.C,J1*%
X118790000Y-85000000D03*
%TD*%
D14*
%TO.C,C14*%
X147790000Y-84500000D03*
X147790000Y-87500000D03*
%TD*%
D10*
%TO.C,R13*%
X180950000Y-139120000D03*
X175870000Y-139120000D03*
%TD*%
D19*
%TO.C,U10*%
X142790000Y-98000000D03*
D20*
X142790000Y-100550000D03*
X142790000Y-103100000D03*
%TD*%
D12*
%TO.C,C12*%
X142290000Y-125000000D03*
X139290000Y-125000000D03*
%TD*%
D21*
%TO.C,AFF2*%
X174750000Y-133620000D03*
D22*
X177290000Y-133620000D03*
X179830000Y-133620000D03*
X182370000Y-133620000D03*
X184910000Y-133620000D03*
X184910000Y-118380000D03*
X182370000Y-118380000D03*
X179830000Y-118380000D03*
X177290000Y-118380000D03*
X174750000Y-118380000D03*
%TD*%
D10*
%TO.C,R4*%
X138330000Y-94500000D03*
X133250000Y-94500000D03*
%TD*%
D14*
%TO.C,C5*%
X148790000Y-103500000D03*
X148790000Y-100500000D03*
%TD*%
D23*
%TO.C,U6*%
X194361600Y-95640000D03*
D24*
X194361600Y-98180000D03*
X194361600Y-100720000D03*
X194361600Y-103260000D03*
X194361600Y-105800000D03*
X194361600Y-108340000D03*
X194361600Y-110880000D03*
X194361600Y-113420000D03*
X201981600Y-113420000D03*
X201981600Y-110880000D03*
X201981600Y-108340000D03*
X201981600Y-105800000D03*
X201981600Y-103260000D03*
X201981600Y-100720000D03*
X201981600Y-98180000D03*
X201981600Y-95640000D03*
%TD*%
D25*
%TO.C,U11*%
X127290000Y-103100000D03*
D26*
X127290000Y-100550000D03*
X127290000Y-98000000D03*
%TD*%
D14*
%TO.C,C3*%
X132290000Y-97500000D03*
X132290000Y-100500000D03*
%TD*%
D11*
%TO.C,J3*%
X72000000Y-98500000D03*
%TD*%
D23*
%TO.C,U3*%
X146290000Y-115500000D03*
D24*
X146290000Y-118040000D03*
X146290000Y-120580000D03*
X146290000Y-123120000D03*
X146290000Y-125660000D03*
X146290000Y-128200000D03*
X146290000Y-130740000D03*
X153910000Y-130740000D03*
X153910000Y-128200000D03*
X153910000Y-125660000D03*
X153910000Y-123120000D03*
X153910000Y-120580000D03*
X153910000Y-118040000D03*
X153910000Y-115500000D03*
%TD*%
D23*
%TO.C,U4*%
X173210000Y-95640000D03*
D24*
X173210000Y-98180000D03*
X173210000Y-100720000D03*
X173210000Y-103260000D03*
X173210000Y-105800000D03*
X173210000Y-108340000D03*
X173210000Y-110880000D03*
X173210000Y-113420000D03*
X180830000Y-113420000D03*
X180830000Y-110880000D03*
X180830000Y-108340000D03*
X180830000Y-105800000D03*
X180830000Y-103260000D03*
X180830000Y-100720000D03*
X180830000Y-98180000D03*
X180830000Y-95640000D03*
%TD*%
D27*
%TO.C,SW1*%
X136330000Y-111000000D03*
X134030000Y-109250000D03*
X136330000Y-107500000D03*
%TD*%
D14*
%TO.C,C4*%
X138290000Y-97500000D03*
X138290000Y-100500000D03*
%TD*%
D23*
%TO.C,U9*%
X162670000Y-96000000D03*
D24*
X162670000Y-98540000D03*
X162670000Y-101080000D03*
X162670000Y-103620000D03*
X162670000Y-106160000D03*
X162670000Y-108700000D03*
X162670000Y-111240000D03*
X170290000Y-111240000D03*
X170290000Y-108700000D03*
X170290000Y-106160000D03*
X170290000Y-103620000D03*
X170290000Y-101080000D03*
X170290000Y-98540000D03*
X170290000Y-96000000D03*
%TD*%
D11*
%TO.C,J2*%
X118790000Y-93000000D03*
%TD*%
D12*
%TO.C,C10*%
X128790000Y-115500000D03*
X131790000Y-115500000D03*
%TD*%
D10*
%TO.C,R5*%
X132830000Y-87500000D03*
X127750000Y-87500000D03*
%TD*%
%TO.C,R10*%
X156330000Y-92000000D03*
X151250000Y-92000000D03*
%TD*%
D12*
%TO.C,C7*%
X122790000Y-108000000D03*
X125790000Y-108000000D03*
%TD*%
D21*
%TO.C,AFF1*%
X160830000Y-133740000D03*
D22*
X163370000Y-133740000D03*
X165910000Y-133740000D03*
X168450000Y-133740000D03*
X170990000Y-133740000D03*
X170990000Y-118500000D03*
X168450000Y-118500000D03*
X165910000Y-118500000D03*
X163370000Y-118500000D03*
X160830000Y-118500000D03*
%TD*%
D23*
%TO.C,U5*%
X183785800Y-95640000D03*
D24*
X183785800Y-98180000D03*
X183785800Y-100720000D03*
X183785800Y-103260000D03*
X183785800Y-105800000D03*
X183785800Y-108340000D03*
X183785800Y-110880000D03*
X183785800Y-113420000D03*
X191405800Y-113420000D03*
X191405800Y-110880000D03*
X191405800Y-108340000D03*
X191405800Y-105800000D03*
X191405800Y-103260000D03*
X191405800Y-100720000D03*
X191405800Y-98180000D03*
X191405800Y-95640000D03*
%TD*%
D21*
%TO.C,AFF3*%
X188210000Y-133620000D03*
D22*
X190750000Y-133620000D03*
X193290000Y-133620000D03*
X195830000Y-133620000D03*
X198370000Y-133620000D03*
X198370000Y-118380000D03*
X195830000Y-118380000D03*
X193290000Y-118380000D03*
X190750000Y-118380000D03*
X188210000Y-118380000D03*
%TD*%
D28*
%TO.C,Q1*%
X149240000Y-91960000D03*
X148290000Y-90000000D03*
X147340000Y-91960000D03*
%TD*%
D10*
%TO.C,R11*%
X165950000Y-139120000D03*
X160870000Y-139120000D03*
%TD*%
D12*
%TO.C,C13*%
X140290000Y-115500000D03*
X143290000Y-115500000D03*
%TD*%
M02*
