%TF.GenerationSoftware,KiCad,Pcbnew,9.0.5*%
%TF.CreationDate,2025-11-16T11:42:38+05:30*%
%TF.ProjectId,PCBProject,50434250-726f-46a6-9563-742e6b696361,rev?*%
%TF.SameCoordinates,Original*%
%TF.FileFunction,Copper,L1,Top*%
%TF.FilePolarity,Positive*%
%FSLAX46Y46*%
G04 Gerber Fmt 4.6, Leading zero omitted, Abs format (unit mm)*
G04 Created by KiCad (PCBNEW 9.0.5) date 2025-11-16 11:42:38*
%MOMM*%
%LPD*%
G01*
G04 APERTURE LIST*
G04 Aperture macros list*
%AMRoundRect*
0 Rectangle with rounded corners*
0 $1 Rounding radius*
0 $2 $3 $4 $5 $6 $7 $8 $9 X,Y pos of 4 corners*
0 Add a 4 corners polygon primitive as box body*
4,1,4,$2,$3,$4,$5,$6,$7,$8,$9,$2,$3,0*
0 Add four circle primitives for the rounded corners*
1,1,$1+$1,$2,$3*
1,1,$1+$1,$4,$5*
1,1,$1+$1,$6,$7*
1,1,$1+$1,$8,$9*
0 Add four rect primitives between the rounded corners*
20,1,$1+$1,$2,$3,$4,$5,0*
20,1,$1+$1,$4,$5,$6,$7,0*
20,1,$1+$1,$6,$7,$8,$9,0*
20,1,$1+$1,$8,$9,$2,$3,0*%
G04 Aperture macros list end*
%TA.AperFunction,NonConductor*%
%ADD10C,0.200000*%
%TD*%
%TA.AperFunction,ComponentPad*%
%ADD11C,1.400000*%
%TD*%
%TA.AperFunction,ComponentPad*%
%ADD12R,2.800000X2.800000*%
%TD*%
%TA.AperFunction,SMDPad,CuDef*%
%ADD13R,2.200000X1.600000*%
%TD*%
%TA.AperFunction,SMDPad,CuDef*%
%ADD14R,2.010000X2.390000*%
%TD*%
%TA.AperFunction,SMDPad,CuDef*%
%ADD15R,1.600000X2.200000*%
%TD*%
%TA.AperFunction,SMDPad,CuDef*%
%ADD16RoundRect,0.150000X-0.150000X0.825000X-0.150000X-0.825000X0.150000X-0.825000X0.150000X0.825000X0*%
%TD*%
%TA.AperFunction,SMDPad,CuDef*%
%ADD17RoundRect,0.150000X0.150000X-0.825000X0.150000X0.825000X-0.150000X0.825000X-0.150000X-0.825000X0*%
%TD*%
%TA.AperFunction,ComponentPad*%
%ADD18RoundRect,0.250000X-0.600000X-0.750000X0.600000X-0.750000X0.600000X0.750000X-0.600000X0.750000X0*%
%TD*%
%TA.AperFunction,ComponentPad*%
%ADD19O,1.700000X2.000000*%
%TD*%
%TA.AperFunction,ComponentPad*%
%ADD20R,1.910000X1.910000*%
%TD*%
%TA.AperFunction,ComponentPad*%
%ADD21C,1.910000*%
%TD*%
%TA.AperFunction,ComponentPad*%
%ADD22R,1.524000X2.524000*%
%TD*%
%TA.AperFunction,ComponentPad*%
%ADD23O,1.524000X2.524000*%
%TD*%
%TA.AperFunction,ComponentPad*%
%ADD24R,1.295400X1.295400*%
%TD*%
%TA.AperFunction,ComponentPad*%
%ADD25C,1.295400*%
%TD*%
%TA.AperFunction,ComponentPad*%
%ADD26R,1.905000X1.905000*%
%TD*%
%TA.AperFunction,ComponentPad*%
%ADD27C,1.905000*%
%TD*%
%TA.AperFunction,SMDPad,CuDef*%
%ADD28RoundRect,0.250000X0.550000X-0.250000X0.550000X0.250000X-0.550000X0.250000X-0.550000X-0.250000X0*%
%TD*%
%TA.AperFunction,SMDPad,CuDef*%
%ADD29RoundRect,0.152500X0.152500X-0.477500X0.152500X0.477500X-0.152500X0.477500X-0.152500X-0.477500X0*%
%TD*%
%TA.AperFunction,ViaPad*%
%ADD30C,0.600000*%
%TD*%
%TA.AperFunction,Conductor*%
%ADD31C,0.200000*%
%TD*%
G04 APERTURE END LIST*
D10*
X210000000Y-72000000D02*
X72000000Y-72000000D01*
D11*
%TO.P,R7,1*%
%TO.N,Net-(U1-R)*%
X124710000Y-124000000D03*
%TO.P,R7,2*%
%TO.N,Net-(U2-DIS)*%
X129790000Y-124000000D03*
%TD*%
D12*
%TO.P,J4,1,Pin_1*%
%TO.N,Net-(J4-Pin_1)*%
X72000000Y-105000000D03*
%TD*%
D13*
%TO.P,C8,1*%
%TO.N,GND*%
X136290000Y-91500000D03*
%TO.P,C8,2*%
%TO.N,Net-(C8-Pad2)*%
X133290000Y-91500000D03*
%TD*%
%TO.P,C9,1*%
%TO.N,Net-(U1-Q)*%
X123790000Y-112500000D03*
%TO.P,C9,2*%
%TO.N,Net-(U2-TR)*%
X120790000Y-112500000D03*
%TD*%
D14*
%TO.P,D1,1,K*%
%TO.N,GND*%
X153190000Y-100500000D03*
%TO.P,D1,2,A*%
%TO.N,Net-(D1-A)*%
X156390000Y-100500000D03*
%TD*%
D15*
%TO.P,C6,1*%
%TO.N,Net-(SW1-B)*%
X130790000Y-109500000D03*
%TO.P,C6,2*%
%TO.N,GND*%
X130790000Y-106500000D03*
%TD*%
D11*
%TO.P,R2,1*%
%TO.N,Net-(U1-R)*%
X151290000Y-107500000D03*
%TO.P,R2,2*%
%TO.N,Net-(R14-Pad1)*%
X146210000Y-107500000D03*
%TD*%
%TO.P,R12,1*%
%TO.N,Net-(AFF2-C.A.-Pad3)*%
X173410000Y-139120000D03*
%TO.P,R12,2*%
%TO.N,GND*%
X168330000Y-139120000D03*
%TD*%
%TO.P,R8,1*%
%TO.N,Net-(U1-R)*%
X137710000Y-129500000D03*
%TO.P,R8,2*%
%TO.N,Net-(U3-Q2GATES)*%
X142790000Y-129500000D03*
%TD*%
D16*
%TO.P,U1,1,GND*%
%TO.N,GND*%
X126195000Y-116025000D03*
%TO.P,U1,2,TR*%
%TO.N,Net-(U1-TR)*%
X124925000Y-116025000D03*
%TO.P,U1,3,Q*%
%TO.N,Net-(U1-Q)*%
X123655000Y-116025000D03*
%TO.P,U1,4,R*%
%TO.N,Net-(U1-R)*%
X122385000Y-116025000D03*
%TO.P,U1,5,CV*%
%TO.N,Net-(U1-CV)*%
X122385000Y-120975000D03*
%TO.P,U1,6,THR*%
%TO.N,Net-(SW1-B)*%
X123655000Y-120975000D03*
%TO.P,U1,7,DIS*%
X124925000Y-120975000D03*
%TO.P,U1,8,VCC*%
%TO.N,Net-(U1-R)*%
X126195000Y-120975000D03*
%TD*%
D13*
%TO.P,C11,1*%
%TO.N,GND*%
X142290000Y-121000000D03*
%TO.P,C11,2*%
%TO.N,Net-(U2-DIS)*%
X139290000Y-121000000D03*
%TD*%
D11*
%TO.P,R3,1*%
%TO.N,Net-(U1-R)*%
X151290000Y-110000000D03*
%TO.P,R3,2*%
%TO.N,Net-(R15-Pad1)*%
X146210000Y-110000000D03*
%TD*%
%TO.P,R1,1*%
%TO.N,Net-(U1-R)*%
X151250000Y-104500000D03*
%TO.P,R1,2*%
%TO.N,Net-(D1-A)*%
X156330000Y-104500000D03*
%TD*%
%TO.P,R6,1*%
%TO.N,Net-(U1-R)*%
X116290000Y-116080000D03*
%TO.P,R6,2*%
%TO.N,Net-(U2-TR)*%
X116290000Y-111000000D03*
%TD*%
D17*
%TO.P,U2,1,GND*%
%TO.N,GND*%
X131885000Y-125975000D03*
%TO.P,U2,2,TR*%
%TO.N,Net-(U2-TR)*%
X133155000Y-125975000D03*
%TO.P,U2,3,Q*%
%TO.N,Net-(U2-Q)*%
X134425000Y-125975000D03*
%TO.P,U2,4,R*%
%TO.N,Net-(U1-R)*%
X135695000Y-125975000D03*
%TO.P,U2,5,CV*%
%TO.N,Net-(U2-CV)*%
X135695000Y-121025000D03*
%TO.P,U2,6,THR*%
%TO.N,Net-(U2-DIS)*%
X134425000Y-121025000D03*
%TO.P,U2,7,DIS*%
X133155000Y-121025000D03*
%TO.P,U2,8,VCC*%
%TO.N,Net-(U1-R)*%
X131885000Y-121025000D03*
%TD*%
D15*
%TO.P,C1,1*%
%TO.N,Net-(PS1-+Vout)*%
X116790000Y-103500000D03*
%TO.P,C1,2*%
%TO.N,GND*%
X116790000Y-100500000D03*
%TD*%
%TO.P,C2,1*%
%TO.N,Net-(PS1-+Vout)*%
X121790000Y-103500000D03*
%TO.P,C2,2*%
%TO.N,GND*%
X121790000Y-100500000D03*
%TD*%
D11*
%TO.P,R9,1*%
%TO.N,Net-(U1-R)*%
X156330000Y-88000000D03*
%TO.P,R9,2*%
%TO.N,Net-(Q1-B)*%
X151250000Y-88000000D03*
%TD*%
%TO.P,R14,1*%
%TO.N,Net-(R14-Pad1)*%
X143790000Y-107500000D03*
%TO.P,R14,2*%
%TO.N,Net-(SW1-A)*%
X138710000Y-107500000D03*
%TD*%
D18*
%TO.P,PS1,1,AC/L*%
%TO.N,Net-(J3-Pin_1)*%
X81002500Y-99500000D03*
D19*
%TO.P,PS1,2,AC/N*%
%TO.N,Net-(J4-Pin_1)*%
X81002500Y-104500000D03*
%TO.P,PS1,3,-Vout*%
%TO.N,GND*%
X110082500Y-94500000D03*
%TO.P,PS1,4,+Vout*%
%TO.N,Net-(PS1-+Vout)*%
X110082500Y-109500000D03*
%TD*%
D11*
%TO.P,R15,1*%
%TO.N,Net-(R15-Pad1)*%
X143830000Y-110000000D03*
%TO.P,R15,2*%
%TO.N,Net-(SW1-C)*%
X138750000Y-110000000D03*
%TD*%
D12*
%TO.P,J1,1,Pin_1*%
%TO.N,Net-(J1-Pin_1)*%
X118790000Y-85000000D03*
%TD*%
D15*
%TO.P,C14,1*%
%TO.N,Net-(J1-Pin_1)*%
X147790000Y-84500000D03*
%TO.P,C14,2*%
%TO.N,Net-(Q1-B)*%
X147790000Y-87500000D03*
%TD*%
D11*
%TO.P,R13,1*%
%TO.N,Net-(AFF3-C.A.-Pad3)*%
X180950000Y-139120000D03*
%TO.P,R13,2*%
%TO.N,GND*%
X175870000Y-139120000D03*
%TD*%
D20*
%TO.P,U10,1,IN*%
%TO.N,Net-(U1-TR)*%
X142790000Y-98000000D03*
D21*
%TO.P,U10,2,GND*%
%TO.N,GND*%
X142790000Y-100550000D03*
%TO.P,U10,3,OUT*%
%TO.N,Net-(U1-R)*%
X142790000Y-103100000D03*
%TD*%
D13*
%TO.P,C12,1*%
%TO.N,GND*%
X142290000Y-125000000D03*
%TO.P,C12,2*%
%TO.N,Net-(U2-CV)*%
X139290000Y-125000000D03*
%TD*%
D22*
%TO.P,AFF2,1,e*%
%TO.N,Net-(AFF2-e)*%
X174750000Y-133620000D03*
D23*
%TO.P,AFF2,2,d*%
%TO.N,Net-(AFF2-d)*%
X177290000Y-133620000D03*
%TO.P,AFF2,3,C.A.*%
%TO.N,Net-(AFF2-C.A.-Pad3)*%
X179830000Y-133620000D03*
%TO.P,AFF2,4,c*%
%TO.N,Net-(AFF2-c)*%
X182370000Y-133620000D03*
%TO.P,AFF2,5,DP*%
%TO.N,unconnected-(AFF2-DP-Pad5)*%
X184910000Y-133620000D03*
%TO.P,AFF2,6,b*%
%TO.N,Net-(AFF2-b)*%
X184910000Y-118380000D03*
%TO.P,AFF2,7,a*%
%TO.N,Net-(AFF2-a)*%
X182370000Y-118380000D03*
%TO.P,AFF2,8,C.A.*%
%TO.N,Net-(AFF2-C.A.-Pad3)*%
X179830000Y-118380000D03*
%TO.P,AFF2,9,f*%
%TO.N,Net-(AFF2-f)*%
X177290000Y-118380000D03*
%TO.P,AFF2,10,g*%
%TO.N,Net-(AFF2-g)*%
X174750000Y-118380000D03*
%TD*%
D11*
%TO.P,R4,1*%
%TO.N,Net-(U1-R)*%
X138330000Y-94500000D03*
%TO.P,R4,2*%
%TO.N,Net-(C8-Pad2)*%
X133250000Y-94500000D03*
%TD*%
D15*
%TO.P,C5,1*%
%TO.N,Net-(U1-R)*%
X148790000Y-103500000D03*
%TO.P,C5,2*%
%TO.N,GND*%
X148790000Y-100500000D03*
%TD*%
D24*
%TO.P,U6,1,CLOCK*%
%TO.N,Net-(U5-CARRYOUT)*%
X194361600Y-95640000D03*
D25*
%TO.P,U6,2,CLOCKINHIBIT*%
%TO.N,Net-(U3-Q3NDRAIN)*%
X194361600Y-98180000D03*
%TO.P,U6,3,DISPLAYENABLEIN*%
%TO.N,Net-(U2-Q)*%
X194361600Y-100720000D03*
%TO.P,U6,4,DISPLAYENABLEOUT*%
%TO.N,unconnected-(U6-DISPLAYENABLEOUT-Pad4)*%
X194361600Y-103260000D03*
%TO.P,U6,5,CARRYOUT*%
%TO.N,unconnected-(U6-CARRYOUT-Pad5)*%
X194361600Y-105800000D03*
%TO.P,U6,6,F*%
%TO.N,Net-(AFF3-f)*%
X194361600Y-108340000D03*
%TO.P,U6,7,G*%
%TO.N,Net-(AFF3-g)*%
X194361600Y-110880000D03*
%TO.P,U6,8,VSS*%
%TO.N,unconnected-(U6-VSS-Pad8)*%
X194361600Y-113420000D03*
%TO.P,U6,9,D*%
%TO.N,Net-(AFF3-d)*%
X201981600Y-113420000D03*
%TO.P,U6,10,A*%
%TO.N,Net-(AFF3-a)*%
X201981600Y-110880000D03*
%TO.P,U6,11,E*%
%TO.N,Net-(AFF3-e)*%
X201981600Y-108340000D03*
%TO.P,U6,12,B*%
%TO.N,GND*%
X201981600Y-105800000D03*
%TO.P,U6,13,C*%
%TO.N,Net-(AFF3-c)*%
X201981600Y-103260000D03*
%TO.P,U6,14,OUT*%
%TO.N,unconnected-(U6-OUT-Pad14)*%
X201981600Y-100720000D03*
%TO.P,U6,15,RESET*%
%TO.N,Net-(U3-Q2NDRAIN)*%
X201981600Y-98180000D03*
%TO.P,U6,16,VDD*%
%TO.N,Net-(U1-TR)*%
X201981600Y-95640000D03*
%TD*%
D26*
%TO.P,U11,1,IN*%
%TO.N,Net-(PS1-+Vout)*%
X127290000Y-103100000D03*
D27*
%TO.P,U11,2,GND*%
%TO.N,GND*%
X127290000Y-100550000D03*
%TO.P,U11,3,OUT*%
%TO.N,Net-(U1-TR)*%
X127290000Y-98000000D03*
%TD*%
D15*
%TO.P,C3,1*%
%TO.N,Net-(U1-TR)*%
X132290000Y-97500000D03*
%TO.P,C3,2*%
%TO.N,GND*%
X132290000Y-100500000D03*
%TD*%
D12*
%TO.P,J3,1,Pin_1*%
%TO.N,Net-(J3-Pin_1)*%
X72000000Y-98500000D03*
%TD*%
D24*
%TO.P,U3,1,Q2PDRAIN*%
%TO.N,Net-(U3-Q2NDRAIN)*%
X146290000Y-115500000D03*
D25*
%TO.P,U3,2,Q2PSOURCE*%
%TO.N,unconnected-(U3-Q2PSOURCE-Pad2)*%
X146290000Y-118040000D03*
%TO.P,U3,3,Q2GATES*%
%TO.N,Net-(U3-Q2GATES)*%
X146290000Y-120580000D03*
%TO.P,U3,4,Q2NSOURCE*%
%TO.N,unconnected-(U3-Q2NSOURCE-Pad4)*%
X146290000Y-123120000D03*
%TO.P,U3,5,Q2NDRAIN*%
%TO.N,Net-(U3-Q2NDRAIN)*%
X146290000Y-125660000D03*
%TO.P,U3,6,Q1GATES*%
%TO.N,unconnected-(U3-Q1GATES-Pad6)*%
X146290000Y-128200000D03*
%TO.P,U3,7,VSS*%
%TO.N,GND*%
X146290000Y-130740000D03*
%TO.P,U3,8,Q1NDRAIN*%
%TO.N,unconnected-(U3-Q1NDRAIN-Pad8)*%
X153910000Y-130740000D03*
%TO.P,U3,9,Q3NSOURCE*%
%TO.N,unconnected-(U3-Q3NSOURCE-Pad9)*%
X153910000Y-128200000D03*
%TO.P,U3,10,Q3GATES*%
%TO.N,Net-(U1-Q)*%
X153910000Y-125660000D03*
%TO.P,U3,11,Q3PDRAIN*%
%TO.N,unconnected-(U3-Q3PDRAIN-Pad11)*%
X153910000Y-123120000D03*
%TO.P,U3,12,Q3NDRAIN*%
%TO.N,Net-(U3-Q3NDRAIN)*%
X153910000Y-120580000D03*
%TO.P,U3,13,Q1PSOURCE*%
%TO.N,unconnected-(U3-Q1PSOURCE-Pad13)*%
X153910000Y-118040000D03*
%TO.P,U3,14,VDD*%
%TO.N,Net-(U1-R)*%
X153910000Y-115500000D03*
%TD*%
D24*
%TO.P,U4,1,CLOCK*%
%TO.N,Net-(U4-CLOCK)*%
X173210000Y-95640000D03*
D25*
%TO.P,U4,2,CLOCKINHIBIT*%
%TO.N,Net-(U3-Q3NDRAIN)*%
X173210000Y-98180000D03*
%TO.P,U4,3,DISPLAYENABLEIN*%
%TO.N,Net-(U2-Q)*%
X173210000Y-100720000D03*
%TO.P,U4,4,DISPLAYENABLEOUT*%
%TO.N,unconnected-(U4-DISPLAYENABLEOUT-Pad4)*%
X173210000Y-103260000D03*
%TO.P,U4,5,CARRYOUT*%
%TO.N,Net-(U4-CARRYOUT)*%
X173210000Y-105800000D03*
%TO.P,U4,6,F*%
%TO.N,Net-(AFF1-f)*%
X173210000Y-108340000D03*
%TO.P,U4,7,G*%
%TO.N,Net-(AFF1-g)*%
X173210000Y-110880000D03*
%TO.P,U4,8,VSS*%
%TO.N,unconnected-(U4-VSS-Pad8)*%
X173210000Y-113420000D03*
%TO.P,U4,9,D*%
%TO.N,Net-(AFF1-d)*%
X180830000Y-113420000D03*
%TO.P,U4,10,A*%
%TO.N,Net-(AFF1-a)*%
X180830000Y-110880000D03*
%TO.P,U4,11,E*%
%TO.N,Net-(AFF1-e)*%
X180830000Y-108340000D03*
%TO.P,U4,12,B*%
%TO.N,Net-(AFF1-b)*%
X180830000Y-105800000D03*
%TO.P,U4,13,C*%
%TO.N,Net-(AFF1-c)*%
X180830000Y-103260000D03*
%TO.P,U4,14,OUT*%
%TO.N,unconnected-(U4-OUT-Pad14)*%
X180830000Y-100720000D03*
%TO.P,U4,15,RESET*%
%TO.N,Net-(U3-Q2NDRAIN)*%
X180830000Y-98180000D03*
%TO.P,U4,16,VDD*%
%TO.N,Net-(U1-TR)*%
X180830000Y-95640000D03*
%TD*%
D28*
%TO.P,SW1,1,C*%
%TO.N,Net-(SW1-C)*%
X136330000Y-111000000D03*
%TO.P,SW1,2,B*%
%TO.N,Net-(SW1-B)*%
X134030000Y-109250000D03*
%TO.P,SW1,3,A*%
%TO.N,Net-(SW1-A)*%
X136330000Y-107500000D03*
%TD*%
D15*
%TO.P,C4,1*%
%TO.N,Net-(U1-TR)*%
X138290000Y-97500000D03*
%TO.P,C4,2*%
%TO.N,GND*%
X138290000Y-100500000D03*
%TD*%
D24*
%TO.P,U9,1,1A*%
%TO.N,Net-(Q1-C)*%
X162670000Y-96000000D03*
D25*
%TO.P,U9,2,1Y*%
%TO.N,Net-(U4-CLOCK)*%
X162670000Y-98540000D03*
%TO.P,U9,3,2A*%
%TO.N,unconnected-(U9-2A-Pad3)*%
X162670000Y-101080000D03*
%TO.P,U9,4,2Y*%
%TO.N,unconnected-(U9-2Y-Pad4)*%
X162670000Y-103620000D03*
%TO.P,U9,5,3A*%
%TO.N,unconnected-(U9-3A-Pad5)*%
X162670000Y-106160000D03*
%TO.P,U9,6,3Y*%
%TO.N,unconnected-(U9-3Y-Pad6)*%
X162670000Y-108700000D03*
%TO.P,U9,7,GND*%
%TO.N,GND*%
X162670000Y-111240000D03*
%TO.P,U9,8,4Y*%
%TO.N,unconnected-(U9-4Y-Pad8)*%
X170290000Y-111240000D03*
%TO.P,U9,9,4A*%
%TO.N,unconnected-(U9-4A-Pad9)*%
X170290000Y-108700000D03*
%TO.P,U9,10,5Y*%
%TO.N,unconnected-(U9-5Y-Pad10)*%
X170290000Y-106160000D03*
%TO.P,U9,11,5A*%
%TO.N,unconnected-(U9-5A-Pad11)*%
X170290000Y-103620000D03*
%TO.P,U9,12,6Y*%
%TO.N,unconnected-(U9-6Y-Pad12)*%
X170290000Y-101080000D03*
%TO.P,U9,13,6A*%
%TO.N,unconnected-(U9-6A-Pad13)*%
X170290000Y-98540000D03*
%TO.P,U9,14,VCC*%
%TO.N,Net-(U1-TR)*%
X170290000Y-96000000D03*
%TD*%
D12*
%TO.P,J2,1,Pin_1*%
%TO.N,GND*%
X118790000Y-93000000D03*
%TD*%
D13*
%TO.P,C10,1*%
%TO.N,Net-(U1-TR)*%
X128790000Y-115500000D03*
%TO.P,C10,2*%
%TO.N,Net-(U2-Q)*%
X131790000Y-115500000D03*
%TD*%
D11*
%TO.P,R5,1*%
%TO.N,Net-(C8-Pad2)*%
X132830000Y-87500000D03*
%TO.P,R5,2*%
%TO.N,Net-(U1-TR)*%
X127750000Y-87500000D03*
%TD*%
%TO.P,R10,1*%
%TO.N,Net-(U1-R)*%
X156330000Y-92000000D03*
%TO.P,R10,2*%
%TO.N,Net-(Q1-C)*%
X151250000Y-92000000D03*
%TD*%
D13*
%TO.P,C7,1*%
%TO.N,Net-(U1-CV)*%
X122790000Y-108000000D03*
%TO.P,C7,2*%
%TO.N,GND*%
X125790000Y-108000000D03*
%TD*%
D22*
%TO.P,AFF1,1,e*%
%TO.N,Net-(AFF1-e)*%
X160830000Y-133740000D03*
D23*
%TO.P,AFF1,2,d*%
%TO.N,Net-(AFF1-d)*%
X163370000Y-133740000D03*
%TO.P,AFF1,3,C.A.*%
%TO.N,Net-(AFF1-C.A.-Pad3)*%
X165910000Y-133740000D03*
%TO.P,AFF1,4,c*%
%TO.N,Net-(AFF1-c)*%
X168450000Y-133740000D03*
%TO.P,AFF1,5,DP*%
%TO.N,unconnected-(AFF1-DP-Pad5)*%
X170990000Y-133740000D03*
%TO.P,AFF1,6,b*%
%TO.N,Net-(AFF1-b)*%
X170990000Y-118500000D03*
%TO.P,AFF1,7,a*%
%TO.N,Net-(AFF1-a)*%
X168450000Y-118500000D03*
%TO.P,AFF1,8,C.A.*%
%TO.N,Net-(AFF1-C.A.-Pad3)*%
X165910000Y-118500000D03*
%TO.P,AFF1,9,f*%
%TO.N,Net-(AFF1-f)*%
X163370000Y-118500000D03*
%TO.P,AFF1,10,g*%
%TO.N,Net-(AFF1-g)*%
X160830000Y-118500000D03*
%TD*%
D24*
%TO.P,U5,1,CLOCK*%
%TO.N,Net-(U4-CARRYOUT)*%
X183785800Y-95640000D03*
D25*
%TO.P,U5,2,CLOCKINHIBIT*%
%TO.N,Net-(U3-Q3NDRAIN)*%
X183785800Y-98180000D03*
%TO.P,U5,3,DISPLAYENABLEIN*%
%TO.N,Net-(U2-Q)*%
X183785800Y-100720000D03*
%TO.P,U5,4,DISPLAYENABLEOUT*%
%TO.N,unconnected-(U5-DISPLAYENABLEOUT-Pad4)*%
X183785800Y-103260000D03*
%TO.P,U5,5,CARRYOUT*%
%TO.N,Net-(U5-CARRYOUT)*%
X183785800Y-105800000D03*
%TO.P,U5,6,F*%
%TO.N,Net-(AFF2-f)*%
X183785800Y-108340000D03*
%TO.P,U5,7,G*%
%TO.N,Net-(AFF2-g)*%
X183785800Y-110880000D03*
%TO.P,U5,8,VSS*%
%TO.N,unconnected-(U5-VSS-Pad8)*%
X183785800Y-113420000D03*
%TO.P,U5,9,D*%
%TO.N,Net-(AFF2-d)*%
X191405800Y-113420000D03*
%TO.P,U5,10,A*%
%TO.N,Net-(AFF2-a)*%
X191405800Y-110880000D03*
%TO.P,U5,11,E*%
%TO.N,Net-(AFF2-e)*%
X191405800Y-108340000D03*
%TO.P,U5,12,B*%
%TO.N,Net-(AFF2-b)*%
X191405800Y-105800000D03*
%TO.P,U5,13,C*%
%TO.N,Net-(AFF2-c)*%
X191405800Y-103260000D03*
%TO.P,U5,14,OUT*%
%TO.N,unconnected-(U5-OUT-Pad14)*%
X191405800Y-100720000D03*
%TO.P,U5,15,RESET*%
%TO.N,Net-(U3-Q2NDRAIN)*%
X191405800Y-98180000D03*
%TO.P,U5,16,VDD*%
%TO.N,Net-(U1-TR)*%
X191405800Y-95640000D03*
%TD*%
D22*
%TO.P,AFF3,1,e*%
%TO.N,Net-(AFF3-e)*%
X188210000Y-133620000D03*
D23*
%TO.P,AFF3,2,d*%
%TO.N,Net-(AFF3-d)*%
X190750000Y-133620000D03*
%TO.P,AFF3,3,C.A.*%
%TO.N,Net-(AFF3-C.A.-Pad3)*%
X193290000Y-133620000D03*
%TO.P,AFF3,4,c*%
%TO.N,Net-(AFF3-c)*%
X195830000Y-133620000D03*
%TO.P,AFF3,5,DP*%
%TO.N,unconnected-(AFF3-DP-Pad5)*%
X198370000Y-133620000D03*
%TO.P,AFF3,6,b*%
%TO.N,GND*%
X198370000Y-118380000D03*
%TO.P,AFF3,7,a*%
%TO.N,Net-(AFF3-a)*%
X195830000Y-118380000D03*
%TO.P,AFF3,8,C.A.*%
%TO.N,Net-(AFF3-C.A.-Pad3)*%
X193290000Y-118380000D03*
%TO.P,AFF3,9,f*%
%TO.N,Net-(AFF3-f)*%
X190750000Y-118380000D03*
%TO.P,AFF3,10,g*%
%TO.N,Net-(AFF3-g)*%
X188210000Y-118380000D03*
%TD*%
D29*
%TO.P,Q1,1,C*%
%TO.N,Net-(Q1-C)*%
X149240000Y-91960000D03*
%TO.P,Q1,2,B*%
%TO.N,Net-(Q1-B)*%
X148290000Y-90000000D03*
%TO.P,Q1,3,E*%
%TO.N,GND*%
X147340000Y-91960000D03*
%TD*%
D11*
%TO.P,R11,1*%
%TO.N,Net-(AFF1-C.A.-Pad3)*%
X165950000Y-139120000D03*
%TO.P,R11,2*%
%TO.N,GND*%
X160870000Y-139120000D03*
%TD*%
D13*
%TO.P,C13,1*%
%TO.N,Net-(U2-Q)*%
X140290000Y-115500000D03*
%TO.P,C13,2*%
%TO.N,Net-(U3-Q2GATES)*%
X143290000Y-115500000D03*
%TD*%
D30*
%TO.N,GND*%
X148790000Y-96000000D03*
X153790000Y-106500000D03*
%TO.N,Net-(U1-TR)*%
X132190000Y-117565687D03*
%TO.N,Net-(U1-R)*%
X136790000Y-114000000D03*
X133790000Y-117000000D03*
%TO.N,Net-(U1-CV)*%
X118790000Y-116000000D03*
X118790000Y-110500000D03*
%TO.N,Net-(U1-Q)*%
X130790000Y-118500000D03*
%TO.N,Net-(U2-Q)*%
X137290000Y-119000000D03*
X136290000Y-128000000D03*
%TO.N,Net-(SW1-B)*%
X127290000Y-111000000D03*
X121290000Y-117500000D03*
%TD*%
D31*
%TO.N,Net-(AFF1-C.A.-Pad3)*%
X165910000Y-139080000D02*
X165950000Y-139120000D01*
X165910000Y-133740000D02*
X165910000Y-139080000D01*
X165910000Y-118500000D02*
X165910000Y-133740000D01*
%TO.N,Net-(AFF1-g)*%
X171901300Y-112188700D02*
X173210000Y-110880000D01*
X167141300Y-112188700D02*
X171901300Y-112188700D01*
X160830000Y-118500000D02*
X167141300Y-112188700D01*
%TO.N,Net-(AFF1-c)*%
X180830000Y-103260000D02*
X176227000Y-107863000D01*
X176227000Y-107863000D02*
X176227000Y-125963000D01*
X176227000Y-125963000D02*
X168450000Y-133740000D01*
%TO.N,Net-(AFF1-f)*%
X159767000Y-117559691D02*
X167347524Y-109979167D01*
X167347524Y-109979167D02*
X171570833Y-109979167D01*
X160389691Y-120063000D02*
X159767000Y-119440309D01*
X161807000Y-120063000D02*
X160389691Y-120063000D01*
X171570833Y-109979167D02*
X173210000Y-108340000D01*
X163370000Y-118500000D02*
X161807000Y-120063000D01*
X159767000Y-119440309D02*
X159767000Y-117559691D01*
%TO.N,Net-(AFF2-c)*%
X185973000Y-108692800D02*
X185973000Y-123817000D01*
X185973000Y-123817000D02*
X182370000Y-127420000D01*
X182370000Y-127420000D02*
X182370000Y-133620000D01*
X191405800Y-103260000D02*
X185973000Y-108692800D01*
%TO.N,Net-(AFF2-C.A.-Pad3)*%
X174330000Y-139120000D02*
X179830000Y-133620000D01*
X179830000Y-133620000D02*
X179830000Y-118380000D01*
X173410000Y-139120000D02*
X174330000Y-139120000D01*
%TO.N,Net-(AFF2-f)*%
X182837100Y-112832900D02*
X177290000Y-118380000D01*
X182837100Y-109288700D02*
X182837100Y-112832900D01*
X183785800Y-108340000D02*
X182837100Y-109288700D01*
%TO.N,Net-(AFF2-a)*%
X191405800Y-110880000D02*
X192354500Y-109931300D01*
X185572000Y-115178000D02*
X182370000Y-118380000D01*
X185572000Y-107752135D02*
X185572000Y-115178000D01*
X192354500Y-109931300D02*
X192354500Y-102867035D01*
X191012835Y-102311300D02*
X185572000Y-107752135D01*
X191798765Y-102311300D02*
X191012835Y-102311300D01*
X192354500Y-102867035D02*
X191798765Y-102311300D01*
%TO.N,Net-(AFF3-C.A.-Pad3)*%
X180950000Y-139120000D02*
X187790000Y-139120000D01*
X187790000Y-139120000D02*
X193290000Y-133620000D01*
X193290000Y-133620000D02*
X193290000Y-118380000D01*
%TO.N,GND*%
X130790000Y-106000000D02*
X132290000Y-104500000D01*
X142290000Y-121000000D02*
X142290000Y-125000000D01*
X127290000Y-100550000D02*
X132240000Y-100550000D01*
X148790000Y-96000000D02*
X147340000Y-96000000D01*
X147340000Y-91960000D02*
X147340000Y-96000000D01*
X121840000Y-100550000D02*
X121790000Y-100500000D01*
X146290000Y-130740000D02*
X142290000Y-126740000D01*
X198370000Y-118380000D02*
X200910000Y-120920000D01*
X146880000Y-91500000D02*
X147340000Y-91960000D01*
X132240000Y-100550000D02*
X132290000Y-100500000D01*
X146290000Y-130740000D02*
X152490000Y-130740000D01*
X148290000Y-100500000D02*
X148240000Y-100550000D01*
X147340000Y-99050000D02*
X148790000Y-100500000D01*
X200910000Y-120920000D02*
X200910000Y-138120000D01*
X127290000Y-100550000D02*
X121840000Y-100550000D01*
X169331000Y-140121000D02*
X168330000Y-139120000D01*
X167330000Y-140120000D02*
X168330000Y-139120000D01*
X118790000Y-93000000D02*
X118790000Y-98500000D01*
X130790000Y-106500000D02*
X130790000Y-106000000D01*
X161870000Y-140120000D02*
X167330000Y-140120000D01*
X131885000Y-125975000D02*
X131885000Y-126949999D01*
X149290000Y-100000000D02*
X148790000Y-100500000D01*
X125790000Y-108000000D02*
X129290000Y-108000000D01*
X153190000Y-105900000D02*
X153190000Y-100500000D01*
X138290000Y-100500000D02*
X132290000Y-100500000D01*
X142290000Y-126740000D02*
X142290000Y-125000000D01*
X136290000Y-91500000D02*
X146880000Y-91500000D01*
X174869000Y-140121000D02*
X169331000Y-140121000D01*
X126195000Y-108405000D02*
X125790000Y-108000000D01*
X132290000Y-104500000D02*
X132290000Y-100500000D01*
X135790000Y-130740000D02*
X131885000Y-126835000D01*
X126790000Y-108000000D02*
X125790000Y-108000000D01*
X174870000Y-140120000D02*
X174869000Y-140121000D01*
X126195000Y-116025000D02*
X126195000Y-108405000D01*
X110082500Y-94500000D02*
X110790000Y-94500000D01*
X110790000Y-94500000D02*
X116790000Y-100500000D01*
X153190000Y-100500000D02*
X148790000Y-100500000D01*
X131885000Y-126835000D02*
X131885000Y-125975000D01*
X129290000Y-108000000D02*
X130790000Y-106500000D01*
X148240000Y-100550000D02*
X142790000Y-100550000D01*
X175870000Y-139120000D02*
X174870000Y-140120000D01*
X135790000Y-130740000D02*
X146290000Y-130740000D01*
X147340000Y-96000000D02*
X147340000Y-99050000D01*
X152490000Y-130740000D02*
X160870000Y-139120000D01*
X148790000Y-100500000D02*
X148290000Y-100500000D01*
X153790000Y-106500000D02*
X153190000Y-105900000D01*
X138340000Y-100550000D02*
X138290000Y-100500000D01*
X121790000Y-100500000D02*
X116790000Y-100500000D01*
X142790000Y-100550000D02*
X138340000Y-100550000D01*
X198910000Y-140120000D02*
X174870000Y-140120000D01*
X200910000Y-138120000D02*
X198910000Y-140120000D01*
X118790000Y-98500000D02*
X116790000Y-100500000D01*
X160870000Y-139120000D02*
X161870000Y-140120000D01*
%TO.N,Net-(AFF3-e)*%
X201981600Y-108340000D02*
X201065614Y-108340000D01*
X201065614Y-108340000D02*
X192227000Y-117178614D01*
X192227000Y-129603000D02*
X188210000Y-133620000D01*
X192227000Y-117178614D02*
X192227000Y-129603000D01*
%TO.N,Net-(PS1-+Vout)*%
X122190000Y-103100000D02*
X121790000Y-103500000D01*
X110082500Y-109500000D02*
X110790000Y-109500000D01*
X110790000Y-109500000D02*
X116790000Y-103500000D01*
X121790000Y-103500000D02*
X116790000Y-103500000D01*
X127290000Y-103100000D02*
X122190000Y-103100000D01*
%TO.N,Net-(U1-TR)*%
X142790000Y-98000000D02*
X138790000Y-98000000D01*
X170290000Y-96000000D02*
X171598700Y-94691300D01*
X192354500Y-94691300D02*
X191405800Y-95640000D01*
X189765800Y-94000000D02*
X182470000Y-94000000D01*
X131790000Y-98000000D02*
X132290000Y-97500000D01*
X201032900Y-94691300D02*
X192354500Y-94691300D01*
X129290000Y-117500000D02*
X128790000Y-117000000D01*
X132290000Y-97500000D02*
X138290000Y-97500000D01*
X125790000Y-118000000D02*
X126290000Y-118000000D01*
X171598700Y-94691300D02*
X179881300Y-94691300D01*
X124925000Y-117135000D02*
X125790000Y-118000000D01*
X182470000Y-94000000D02*
X180830000Y-95640000D01*
X132124313Y-117500000D02*
X129290000Y-117500000D01*
X127290000Y-98000000D02*
X131790000Y-98000000D01*
X201981600Y-95640000D02*
X201032900Y-94691300D01*
X191405800Y-95640000D02*
X189765800Y-94000000D01*
X126290000Y-118000000D02*
X128790000Y-115500000D01*
X132190000Y-117565687D02*
X132124313Y-117500000D01*
X128790000Y-117000000D02*
X128790000Y-115500000D01*
X127290000Y-87960000D02*
X127750000Y-87500000D01*
X138790000Y-98000000D02*
X138290000Y-97500000D01*
X179881300Y-94691300D02*
X180830000Y-95640000D01*
X124925000Y-116025000D02*
X124925000Y-117135000D01*
X127290000Y-98000000D02*
X127290000Y-87960000D01*
%TO.N,Net-(U1-R)*%
X151250000Y-104960000D02*
X151290000Y-105000000D01*
X148290000Y-113000000D02*
X137790000Y-113000000D01*
X126195000Y-120975000D02*
X126195000Y-120181968D01*
X121360000Y-115000000D02*
X122385000Y-116025000D01*
X135695000Y-125000001D02*
X135695000Y-125975000D01*
X129840000Y-121025000D02*
X129790000Y-120975000D01*
X137710000Y-129500000D02*
X137790000Y-129500000D01*
X129815000Y-120975000D02*
X129790000Y-120975000D01*
X124710000Y-124000000D02*
X126195000Y-122515000D01*
X149790000Y-104500000D02*
X148790000Y-103500000D01*
X123290000Y-117500000D02*
X122385000Y-116595000D01*
X126195000Y-120975000D02*
X129790000Y-120975000D01*
X126195000Y-120181968D02*
X123513032Y-117500000D01*
X131885000Y-121025000D02*
X129840000Y-121025000D01*
X126195000Y-122515000D02*
X126195000Y-120975000D01*
X122385000Y-116595000D02*
X122385000Y-116025000D01*
X131885000Y-121025000D02*
X131885000Y-121818032D01*
X133790000Y-117000000D02*
X129815000Y-120975000D01*
X152290000Y-110000000D02*
X161290000Y-101000000D01*
X116290000Y-116080000D02*
X117370000Y-115000000D01*
X156330000Y-92000000D02*
X161290000Y-96960000D01*
X137790000Y-129500000D02*
X137790000Y-128070000D01*
X151290000Y-105000000D02*
X151290000Y-107500000D01*
X151250000Y-104500000D02*
X151250000Y-104960000D01*
X156330000Y-88000000D02*
X156330000Y-92000000D01*
X117370000Y-115000000D02*
X121360000Y-115000000D01*
X123513032Y-117500000D02*
X123290000Y-117500000D01*
X130204628Y-125001000D02*
X131290000Y-123915628D01*
X151250000Y-104500000D02*
X149790000Y-104500000D01*
X143190000Y-103500000D02*
X142790000Y-103100000D01*
X134610626Y-123915628D02*
X135695000Y-125000001D01*
X153910000Y-115500000D02*
X153910000Y-112620000D01*
X151290000Y-110000000D02*
X151290000Y-107500000D01*
X137790000Y-113000000D02*
X136790000Y-114000000D01*
X161290000Y-96960000D02*
X161290000Y-101000000D01*
X151290000Y-110000000D02*
X148290000Y-113000000D01*
X124710000Y-124000000D02*
X125711000Y-125001000D01*
X148790000Y-103500000D02*
X143190000Y-103500000D01*
X153910000Y-112620000D02*
X151290000Y-110000000D01*
X137790000Y-128070000D02*
X135695000Y-125975000D01*
X125711000Y-125001000D02*
X130204628Y-125001000D01*
X151290000Y-110000000D02*
X152290000Y-110000000D01*
X131290000Y-123915628D02*
X134610626Y-123915628D01*
%TO.N,Net-(U1-CV)*%
X118790000Y-116000000D02*
X118790000Y-117380000D01*
X121290000Y-108000000D02*
X118790000Y-110500000D01*
X122790000Y-108000000D02*
X121290000Y-108000000D01*
X122385000Y-120975000D02*
X118790000Y-117380000D01*
%TO.N,Net-(C8-Pad2)*%
X133290000Y-92000000D02*
X133250000Y-92040000D01*
X133250000Y-92040000D02*
X133250000Y-94500000D01*
X133290000Y-91500000D02*
X133290000Y-92000000D01*
X132830000Y-91040000D02*
X133290000Y-91500000D01*
X132830000Y-87500000D02*
X132830000Y-91040000D01*
%TO.N,Net-(U1-Q)*%
X130790000Y-118500000D02*
X125722900Y-118500000D01*
X125722900Y-118500000D02*
X123655000Y-116432100D01*
X123655000Y-113135000D02*
X123655000Y-116025000D01*
X123790000Y-113000000D02*
X123655000Y-113135000D01*
X123655000Y-116432100D02*
X123655000Y-116025000D01*
X123790000Y-112500000D02*
X123790000Y-113000000D01*
%TO.N,Net-(U2-TR)*%
X115289000Y-112001000D02*
X116290000Y-111000000D01*
X126045372Y-127251000D02*
X115289000Y-116494628D01*
X132853999Y-124699000D02*
X131073728Y-124699000D01*
X120790000Y-112500000D02*
X117790000Y-112500000D01*
X115289000Y-116494628D02*
X115289000Y-112001000D01*
X117790000Y-112500000D02*
X116290000Y-111000000D01*
X133155000Y-125000001D02*
X132853999Y-124699000D01*
X128521728Y-127251000D02*
X126045372Y-127251000D01*
X131073728Y-124699000D02*
X128521728Y-127251000D01*
X133155000Y-125975000D02*
X133155000Y-125000001D01*
%TO.N,Net-(U2-Q)*%
X155357100Y-107500000D02*
X155357100Y-115394565D01*
X174158700Y-106192965D02*
X173602965Y-106748700D01*
X134425000Y-126949999D02*
X134425000Y-125975000D01*
X182837100Y-99771300D02*
X183785800Y-100720000D01*
X140290000Y-115500000D02*
X137290000Y-115500000D01*
X137290000Y-115500000D02*
X137290000Y-119000000D01*
X174158700Y-101668700D02*
X174158700Y-106192965D01*
X136290000Y-128000000D02*
X135475001Y-128000000D01*
X173602965Y-106748700D02*
X172817035Y-106748700D01*
X154302965Y-116448700D02*
X153305800Y-116448700D01*
X193412900Y-99771300D02*
X194361600Y-100720000D01*
X174158700Y-99771300D02*
X182837100Y-99771300D01*
X153305800Y-116448700D02*
X150956100Y-114099000D01*
X155357100Y-115394565D02*
X154302965Y-116448700D01*
X150956100Y-114099000D02*
X141691000Y-114099000D01*
X173210000Y-100720000D02*
X174158700Y-101668700D01*
X135475001Y-128000000D02*
X134425000Y-126949999D01*
X141691000Y-114099000D02*
X140290000Y-115500000D01*
X183785800Y-100720000D02*
X184734500Y-99771300D01*
X184734500Y-99771300D02*
X193412900Y-99771300D01*
X173210000Y-100720000D02*
X174158700Y-99771300D01*
X172817035Y-106748700D02*
X172065735Y-107500000D01*
X131790000Y-115500000D02*
X137290000Y-115500000D01*
X172065735Y-107500000D02*
X155357100Y-107500000D01*
%TO.N,Net-(U2-DIS)*%
X133155000Y-121025000D02*
X134425000Y-121025000D01*
X134726001Y-119749000D02*
X134425000Y-120050001D01*
X129790000Y-124000000D02*
X130638528Y-124000000D01*
X138039000Y-119749000D02*
X134726001Y-119749000D01*
X133155000Y-121025000D02*
X133155000Y-121483528D01*
X134425000Y-120050001D02*
X134425000Y-121025000D01*
X139290000Y-121000000D02*
X138039000Y-119749000D01*
X133155000Y-121624949D02*
X133155000Y-121025000D01*
X133155000Y-121483528D02*
X130638528Y-124000000D01*
%TO.N,Net-(U2-CV)*%
X135695000Y-121025000D02*
X139290000Y-124620000D01*
X139290000Y-124620000D02*
X139290000Y-125000000D01*
%TO.N,Net-(U3-Q2GATES)*%
X147238700Y-119631300D02*
X147238700Y-114551300D01*
X146290000Y-120580000D02*
X147238700Y-119631300D01*
X147238700Y-114551300D02*
X147187400Y-114500000D01*
X147187400Y-114500000D02*
X144290000Y-114500000D01*
X144290000Y-114500000D02*
X143290000Y-115500000D01*
%TO.N,Net-(Q1-B)*%
X147790000Y-88000000D02*
X148290000Y-88500000D01*
X147790000Y-87500000D02*
X147790000Y-88000000D01*
X151250000Y-88000000D02*
X148290000Y-88000000D01*
X148290000Y-88500000D02*
X148290000Y-90000000D01*
X148290000Y-88000000D02*
X147790000Y-87500000D01*
%TO.N,Net-(J1-Pin_1)*%
X118790000Y-85000000D02*
X119290000Y-85000000D01*
X119290000Y-84500000D02*
X118790000Y-85000000D01*
X119290000Y-85000000D02*
X119790000Y-84500000D01*
X147790000Y-84500000D02*
X119290000Y-84500000D01*
%TO.N,Net-(D1-A)*%
X156390000Y-104440000D02*
X156330000Y-104500000D01*
X156390000Y-100500000D02*
X156390000Y-104440000D01*
%TO.N,Net-(Q1-C)*%
X149240000Y-91960000D02*
X151210000Y-91960000D01*
X151210000Y-91960000D02*
X151250000Y-92000000D01*
%TO.N,Net-(R14-Pad1)*%
X146210000Y-107500000D02*
X143790000Y-107500000D01*
%TO.N,Net-(R15-Pad1)*%
X146210000Y-110000000D02*
X143830000Y-110000000D01*
%TO.N,Net-(SW1-A)*%
X138710000Y-107500000D02*
X136330000Y-107500000D01*
%TO.N,Net-(SW1-C)*%
X138750000Y-110000000D02*
X137330000Y-110000000D01*
X137330000Y-110000000D02*
X136330000Y-111000000D01*
%TO.N,Net-(U3-Q2NDRAIN)*%
X190457100Y-99128700D02*
X191405800Y-98180000D01*
X181778700Y-99128700D02*
X190457100Y-99128700D01*
X146290000Y-125660000D02*
X145341300Y-124711300D01*
X145341300Y-124711300D02*
X145341300Y-116448700D01*
X192354500Y-99128700D02*
X201032900Y-99128700D01*
X201032900Y-99128700D02*
X201981600Y-98180000D01*
X191405800Y-98180000D02*
X192354500Y-99128700D01*
X145341300Y-116448700D02*
X146290000Y-115500000D01*
X180830000Y-98180000D02*
X181778700Y-99128700D01*
%TO.N,Net-(U3-Q3NDRAIN)*%
X173210000Y-98180000D02*
X174158700Y-97231300D01*
X193412900Y-97231300D02*
X184734500Y-97231300D01*
X174158700Y-97231300D02*
X182837100Y-97231300D01*
X182837100Y-97231300D02*
X183785800Y-98180000D01*
X184734500Y-97231300D02*
X183785800Y-98180000D01*
X194361600Y-98180000D02*
X193412900Y-97231300D01*
%TO.N,Net-(U4-CARRYOUT)*%
X183785800Y-95640000D02*
X182595500Y-96830300D01*
X172261300Y-97787035D02*
X172261300Y-104851300D01*
X182595500Y-96830300D02*
X173218035Y-96830300D01*
X172261300Y-104851300D02*
X173210000Y-105800000D01*
X173218035Y-96830300D02*
X172261300Y-97787035D01*
%TO.N,Net-(U4-CLOCK)*%
X162670000Y-98540000D02*
X164261300Y-96948700D01*
X171901300Y-96948700D02*
X173210000Y-95640000D01*
X164261300Y-96948700D02*
X171901300Y-96948700D01*
%TO.N,Net-(J3-Pin_1)*%
X80002500Y-98500000D02*
X81002500Y-99500000D01*
X72000000Y-98500000D02*
X80002500Y-98500000D01*
%TO.N,Net-(SW1-B)*%
X131040000Y-109250000D02*
X130790000Y-109500000D01*
X128790000Y-109500000D02*
X127290000Y-111000000D01*
X130790000Y-109500000D02*
X128790000Y-109500000D01*
X123655000Y-119865000D02*
X123655000Y-120975000D01*
X134030000Y-109250000D02*
X131040000Y-109250000D01*
X123655000Y-120975000D02*
X124925000Y-120975000D01*
X121290000Y-117500000D02*
X123655000Y-119865000D01*
%TO.N,Net-(J4-Pin_1)*%
X72000000Y-105000000D02*
X80502500Y-105000000D01*
X80502500Y-105000000D02*
X81002500Y-104500000D01*
%TD*%
M02*
