%TF.GenerationSoftware,KiCad,Pcbnew,9.0.5*%
%TF.CreationDate,2025-11-16T11:42:38+05:30*%
%TF.ProjectId,PCBProject,50434250-726f-46a6-9563-742e6b696361,rev?*%
%TF.SameCoordinates,Original*%
%TF.FileFunction,Copper,L2,Bot*%
%TF.FilePolarity,Positive*%
%FSLAX46Y46*%
G04 Gerber Fmt 4.6, Leading zero omitted, Abs format (unit mm)*
G04 Created by KiCad (PCBNEW 9.0.5) date 2025-11-16 11:42:38*
%MOMM*%
%LPD*%
G01*
G04 APERTURE LIST*
G04 Aperture macros list*
%AMRoundRect*
0 Rectangle with rounded corners*
0 $1 Rounding radius*
0 $2 $3 $4 $5 $6 $7 $8 $9 X,Y pos of 4 corners*
0 Add a 4 corners polygon primitive as box body*
4,1,4,$2,$3,$4,$5,$6,$7,$8,$9,$2,$3,0*
0 Add four circle primitives for the rounded corners*
1,1,$1+$1,$2,$3*
1,1,$1+$1,$4,$5*
1,1,$1+$1,$6,$7*
1,1,$1+$1,$8,$9*
0 Add four rect primitives between the rounded corners*
20,1,$1+$1,$2,$3,$4,$5,0*
20,1,$1+$1,$4,$5,$6,$7,0*
20,1,$1+$1,$6,$7,$8,$9,0*
20,1,$1+$1,$8,$9,$2,$3,0*%
G04 Aperture macros list end*
%TA.AperFunction,ComponentPad*%
%ADD10C,1.400000*%
%TD*%
%TA.AperFunction,ComponentPad*%
%ADD11R,2.800000X2.800000*%
%TD*%
%TA.AperFunction,ComponentPad*%
%ADD12RoundRect,0.250000X-0.600000X-0.750000X0.600000X-0.750000X0.600000X0.750000X-0.600000X0.750000X0*%
%TD*%
%TA.AperFunction,ComponentPad*%
%ADD13O,1.700000X2.000000*%
%TD*%
%TA.AperFunction,ComponentPad*%
%ADD14R,1.910000X1.910000*%
%TD*%
%TA.AperFunction,ComponentPad*%
%ADD15C,1.910000*%
%TD*%
%TA.AperFunction,ComponentPad*%
%ADD16R,1.524000X2.524000*%
%TD*%
%TA.AperFunction,ComponentPad*%
%ADD17O,1.524000X2.524000*%
%TD*%
%TA.AperFunction,ComponentPad*%
%ADD18R,1.295400X1.295400*%
%TD*%
%TA.AperFunction,ComponentPad*%
%ADD19C,1.295400*%
%TD*%
%TA.AperFunction,ComponentPad*%
%ADD20R,1.905000X1.905000*%
%TD*%
%TA.AperFunction,ComponentPad*%
%ADD21C,1.905000*%
%TD*%
%TA.AperFunction,ViaPad*%
%ADD22C,0.600000*%
%TD*%
%TA.AperFunction,Conductor*%
%ADD23C,0.200000*%
%TD*%
G04 APERTURE END LIST*
D10*
%TO.P,R7,1*%
%TO.N,Net-(U1-R)*%
X124710000Y-124000000D03*
%TO.P,R7,2*%
%TO.N,Net-(U2-DIS)*%
X129790000Y-124000000D03*
%TD*%
D11*
%TO.P,J4,1,Pin_1*%
%TO.N,Net-(J4-Pin_1)*%
X72000000Y-105000000D03*
%TD*%
D10*
%TO.P,R2,1*%
%TO.N,Net-(U1-R)*%
X151290000Y-107500000D03*
%TO.P,R2,2*%
%TO.N,Net-(R14-Pad1)*%
X146210000Y-107500000D03*
%TD*%
%TO.P,R12,1*%
%TO.N,Net-(AFF2-C.A.-Pad3)*%
X173410000Y-139120000D03*
%TO.P,R12,2*%
%TO.N,GND*%
X168330000Y-139120000D03*
%TD*%
%TO.P,R8,1*%
%TO.N,Net-(U1-R)*%
X137710000Y-129500000D03*
%TO.P,R8,2*%
%TO.N,Net-(U3-Q2GATES)*%
X142790000Y-129500000D03*
%TD*%
%TO.P,R3,1*%
%TO.N,Net-(U1-R)*%
X151290000Y-110000000D03*
%TO.P,R3,2*%
%TO.N,Net-(R15-Pad1)*%
X146210000Y-110000000D03*
%TD*%
%TO.P,R1,1*%
%TO.N,Net-(U1-R)*%
X151250000Y-104500000D03*
%TO.P,R1,2*%
%TO.N,Net-(D1-A)*%
X156330000Y-104500000D03*
%TD*%
%TO.P,R6,1*%
%TO.N,Net-(U1-R)*%
X116290000Y-116080000D03*
%TO.P,R6,2*%
%TO.N,Net-(U2-TR)*%
X116290000Y-111000000D03*
%TD*%
%TO.P,R9,1*%
%TO.N,Net-(U1-R)*%
X156330000Y-88000000D03*
%TO.P,R9,2*%
%TO.N,Net-(Q1-B)*%
X151250000Y-88000000D03*
%TD*%
%TO.P,R14,1*%
%TO.N,Net-(R14-Pad1)*%
X143790000Y-107500000D03*
%TO.P,R14,2*%
%TO.N,Net-(SW1-A)*%
X138710000Y-107500000D03*
%TD*%
D12*
%TO.P,PS1,1,AC/L*%
%TO.N,Net-(J3-Pin_1)*%
X81002500Y-99500000D03*
D13*
%TO.P,PS1,2,AC/N*%
%TO.N,Net-(J4-Pin_1)*%
X81002500Y-104500000D03*
%TO.P,PS1,3,-Vout*%
%TO.N,GND*%
X110082500Y-94500000D03*
%TO.P,PS1,4,+Vout*%
%TO.N,Net-(PS1-+Vout)*%
X110082500Y-109500000D03*
%TD*%
D10*
%TO.P,R15,1*%
%TO.N,Net-(R15-Pad1)*%
X143830000Y-110000000D03*
%TO.P,R15,2*%
%TO.N,Net-(SW1-C)*%
X138750000Y-110000000D03*
%TD*%
D11*
%TO.P,J1,1,Pin_1*%
%TO.N,Net-(J1-Pin_1)*%
X118790000Y-85000000D03*
%TD*%
D10*
%TO.P,R13,1*%
%TO.N,Net-(AFF3-C.A.-Pad3)*%
X180950000Y-139120000D03*
%TO.P,R13,2*%
%TO.N,GND*%
X175870000Y-139120000D03*
%TD*%
D14*
%TO.P,U10,1,IN*%
%TO.N,Net-(U1-TR)*%
X142790000Y-98000000D03*
D15*
%TO.P,U10,2,GND*%
%TO.N,GND*%
X142790000Y-100550000D03*
%TO.P,U10,3,OUT*%
%TO.N,Net-(U1-R)*%
X142790000Y-103100000D03*
%TD*%
D16*
%TO.P,AFF2,1,e*%
%TO.N,Net-(AFF2-e)*%
X174750000Y-133620000D03*
D17*
%TO.P,AFF2,2,d*%
%TO.N,Net-(AFF2-d)*%
X177290000Y-133620000D03*
%TO.P,AFF2,3,C.A.*%
%TO.N,Net-(AFF2-C.A.-Pad3)*%
X179830000Y-133620000D03*
%TO.P,AFF2,4,c*%
%TO.N,Net-(AFF2-c)*%
X182370000Y-133620000D03*
%TO.P,AFF2,5,DP*%
%TO.N,unconnected-(AFF2-DP-Pad5)*%
X184910000Y-133620000D03*
%TO.P,AFF2,6,b*%
%TO.N,Net-(AFF2-b)*%
X184910000Y-118380000D03*
%TO.P,AFF2,7,a*%
%TO.N,Net-(AFF2-a)*%
X182370000Y-118380000D03*
%TO.P,AFF2,8,C.A.*%
%TO.N,Net-(AFF2-C.A.-Pad3)*%
X179830000Y-118380000D03*
%TO.P,AFF2,9,f*%
%TO.N,Net-(AFF2-f)*%
X177290000Y-118380000D03*
%TO.P,AFF2,10,g*%
%TO.N,Net-(AFF2-g)*%
X174750000Y-118380000D03*
%TD*%
D10*
%TO.P,R4,1*%
%TO.N,Net-(U1-R)*%
X138330000Y-94500000D03*
%TO.P,R4,2*%
%TO.N,Net-(C8-Pad2)*%
X133250000Y-94500000D03*
%TD*%
D18*
%TO.P,U6,1,CLOCK*%
%TO.N,Net-(U5-CARRYOUT)*%
X194361600Y-95640000D03*
D19*
%TO.P,U6,2,CLOCKINHIBIT*%
%TO.N,Net-(U3-Q3NDRAIN)*%
X194361600Y-98180000D03*
%TO.P,U6,3,DISPLAYENABLEIN*%
%TO.N,Net-(U2-Q)*%
X194361600Y-100720000D03*
%TO.P,U6,4,DISPLAYENABLEOUT*%
%TO.N,unconnected-(U6-DISPLAYENABLEOUT-Pad4)*%
X194361600Y-103260000D03*
%TO.P,U6,5,CARRYOUT*%
%TO.N,unconnected-(U6-CARRYOUT-Pad5)*%
X194361600Y-105800000D03*
%TO.P,U6,6,F*%
%TO.N,Net-(AFF3-f)*%
X194361600Y-108340000D03*
%TO.P,U6,7,G*%
%TO.N,Net-(AFF3-g)*%
X194361600Y-110880000D03*
%TO.P,U6,8,VSS*%
%TO.N,unconnected-(U6-VSS-Pad8)*%
X194361600Y-113420000D03*
%TO.P,U6,9,D*%
%TO.N,Net-(AFF3-d)*%
X201981600Y-113420000D03*
%TO.P,U6,10,A*%
%TO.N,Net-(AFF3-a)*%
X201981600Y-110880000D03*
%TO.P,U6,11,E*%
%TO.N,Net-(AFF3-e)*%
X201981600Y-108340000D03*
%TO.P,U6,12,B*%
%TO.N,GND*%
X201981600Y-105800000D03*
%TO.P,U6,13,C*%
%TO.N,Net-(AFF3-c)*%
X201981600Y-103260000D03*
%TO.P,U6,14,OUT*%
%TO.N,unconnected-(U6-OUT-Pad14)*%
X201981600Y-100720000D03*
%TO.P,U6,15,RESET*%
%TO.N,Net-(U3-Q2NDRAIN)*%
X201981600Y-98180000D03*
%TO.P,U6,16,VDD*%
%TO.N,Net-(U1-TR)*%
X201981600Y-95640000D03*
%TD*%
D20*
%TO.P,U11,1,IN*%
%TO.N,Net-(PS1-+Vout)*%
X127290000Y-103100000D03*
D21*
%TO.P,U11,2,GND*%
%TO.N,GND*%
X127290000Y-100550000D03*
%TO.P,U11,3,OUT*%
%TO.N,Net-(U1-TR)*%
X127290000Y-98000000D03*
%TD*%
D11*
%TO.P,J3,1,Pin_1*%
%TO.N,Net-(J3-Pin_1)*%
X72000000Y-98500000D03*
%TD*%
D18*
%TO.P,U3,1,Q2PDRAIN*%
%TO.N,Net-(U3-Q2NDRAIN)*%
X146290000Y-115500000D03*
D19*
%TO.P,U3,2,Q2PSOURCE*%
%TO.N,unconnected-(U3-Q2PSOURCE-Pad2)*%
X146290000Y-118040000D03*
%TO.P,U3,3,Q2GATES*%
%TO.N,Net-(U3-Q2GATES)*%
X146290000Y-120580000D03*
%TO.P,U3,4,Q2NSOURCE*%
%TO.N,unconnected-(U3-Q2NSOURCE-Pad4)*%
X146290000Y-123120000D03*
%TO.P,U3,5,Q2NDRAIN*%
%TO.N,Net-(U3-Q2NDRAIN)*%
X146290000Y-125660000D03*
%TO.P,U3,6,Q1GATES*%
%TO.N,unconnected-(U3-Q1GATES-Pad6)*%
X146290000Y-128200000D03*
%TO.P,U3,7,VSS*%
%TO.N,GND*%
X146290000Y-130740000D03*
%TO.P,U3,8,Q1NDRAIN*%
%TO.N,unconnected-(U3-Q1NDRAIN-Pad8)*%
X153910000Y-130740000D03*
%TO.P,U3,9,Q3NSOURCE*%
%TO.N,unconnected-(U3-Q3NSOURCE-Pad9)*%
X153910000Y-128200000D03*
%TO.P,U3,10,Q3GATES*%
%TO.N,Net-(U1-Q)*%
X153910000Y-125660000D03*
%TO.P,U3,11,Q3PDRAIN*%
%TO.N,unconnected-(U3-Q3PDRAIN-Pad11)*%
X153910000Y-123120000D03*
%TO.P,U3,12,Q3NDRAIN*%
%TO.N,Net-(U3-Q3NDRAIN)*%
X153910000Y-120580000D03*
%TO.P,U3,13,Q1PSOURCE*%
%TO.N,unconnected-(U3-Q1PSOURCE-Pad13)*%
X153910000Y-118040000D03*
%TO.P,U3,14,VDD*%
%TO.N,Net-(U1-R)*%
X153910000Y-115500000D03*
%TD*%
D18*
%TO.P,U4,1,CLOCK*%
%TO.N,Net-(U4-CLOCK)*%
X173210000Y-95640000D03*
D19*
%TO.P,U4,2,CLOCKINHIBIT*%
%TO.N,Net-(U3-Q3NDRAIN)*%
X173210000Y-98180000D03*
%TO.P,U4,3,DISPLAYENABLEIN*%
%TO.N,Net-(U2-Q)*%
X173210000Y-100720000D03*
%TO.P,U4,4,DISPLAYENABLEOUT*%
%TO.N,unconnected-(U4-DISPLAYENABLEOUT-Pad4)*%
X173210000Y-103260000D03*
%TO.P,U4,5,CARRYOUT*%
%TO.N,Net-(U4-CARRYOUT)*%
X173210000Y-105800000D03*
%TO.P,U4,6,F*%
%TO.N,Net-(AFF1-f)*%
X173210000Y-108340000D03*
%TO.P,U4,7,G*%
%TO.N,Net-(AFF1-g)*%
X173210000Y-110880000D03*
%TO.P,U4,8,VSS*%
%TO.N,unconnected-(U4-VSS-Pad8)*%
X173210000Y-113420000D03*
%TO.P,U4,9,D*%
%TO.N,Net-(AFF1-d)*%
X180830000Y-113420000D03*
%TO.P,U4,10,A*%
%TO.N,Net-(AFF1-a)*%
X180830000Y-110880000D03*
%TO.P,U4,11,E*%
%TO.N,Net-(AFF1-e)*%
X180830000Y-108340000D03*
%TO.P,U4,12,B*%
%TO.N,Net-(AFF1-b)*%
X180830000Y-105800000D03*
%TO.P,U4,13,C*%
%TO.N,Net-(AFF1-c)*%
X180830000Y-103260000D03*
%TO.P,U4,14,OUT*%
%TO.N,unconnected-(U4-OUT-Pad14)*%
X180830000Y-100720000D03*
%TO.P,U4,15,RESET*%
%TO.N,Net-(U3-Q2NDRAIN)*%
X180830000Y-98180000D03*
%TO.P,U4,16,VDD*%
%TO.N,Net-(U1-TR)*%
X180830000Y-95640000D03*
%TD*%
D18*
%TO.P,U9,1,1A*%
%TO.N,Net-(Q1-C)*%
X162670000Y-96000000D03*
D19*
%TO.P,U9,2,1Y*%
%TO.N,Net-(U4-CLOCK)*%
X162670000Y-98540000D03*
%TO.P,U9,3,2A*%
%TO.N,unconnected-(U9-2A-Pad3)*%
X162670000Y-101080000D03*
%TO.P,U9,4,2Y*%
%TO.N,unconnected-(U9-2Y-Pad4)*%
X162670000Y-103620000D03*
%TO.P,U9,5,3A*%
%TO.N,unconnected-(U9-3A-Pad5)*%
X162670000Y-106160000D03*
%TO.P,U9,6,3Y*%
%TO.N,unconnected-(U9-3Y-Pad6)*%
X162670000Y-108700000D03*
%TO.P,U9,7,GND*%
%TO.N,GND*%
X162670000Y-111240000D03*
%TO.P,U9,8,4Y*%
%TO.N,unconnected-(U9-4Y-Pad8)*%
X170290000Y-111240000D03*
%TO.P,U9,9,4A*%
%TO.N,unconnected-(U9-4A-Pad9)*%
X170290000Y-108700000D03*
%TO.P,U9,10,5Y*%
%TO.N,unconnected-(U9-5Y-Pad10)*%
X170290000Y-106160000D03*
%TO.P,U9,11,5A*%
%TO.N,unconnected-(U9-5A-Pad11)*%
X170290000Y-103620000D03*
%TO.P,U9,12,6Y*%
%TO.N,unconnected-(U9-6Y-Pad12)*%
X170290000Y-101080000D03*
%TO.P,U9,13,6A*%
%TO.N,unconnected-(U9-6A-Pad13)*%
X170290000Y-98540000D03*
%TO.P,U9,14,VCC*%
%TO.N,Net-(U1-TR)*%
X170290000Y-96000000D03*
%TD*%
D11*
%TO.P,J2,1,Pin_1*%
%TO.N,GND*%
X118790000Y-93000000D03*
%TD*%
D10*
%TO.P,R5,1*%
%TO.N,Net-(C8-Pad2)*%
X132830000Y-87500000D03*
%TO.P,R5,2*%
%TO.N,Net-(U1-TR)*%
X127750000Y-87500000D03*
%TD*%
%TO.P,R10,1*%
%TO.N,Net-(U1-R)*%
X156330000Y-92000000D03*
%TO.P,R10,2*%
%TO.N,Net-(Q1-C)*%
X151250000Y-92000000D03*
%TD*%
D16*
%TO.P,AFF1,1,e*%
%TO.N,Net-(AFF1-e)*%
X160830000Y-133740000D03*
D17*
%TO.P,AFF1,2,d*%
%TO.N,Net-(AFF1-d)*%
X163370000Y-133740000D03*
%TO.P,AFF1,3,C.A.*%
%TO.N,Net-(AFF1-C.A.-Pad3)*%
X165910000Y-133740000D03*
%TO.P,AFF1,4,c*%
%TO.N,Net-(AFF1-c)*%
X168450000Y-133740000D03*
%TO.P,AFF1,5,DP*%
%TO.N,unconnected-(AFF1-DP-Pad5)*%
X170990000Y-133740000D03*
%TO.P,AFF1,6,b*%
%TO.N,Net-(AFF1-b)*%
X170990000Y-118500000D03*
%TO.P,AFF1,7,a*%
%TO.N,Net-(AFF1-a)*%
X168450000Y-118500000D03*
%TO.P,AFF1,8,C.A.*%
%TO.N,Net-(AFF1-C.A.-Pad3)*%
X165910000Y-118500000D03*
%TO.P,AFF1,9,f*%
%TO.N,Net-(AFF1-f)*%
X163370000Y-118500000D03*
%TO.P,AFF1,10,g*%
%TO.N,Net-(AFF1-g)*%
X160830000Y-118500000D03*
%TD*%
D18*
%TO.P,U5,1,CLOCK*%
%TO.N,Net-(U4-CARRYOUT)*%
X183785800Y-95640000D03*
D19*
%TO.P,U5,2,CLOCKINHIBIT*%
%TO.N,Net-(U3-Q3NDRAIN)*%
X183785800Y-98180000D03*
%TO.P,U5,3,DISPLAYENABLEIN*%
%TO.N,Net-(U2-Q)*%
X183785800Y-100720000D03*
%TO.P,U5,4,DISPLAYENABLEOUT*%
%TO.N,unconnected-(U5-DISPLAYENABLEOUT-Pad4)*%
X183785800Y-103260000D03*
%TO.P,U5,5,CARRYOUT*%
%TO.N,Net-(U5-CARRYOUT)*%
X183785800Y-105800000D03*
%TO.P,U5,6,F*%
%TO.N,Net-(AFF2-f)*%
X183785800Y-108340000D03*
%TO.P,U5,7,G*%
%TO.N,Net-(AFF2-g)*%
X183785800Y-110880000D03*
%TO.P,U5,8,VSS*%
%TO.N,unconnected-(U5-VSS-Pad8)*%
X183785800Y-113420000D03*
%TO.P,U5,9,D*%
%TO.N,Net-(AFF2-d)*%
X191405800Y-113420000D03*
%TO.P,U5,10,A*%
%TO.N,Net-(AFF2-a)*%
X191405800Y-110880000D03*
%TO.P,U5,11,E*%
%TO.N,Net-(AFF2-e)*%
X191405800Y-108340000D03*
%TO.P,U5,12,B*%
%TO.N,Net-(AFF2-b)*%
X191405800Y-105800000D03*
%TO.P,U5,13,C*%
%TO.N,Net-(AFF2-c)*%
X191405800Y-103260000D03*
%TO.P,U5,14,OUT*%
%TO.N,unconnected-(U5-OUT-Pad14)*%
X191405800Y-100720000D03*
%TO.P,U5,15,RESET*%
%TO.N,Net-(U3-Q2NDRAIN)*%
X191405800Y-98180000D03*
%TO.P,U5,16,VDD*%
%TO.N,Net-(U1-TR)*%
X191405800Y-95640000D03*
%TD*%
D16*
%TO.P,AFF3,1,e*%
%TO.N,Net-(AFF3-e)*%
X188210000Y-133620000D03*
D17*
%TO.P,AFF3,2,d*%
%TO.N,Net-(AFF3-d)*%
X190750000Y-133620000D03*
%TO.P,AFF3,3,C.A.*%
%TO.N,Net-(AFF3-C.A.-Pad3)*%
X193290000Y-133620000D03*
%TO.P,AFF3,4,c*%
%TO.N,Net-(AFF3-c)*%
X195830000Y-133620000D03*
%TO.P,AFF3,5,DP*%
%TO.N,unconnected-(AFF3-DP-Pad5)*%
X198370000Y-133620000D03*
%TO.P,AFF3,6,b*%
%TO.N,GND*%
X198370000Y-118380000D03*
%TO.P,AFF3,7,a*%
%TO.N,Net-(AFF3-a)*%
X195830000Y-118380000D03*
%TO.P,AFF3,8,C.A.*%
%TO.N,Net-(AFF3-C.A.-Pad3)*%
X193290000Y-118380000D03*
%TO.P,AFF3,9,f*%
%TO.N,Net-(AFF3-f)*%
X190750000Y-118380000D03*
%TO.P,AFF3,10,g*%
%TO.N,Net-(AFF3-g)*%
X188210000Y-118380000D03*
%TD*%
D10*
%TO.P,R11,1*%
%TO.N,Net-(AFF1-C.A.-Pad3)*%
X165950000Y-139120000D03*
%TO.P,R11,2*%
%TO.N,GND*%
X160870000Y-139120000D03*
%TD*%
D22*
%TO.N,GND*%
X148790000Y-96000000D03*
X153790000Y-106500000D03*
%TO.N,Net-(U1-TR)*%
X132190000Y-117565687D03*
%TO.N,Net-(U1-R)*%
X136790000Y-114000000D03*
X133790000Y-117000000D03*
%TO.N,Net-(U1-CV)*%
X118790000Y-116000000D03*
X118790000Y-110500000D03*
%TO.N,Net-(U1-Q)*%
X130790000Y-118500000D03*
%TO.N,Net-(U2-Q)*%
X137290000Y-119000000D03*
X136290000Y-128000000D03*
%TO.N,Net-(SW1-B)*%
X127290000Y-111000000D03*
X121290000Y-117500000D03*
%TD*%
D23*
%TO.N,Net-(AFF1-e)*%
X177341300Y-111828700D02*
X180830000Y-108340000D01*
X167290000Y-127280000D02*
X167290000Y-117000000D01*
X172461300Y-111828700D02*
X177341300Y-111828700D01*
X160830000Y-133740000D02*
X167290000Y-127280000D01*
X167290000Y-117000000D02*
X172461300Y-111828700D01*
%TO.N,Net-(AFF1-b)*%
X170990000Y-118500000D02*
X174720300Y-114769700D01*
X181222965Y-111828700D02*
X181778700Y-111272965D01*
X181778700Y-111272965D02*
X181778700Y-106748700D01*
X177507400Y-114769700D02*
X180448400Y-111828700D01*
X180448400Y-111828700D02*
X181222965Y-111828700D01*
X181778700Y-106748700D02*
X180830000Y-105800000D01*
X174720300Y-114769700D02*
X177507400Y-114769700D01*
%TO.N,Net-(AFF1-d)*%
X179079300Y-115170700D02*
X180830000Y-113420000D01*
X163370000Y-133740000D02*
X173687000Y-123423000D01*
X173687000Y-123423000D02*
X173687000Y-117439691D01*
X173687000Y-117439691D02*
X175955991Y-115170700D01*
X175955991Y-115170700D02*
X179079300Y-115170700D01*
%TO.N,Net-(AFF1-a)*%
X172581300Y-114368700D02*
X177341300Y-114368700D01*
X168450000Y-118500000D02*
X172581300Y-114368700D01*
X177341300Y-114368700D02*
X180830000Y-110880000D01*
%TO.N,Net-(AFF2-d)*%
X177290000Y-133620000D02*
X189273000Y-121637000D01*
X189273000Y-121637000D02*
X189273000Y-115552800D01*
X189273000Y-115552800D02*
X191405800Y-113420000D01*
%TO.N,Net-(AFF2-b)*%
X191405800Y-105800000D02*
X184910000Y-112295800D01*
X184910000Y-112295800D02*
X184910000Y-118380000D01*
%TO.N,Net-(AFF2-e)*%
X185973000Y-113772800D02*
X185973000Y-122397000D01*
X191405800Y-108340000D02*
X185973000Y-113772800D01*
X185973000Y-122397000D02*
X174750000Y-133620000D01*
%TO.N,Net-(AFF2-g)*%
X183785800Y-110880000D02*
X183785800Y-111805865D01*
X178774665Y-116817000D02*
X176313000Y-116817000D01*
X176313000Y-116817000D02*
X174750000Y-118380000D01*
X183785800Y-111805865D02*
X178774665Y-116817000D01*
%TO.N,Net-(AFF3-f)*%
X195310300Y-109288700D02*
X194361600Y-108340000D01*
X190750000Y-118380000D02*
X195310300Y-113819700D01*
X195310300Y-113819700D02*
X195310300Y-109288700D01*
%TO.N,Net-(AFF3-g)*%
X191461300Y-111828700D02*
X193412900Y-111828700D01*
X188210000Y-118380000D02*
X188210000Y-115080000D01*
X193412900Y-111828700D02*
X194361600Y-110880000D01*
X188210000Y-115080000D02*
X191461300Y-111828700D01*
%TO.N,GND*%
X198370000Y-118380000D02*
X202930300Y-113819700D01*
X167999635Y-96948700D02*
X170948335Y-94000000D01*
X149738700Y-96948700D02*
X167999635Y-96948700D01*
X148790000Y-96000000D02*
X149738700Y-96948700D01*
X158530000Y-111240000D02*
X153790000Y-106500000D01*
X170948335Y-94000000D02*
X202790000Y-94000000D01*
X202930300Y-106748700D02*
X201981600Y-105800000D01*
X202930300Y-104851300D02*
X201981600Y-105800000D01*
X202930300Y-94140300D02*
X202930300Y-104851300D01*
X162670000Y-111240000D02*
X158530000Y-111240000D01*
X202790000Y-94000000D02*
X202930300Y-94140300D01*
X202930300Y-113819700D02*
X202930300Y-106748700D01*
%TO.N,Net-(AFF3-d)*%
X197307000Y-134146309D02*
X197307000Y-117439691D01*
X196270309Y-135183000D02*
X197307000Y-134146309D01*
X197307000Y-117439691D02*
X201326691Y-113420000D01*
X192313000Y-135183000D02*
X196270309Y-135183000D01*
X201326691Y-113420000D02*
X201981600Y-113420000D01*
X190750000Y-133620000D02*
X192313000Y-135183000D01*
%TO.N,Net-(AFF3-a)*%
X195830000Y-118380000D02*
X195830000Y-117031600D01*
X195830000Y-117031600D02*
X201981600Y-110880000D01*
%TO.N,Net-(AFF3-c)*%
X201032900Y-104208700D02*
X201981600Y-103260000D01*
X194767000Y-132557000D02*
X194767000Y-117439691D01*
X201032900Y-111173791D02*
X201032900Y-104208700D01*
X195830000Y-133620000D02*
X194767000Y-132557000D01*
X194767000Y-117439691D02*
X201032900Y-111173791D01*
%TO.N,Net-(U1-TR)*%
X163290000Y-112500000D02*
X163790000Y-112000000D01*
X132225313Y-117601000D02*
X134189000Y-117601000D01*
X134189000Y-117601000D02*
X139290000Y-112500000D01*
X164290000Y-102000000D02*
X168790000Y-97500000D01*
X168790000Y-97500000D02*
X170290000Y-96000000D01*
X163790000Y-102500000D02*
X170290000Y-96000000D01*
X143290000Y-97500000D02*
X168790000Y-97500000D01*
X132190000Y-117565687D02*
X132225313Y-117601000D01*
X142790000Y-98000000D02*
X143290000Y-97500000D01*
X139290000Y-112500000D02*
X163290000Y-112500000D01*
X163790000Y-112000000D02*
X163790000Y-102500000D01*
%TO.N,Net-(U1-R)*%
X133790000Y-117000000D02*
X136790000Y-114000000D01*
X138330000Y-94500000D02*
X139030000Y-93800000D01*
X154530000Y-93800000D02*
X156330000Y-92000000D01*
X139030000Y-93800000D02*
X154530000Y-93800000D01*
%TO.N,Net-(U1-CV)*%
X118790000Y-110500000D02*
X118790000Y-116000000D01*
%TO.N,Net-(U1-Q)*%
X146290000Y-119500000D02*
X147750000Y-119500000D01*
X130790000Y-118500000D02*
X130891000Y-118399000D01*
X147750000Y-119500000D02*
X153910000Y-125660000D01*
X130891000Y-118399000D02*
X145189000Y-118399000D01*
X145189000Y-118399000D02*
X146290000Y-119500000D01*
%TO.N,Net-(U2-Q)*%
X137290000Y-119000000D02*
X137290000Y-127000000D01*
X137290000Y-127000000D02*
X136290000Y-128000000D01*
%TO.N,Net-(U3-Q2GATES)*%
X142790000Y-129500000D02*
X142790000Y-124080000D01*
X142790000Y-124080000D02*
X146290000Y-120580000D01*
%TO.N,Net-(Q1-C)*%
X157170000Y-90500000D02*
X152750000Y-90500000D01*
X152750000Y-90500000D02*
X151250000Y-92000000D01*
X162670000Y-96000000D02*
X157170000Y-90500000D01*
%TO.N,Net-(U3-Q2NDRAIN)*%
X179881300Y-99128700D02*
X180830000Y-98180000D01*
X152318700Y-121528700D02*
X155477035Y-121528700D01*
X173242965Y-107108700D02*
X179881300Y-100470365D01*
X146290000Y-115500000D02*
X152318700Y-121528700D01*
X169897035Y-107108700D02*
X173242965Y-107108700D01*
X155477035Y-121528700D02*
X169897035Y-107108700D01*
X179881300Y-100470365D02*
X179881300Y-99128700D01*
%TO.N,Net-(U3-Q3NDRAIN)*%
X153910000Y-120580000D02*
X155777100Y-120580000D01*
X155777100Y-120580000D02*
X169341300Y-107015800D01*
X169341300Y-100675735D02*
X170528335Y-99488700D01*
X169341300Y-107015800D02*
X169341300Y-100675735D01*
X171901300Y-99488700D02*
X173210000Y-98180000D01*
X170528335Y-99488700D02*
X171901300Y-99488700D01*
%TO.N,Net-(U5-CARRYOUT)*%
X191156165Y-99771300D02*
X189814500Y-99771300D01*
X189814500Y-99771300D02*
X183785800Y-105800000D01*
X194361600Y-96565865D02*
X191156165Y-99771300D01*
X194361600Y-95640000D02*
X194361600Y-96565865D01*
%TO.N,Net-(SW1-B)*%
X127290000Y-111000000D02*
X121290000Y-117000000D01*
X121290000Y-117000000D02*
X121290000Y-117500000D01*
%TD*%
M02*
