%TF.GenerationSoftware,KiCad,Pcbnew,9.0.5*%
%TF.CreationDate,2025-11-16T11:42:38+05:30*%
%TF.ProjectId,PCBProject,50434250-726f-46a6-9563-742e6b696361,rev?*%
%TF.SameCoordinates,Original*%
%TF.FileFunction,Legend,Top*%
%TF.FilePolarity,Positive*%
%FSLAX46Y46*%
G04 Gerber Fmt 4.6, Leading zero omitted, Abs format (unit mm)*
G04 Created by KiCad (PCBNEW 9.0.5) date 2025-11-16 11:42:38*
%MOMM*%
%LPD*%
G01*
G04 APERTURE LIST*
%ADD10C,0.150000*%
%ADD11C,0.120000*%
%ADD12C,0.127000*%
%ADD13C,0.300000*%
%ADD14C,0.152400*%
%ADD15C,0.200000*%
G04 APERTURE END LIST*
D10*
X127083333Y-126454819D02*
X126750000Y-125978628D01*
X126511905Y-126454819D02*
X126511905Y-125454819D01*
X126511905Y-125454819D02*
X126892857Y-125454819D01*
X126892857Y-125454819D02*
X126988095Y-125502438D01*
X126988095Y-125502438D02*
X127035714Y-125550057D01*
X127035714Y-125550057D02*
X127083333Y-125645295D01*
X127083333Y-125645295D02*
X127083333Y-125788152D01*
X127083333Y-125788152D02*
X127035714Y-125883390D01*
X127035714Y-125883390D02*
X126988095Y-125931009D01*
X126988095Y-125931009D02*
X126892857Y-125978628D01*
X126892857Y-125978628D02*
X126511905Y-125978628D01*
X127416667Y-125454819D02*
X128083333Y-125454819D01*
X128083333Y-125454819D02*
X127654762Y-126454819D01*
X71666666Y-108954819D02*
X71666666Y-109669104D01*
X71666666Y-109669104D02*
X71619047Y-109811961D01*
X71619047Y-109811961D02*
X71523809Y-109907200D01*
X71523809Y-109907200D02*
X71380952Y-109954819D01*
X71380952Y-109954819D02*
X71285714Y-109954819D01*
X72571428Y-109288152D02*
X72571428Y-109954819D01*
X72333333Y-108907200D02*
X72095238Y-109621485D01*
X72095238Y-109621485D02*
X72714285Y-109621485D01*
X136833333Y-89359580D02*
X136785714Y-89407200D01*
X136785714Y-89407200D02*
X136642857Y-89454819D01*
X136642857Y-89454819D02*
X136547619Y-89454819D01*
X136547619Y-89454819D02*
X136404762Y-89407200D01*
X136404762Y-89407200D02*
X136309524Y-89311961D01*
X136309524Y-89311961D02*
X136261905Y-89216723D01*
X136261905Y-89216723D02*
X136214286Y-89026247D01*
X136214286Y-89026247D02*
X136214286Y-88883390D01*
X136214286Y-88883390D02*
X136261905Y-88692914D01*
X136261905Y-88692914D02*
X136309524Y-88597676D01*
X136309524Y-88597676D02*
X136404762Y-88502438D01*
X136404762Y-88502438D02*
X136547619Y-88454819D01*
X136547619Y-88454819D02*
X136642857Y-88454819D01*
X136642857Y-88454819D02*
X136785714Y-88502438D01*
X136785714Y-88502438D02*
X136833333Y-88550057D01*
X137404762Y-88883390D02*
X137309524Y-88835771D01*
X137309524Y-88835771D02*
X137261905Y-88788152D01*
X137261905Y-88788152D02*
X137214286Y-88692914D01*
X137214286Y-88692914D02*
X137214286Y-88645295D01*
X137214286Y-88645295D02*
X137261905Y-88550057D01*
X137261905Y-88550057D02*
X137309524Y-88502438D01*
X137309524Y-88502438D02*
X137404762Y-88454819D01*
X137404762Y-88454819D02*
X137595238Y-88454819D01*
X137595238Y-88454819D02*
X137690476Y-88502438D01*
X137690476Y-88502438D02*
X137738095Y-88550057D01*
X137738095Y-88550057D02*
X137785714Y-88645295D01*
X137785714Y-88645295D02*
X137785714Y-88692914D01*
X137785714Y-88692914D02*
X137738095Y-88788152D01*
X137738095Y-88788152D02*
X137690476Y-88835771D01*
X137690476Y-88835771D02*
X137595238Y-88883390D01*
X137595238Y-88883390D02*
X137404762Y-88883390D01*
X137404762Y-88883390D02*
X137309524Y-88931009D01*
X137309524Y-88931009D02*
X137261905Y-88978628D01*
X137261905Y-88978628D02*
X137214286Y-89073866D01*
X137214286Y-89073866D02*
X137214286Y-89264342D01*
X137214286Y-89264342D02*
X137261905Y-89359580D01*
X137261905Y-89359580D02*
X137309524Y-89407200D01*
X137309524Y-89407200D02*
X137404762Y-89454819D01*
X137404762Y-89454819D02*
X137595238Y-89454819D01*
X137595238Y-89454819D02*
X137690476Y-89407200D01*
X137690476Y-89407200D02*
X137738095Y-89359580D01*
X137738095Y-89359580D02*
X137785714Y-89264342D01*
X137785714Y-89264342D02*
X137785714Y-89073866D01*
X137785714Y-89073866D02*
X137738095Y-88978628D01*
X137738095Y-88978628D02*
X137690476Y-88931009D01*
X137690476Y-88931009D02*
X137595238Y-88883390D01*
X127333333Y-112859580D02*
X127285714Y-112907200D01*
X127285714Y-112907200D02*
X127142857Y-112954819D01*
X127142857Y-112954819D02*
X127047619Y-112954819D01*
X127047619Y-112954819D02*
X126904762Y-112907200D01*
X126904762Y-112907200D02*
X126809524Y-112811961D01*
X126809524Y-112811961D02*
X126761905Y-112716723D01*
X126761905Y-112716723D02*
X126714286Y-112526247D01*
X126714286Y-112526247D02*
X126714286Y-112383390D01*
X126714286Y-112383390D02*
X126761905Y-112192914D01*
X126761905Y-112192914D02*
X126809524Y-112097676D01*
X126809524Y-112097676D02*
X126904762Y-112002438D01*
X126904762Y-112002438D02*
X127047619Y-111954819D01*
X127047619Y-111954819D02*
X127142857Y-111954819D01*
X127142857Y-111954819D02*
X127285714Y-112002438D01*
X127285714Y-112002438D02*
X127333333Y-112050057D01*
X127809524Y-112954819D02*
X128000000Y-112954819D01*
X128000000Y-112954819D02*
X128095238Y-112907200D01*
X128095238Y-112907200D02*
X128142857Y-112859580D01*
X128142857Y-112859580D02*
X128238095Y-112716723D01*
X128238095Y-112716723D02*
X128285714Y-112526247D01*
X128285714Y-112526247D02*
X128285714Y-112145295D01*
X128285714Y-112145295D02*
X128238095Y-112050057D01*
X128238095Y-112050057D02*
X128190476Y-112002438D01*
X128190476Y-112002438D02*
X128095238Y-111954819D01*
X128095238Y-111954819D02*
X127904762Y-111954819D01*
X127904762Y-111954819D02*
X127809524Y-112002438D01*
X127809524Y-112002438D02*
X127761905Y-112050057D01*
X127761905Y-112050057D02*
X127714286Y-112145295D01*
X127714286Y-112145295D02*
X127714286Y-112383390D01*
X127714286Y-112383390D02*
X127761905Y-112478628D01*
X127761905Y-112478628D02*
X127809524Y-112526247D01*
X127809524Y-112526247D02*
X127904762Y-112573866D01*
X127904762Y-112573866D02*
X128095238Y-112573866D01*
X128095238Y-112573866D02*
X128190476Y-112526247D01*
X128190476Y-112526247D02*
X128238095Y-112478628D01*
X128238095Y-112478628D02*
X128285714Y-112383390D01*
X154051905Y-97854819D02*
X154051905Y-96854819D01*
X154051905Y-96854819D02*
X154290000Y-96854819D01*
X154290000Y-96854819D02*
X154432857Y-96902438D01*
X154432857Y-96902438D02*
X154528095Y-96997676D01*
X154528095Y-96997676D02*
X154575714Y-97092914D01*
X154575714Y-97092914D02*
X154623333Y-97283390D01*
X154623333Y-97283390D02*
X154623333Y-97426247D01*
X154623333Y-97426247D02*
X154575714Y-97616723D01*
X154575714Y-97616723D02*
X154528095Y-97711961D01*
X154528095Y-97711961D02*
X154432857Y-97807200D01*
X154432857Y-97807200D02*
X154290000Y-97854819D01*
X154290000Y-97854819D02*
X154051905Y-97854819D01*
X155575714Y-97854819D02*
X155004286Y-97854819D01*
X155290000Y-97854819D02*
X155290000Y-96854819D01*
X155290000Y-96854819D02*
X155194762Y-96997676D01*
X155194762Y-96997676D02*
X155099524Y-97092914D01*
X155099524Y-97092914D02*
X155004286Y-97140533D01*
X128449580Y-108166666D02*
X128497200Y-108214285D01*
X128497200Y-108214285D02*
X128544819Y-108357142D01*
X128544819Y-108357142D02*
X128544819Y-108452380D01*
X128544819Y-108452380D02*
X128497200Y-108595237D01*
X128497200Y-108595237D02*
X128401961Y-108690475D01*
X128401961Y-108690475D02*
X128306723Y-108738094D01*
X128306723Y-108738094D02*
X128116247Y-108785713D01*
X128116247Y-108785713D02*
X127973390Y-108785713D01*
X127973390Y-108785713D02*
X127782914Y-108738094D01*
X127782914Y-108738094D02*
X127687676Y-108690475D01*
X127687676Y-108690475D02*
X127592438Y-108595237D01*
X127592438Y-108595237D02*
X127544819Y-108452380D01*
X127544819Y-108452380D02*
X127544819Y-108357142D01*
X127544819Y-108357142D02*
X127592438Y-108214285D01*
X127592438Y-108214285D02*
X127640057Y-108166666D01*
X127544819Y-107309523D02*
X127544819Y-107499999D01*
X127544819Y-107499999D02*
X127592438Y-107595237D01*
X127592438Y-107595237D02*
X127640057Y-107642856D01*
X127640057Y-107642856D02*
X127782914Y-107738094D01*
X127782914Y-107738094D02*
X127973390Y-107785713D01*
X127973390Y-107785713D02*
X128354342Y-107785713D01*
X128354342Y-107785713D02*
X128449580Y-107738094D01*
X128449580Y-107738094D02*
X128497200Y-107690475D01*
X128497200Y-107690475D02*
X128544819Y-107595237D01*
X128544819Y-107595237D02*
X128544819Y-107404761D01*
X128544819Y-107404761D02*
X128497200Y-107309523D01*
X128497200Y-107309523D02*
X128449580Y-107261904D01*
X128449580Y-107261904D02*
X128354342Y-107214285D01*
X128354342Y-107214285D02*
X128116247Y-107214285D01*
X128116247Y-107214285D02*
X128021009Y-107261904D01*
X128021009Y-107261904D02*
X127973390Y-107309523D01*
X127973390Y-107309523D02*
X127925771Y-107404761D01*
X127925771Y-107404761D02*
X127925771Y-107595237D01*
X127925771Y-107595237D02*
X127973390Y-107690475D01*
X127973390Y-107690475D02*
X128021009Y-107738094D01*
X128021009Y-107738094D02*
X128116247Y-107785713D01*
X153454819Y-107666666D02*
X152978628Y-107999999D01*
X153454819Y-108238094D02*
X152454819Y-108238094D01*
X152454819Y-108238094D02*
X152454819Y-107857142D01*
X152454819Y-107857142D02*
X152502438Y-107761904D01*
X152502438Y-107761904D02*
X152550057Y-107714285D01*
X152550057Y-107714285D02*
X152645295Y-107666666D01*
X152645295Y-107666666D02*
X152788152Y-107666666D01*
X152788152Y-107666666D02*
X152883390Y-107714285D01*
X152883390Y-107714285D02*
X152931009Y-107761904D01*
X152931009Y-107761904D02*
X152978628Y-107857142D01*
X152978628Y-107857142D02*
X152978628Y-108238094D01*
X152550057Y-107285713D02*
X152502438Y-107238094D01*
X152502438Y-107238094D02*
X152454819Y-107142856D01*
X152454819Y-107142856D02*
X152454819Y-106904761D01*
X152454819Y-106904761D02*
X152502438Y-106809523D01*
X152502438Y-106809523D02*
X152550057Y-106761904D01*
X152550057Y-106761904D02*
X152645295Y-106714285D01*
X152645295Y-106714285D02*
X152740533Y-106714285D01*
X152740533Y-106714285D02*
X152883390Y-106761904D01*
X152883390Y-106761904D02*
X153454819Y-107333332D01*
X153454819Y-107333332D02*
X153454819Y-106714285D01*
X170227142Y-141494819D02*
X169893809Y-141018628D01*
X169655714Y-141494819D02*
X169655714Y-140494819D01*
X169655714Y-140494819D02*
X170036666Y-140494819D01*
X170036666Y-140494819D02*
X170131904Y-140542438D01*
X170131904Y-140542438D02*
X170179523Y-140590057D01*
X170179523Y-140590057D02*
X170227142Y-140685295D01*
X170227142Y-140685295D02*
X170227142Y-140828152D01*
X170227142Y-140828152D02*
X170179523Y-140923390D01*
X170179523Y-140923390D02*
X170131904Y-140971009D01*
X170131904Y-140971009D02*
X170036666Y-141018628D01*
X170036666Y-141018628D02*
X169655714Y-141018628D01*
X171179523Y-141494819D02*
X170608095Y-141494819D01*
X170893809Y-141494819D02*
X170893809Y-140494819D01*
X170893809Y-140494819D02*
X170798571Y-140637676D01*
X170798571Y-140637676D02*
X170703333Y-140732914D01*
X170703333Y-140732914D02*
X170608095Y-140780533D01*
X171560476Y-140590057D02*
X171608095Y-140542438D01*
X171608095Y-140542438D02*
X171703333Y-140494819D01*
X171703333Y-140494819D02*
X171941428Y-140494819D01*
X171941428Y-140494819D02*
X172036666Y-140542438D01*
X172036666Y-140542438D02*
X172084285Y-140590057D01*
X172084285Y-140590057D02*
X172131904Y-140685295D01*
X172131904Y-140685295D02*
X172131904Y-140780533D01*
X172131904Y-140780533D02*
X172084285Y-140923390D01*
X172084285Y-140923390D02*
X171512857Y-141494819D01*
X171512857Y-141494819D02*
X172131904Y-141494819D01*
X140083333Y-132454819D02*
X139750000Y-131978628D01*
X139511905Y-132454819D02*
X139511905Y-131454819D01*
X139511905Y-131454819D02*
X139892857Y-131454819D01*
X139892857Y-131454819D02*
X139988095Y-131502438D01*
X139988095Y-131502438D02*
X140035714Y-131550057D01*
X140035714Y-131550057D02*
X140083333Y-131645295D01*
X140083333Y-131645295D02*
X140083333Y-131788152D01*
X140083333Y-131788152D02*
X140035714Y-131883390D01*
X140035714Y-131883390D02*
X139988095Y-131931009D01*
X139988095Y-131931009D02*
X139892857Y-131978628D01*
X139892857Y-131978628D02*
X139511905Y-131978628D01*
X140654762Y-131883390D02*
X140559524Y-131835771D01*
X140559524Y-131835771D02*
X140511905Y-131788152D01*
X140511905Y-131788152D02*
X140464286Y-131692914D01*
X140464286Y-131692914D02*
X140464286Y-131645295D01*
X140464286Y-131645295D02*
X140511905Y-131550057D01*
X140511905Y-131550057D02*
X140559524Y-131502438D01*
X140559524Y-131502438D02*
X140654762Y-131454819D01*
X140654762Y-131454819D02*
X140845238Y-131454819D01*
X140845238Y-131454819D02*
X140940476Y-131502438D01*
X140940476Y-131502438D02*
X140988095Y-131550057D01*
X140988095Y-131550057D02*
X141035714Y-131645295D01*
X141035714Y-131645295D02*
X141035714Y-131692914D01*
X141035714Y-131692914D02*
X140988095Y-131788152D01*
X140988095Y-131788152D02*
X140940476Y-131835771D01*
X140940476Y-131835771D02*
X140845238Y-131883390D01*
X140845238Y-131883390D02*
X140654762Y-131883390D01*
X140654762Y-131883390D02*
X140559524Y-131931009D01*
X140559524Y-131931009D02*
X140511905Y-131978628D01*
X140511905Y-131978628D02*
X140464286Y-132073866D01*
X140464286Y-132073866D02*
X140464286Y-132264342D01*
X140464286Y-132264342D02*
X140511905Y-132359580D01*
X140511905Y-132359580D02*
X140559524Y-132407200D01*
X140559524Y-132407200D02*
X140654762Y-132454819D01*
X140654762Y-132454819D02*
X140845238Y-132454819D01*
X140845238Y-132454819D02*
X140940476Y-132407200D01*
X140940476Y-132407200D02*
X140988095Y-132359580D01*
X140988095Y-132359580D02*
X141035714Y-132264342D01*
X141035714Y-132264342D02*
X141035714Y-132073866D01*
X141035714Y-132073866D02*
X140988095Y-131978628D01*
X140988095Y-131978628D02*
X140940476Y-131931009D01*
X140940476Y-131931009D02*
X140845238Y-131883390D01*
X127144819Y-119261904D02*
X127954342Y-119261904D01*
X127954342Y-119261904D02*
X128049580Y-119214285D01*
X128049580Y-119214285D02*
X128097200Y-119166666D01*
X128097200Y-119166666D02*
X128144819Y-119071428D01*
X128144819Y-119071428D02*
X128144819Y-118880952D01*
X128144819Y-118880952D02*
X128097200Y-118785714D01*
X128097200Y-118785714D02*
X128049580Y-118738095D01*
X128049580Y-118738095D02*
X127954342Y-118690476D01*
X127954342Y-118690476D02*
X127144819Y-118690476D01*
X128144819Y-117690476D02*
X128144819Y-118261904D01*
X128144819Y-117976190D02*
X127144819Y-117976190D01*
X127144819Y-117976190D02*
X127287676Y-118071428D01*
X127287676Y-118071428D02*
X127382914Y-118166666D01*
X127382914Y-118166666D02*
X127430533Y-118261904D01*
X144859580Y-125642857D02*
X144907200Y-125690476D01*
X144907200Y-125690476D02*
X144954819Y-125833333D01*
X144954819Y-125833333D02*
X144954819Y-125928571D01*
X144954819Y-125928571D02*
X144907200Y-126071428D01*
X144907200Y-126071428D02*
X144811961Y-126166666D01*
X144811961Y-126166666D02*
X144716723Y-126214285D01*
X144716723Y-126214285D02*
X144526247Y-126261904D01*
X144526247Y-126261904D02*
X144383390Y-126261904D01*
X144383390Y-126261904D02*
X144192914Y-126214285D01*
X144192914Y-126214285D02*
X144097676Y-126166666D01*
X144097676Y-126166666D02*
X144002438Y-126071428D01*
X144002438Y-126071428D02*
X143954819Y-125928571D01*
X143954819Y-125928571D02*
X143954819Y-125833333D01*
X143954819Y-125833333D02*
X144002438Y-125690476D01*
X144002438Y-125690476D02*
X144050057Y-125642857D01*
X144954819Y-124690476D02*
X144954819Y-125261904D01*
X144954819Y-124976190D02*
X143954819Y-124976190D01*
X143954819Y-124976190D02*
X144097676Y-125071428D01*
X144097676Y-125071428D02*
X144192914Y-125166666D01*
X144192914Y-125166666D02*
X144240533Y-125261904D01*
X144954819Y-123738095D02*
X144954819Y-124309523D01*
X144954819Y-124023809D02*
X143954819Y-124023809D01*
X143954819Y-124023809D02*
X144097676Y-124119047D01*
X144097676Y-124119047D02*
X144192914Y-124214285D01*
X144192914Y-124214285D02*
X144240533Y-124309523D01*
X154454819Y-111086666D02*
X153978628Y-111419999D01*
X154454819Y-111658094D02*
X153454819Y-111658094D01*
X153454819Y-111658094D02*
X153454819Y-111277142D01*
X153454819Y-111277142D02*
X153502438Y-111181904D01*
X153502438Y-111181904D02*
X153550057Y-111134285D01*
X153550057Y-111134285D02*
X153645295Y-111086666D01*
X153645295Y-111086666D02*
X153788152Y-111086666D01*
X153788152Y-111086666D02*
X153883390Y-111134285D01*
X153883390Y-111134285D02*
X153931009Y-111181904D01*
X153931009Y-111181904D02*
X153978628Y-111277142D01*
X153978628Y-111277142D02*
X153978628Y-111658094D01*
X153454819Y-110753332D02*
X153454819Y-110134285D01*
X153454819Y-110134285D02*
X153835771Y-110467618D01*
X153835771Y-110467618D02*
X153835771Y-110324761D01*
X153835771Y-110324761D02*
X153883390Y-110229523D01*
X153883390Y-110229523D02*
X153931009Y-110181904D01*
X153931009Y-110181904D02*
X154026247Y-110134285D01*
X154026247Y-110134285D02*
X154264342Y-110134285D01*
X154264342Y-110134285D02*
X154359580Y-110181904D01*
X154359580Y-110181904D02*
X154407200Y-110229523D01*
X154407200Y-110229523D02*
X154454819Y-110324761D01*
X154454819Y-110324761D02*
X154454819Y-110610475D01*
X154454819Y-110610475D02*
X154407200Y-110705713D01*
X154407200Y-110705713D02*
X154359580Y-110753332D01*
X157333333Y-106954819D02*
X157000000Y-106478628D01*
X156761905Y-106954819D02*
X156761905Y-105954819D01*
X156761905Y-105954819D02*
X157142857Y-105954819D01*
X157142857Y-105954819D02*
X157238095Y-106002438D01*
X157238095Y-106002438D02*
X157285714Y-106050057D01*
X157285714Y-106050057D02*
X157333333Y-106145295D01*
X157333333Y-106145295D02*
X157333333Y-106288152D01*
X157333333Y-106288152D02*
X157285714Y-106383390D01*
X157285714Y-106383390D02*
X157238095Y-106431009D01*
X157238095Y-106431009D02*
X157142857Y-106478628D01*
X157142857Y-106478628D02*
X156761905Y-106478628D01*
X158285714Y-106954819D02*
X157714286Y-106954819D01*
X158000000Y-106954819D02*
X158000000Y-105954819D01*
X158000000Y-105954819D02*
X157904762Y-106097676D01*
X157904762Y-106097676D02*
X157809524Y-106192914D01*
X157809524Y-106192914D02*
X157714286Y-106240533D01*
X114507319Y-115166666D02*
X114031128Y-115499999D01*
X114507319Y-115738094D02*
X113507319Y-115738094D01*
X113507319Y-115738094D02*
X113507319Y-115357142D01*
X113507319Y-115357142D02*
X113554938Y-115261904D01*
X113554938Y-115261904D02*
X113602557Y-115214285D01*
X113602557Y-115214285D02*
X113697795Y-115166666D01*
X113697795Y-115166666D02*
X113840652Y-115166666D01*
X113840652Y-115166666D02*
X113935890Y-115214285D01*
X113935890Y-115214285D02*
X113983509Y-115261904D01*
X113983509Y-115261904D02*
X114031128Y-115357142D01*
X114031128Y-115357142D02*
X114031128Y-115738094D01*
X113507319Y-114309523D02*
X113507319Y-114499999D01*
X113507319Y-114499999D02*
X113554938Y-114595237D01*
X113554938Y-114595237D02*
X113602557Y-114642856D01*
X113602557Y-114642856D02*
X113745414Y-114738094D01*
X113745414Y-114738094D02*
X113935890Y-114785713D01*
X113935890Y-114785713D02*
X114316842Y-114785713D01*
X114316842Y-114785713D02*
X114412080Y-114738094D01*
X114412080Y-114738094D02*
X114459700Y-114690475D01*
X114459700Y-114690475D02*
X114507319Y-114595237D01*
X114507319Y-114595237D02*
X114507319Y-114404761D01*
X114507319Y-114404761D02*
X114459700Y-114309523D01*
X114459700Y-114309523D02*
X114412080Y-114261904D01*
X114412080Y-114261904D02*
X114316842Y-114214285D01*
X114316842Y-114214285D02*
X114078747Y-114214285D01*
X114078747Y-114214285D02*
X113983509Y-114261904D01*
X113983509Y-114261904D02*
X113935890Y-114309523D01*
X113935890Y-114309523D02*
X113888271Y-114404761D01*
X113888271Y-114404761D02*
X113888271Y-114595237D01*
X113888271Y-114595237D02*
X113935890Y-114690475D01*
X113935890Y-114690475D02*
X113983509Y-114738094D01*
X113983509Y-114738094D02*
X114078747Y-114785713D01*
X129865151Y-122761904D02*
X130674674Y-122761904D01*
X130674674Y-122761904D02*
X130769912Y-122714285D01*
X130769912Y-122714285D02*
X130817532Y-122666666D01*
X130817532Y-122666666D02*
X130865151Y-122571428D01*
X130865151Y-122571428D02*
X130865151Y-122380952D01*
X130865151Y-122380952D02*
X130817532Y-122285714D01*
X130817532Y-122285714D02*
X130769912Y-122238095D01*
X130769912Y-122238095D02*
X130674674Y-122190476D01*
X130674674Y-122190476D02*
X129865151Y-122190476D01*
X129960389Y-121761904D02*
X129912770Y-121714285D01*
X129912770Y-121714285D02*
X129865151Y-121619047D01*
X129865151Y-121619047D02*
X129865151Y-121380952D01*
X129865151Y-121380952D02*
X129912770Y-121285714D01*
X129912770Y-121285714D02*
X129960389Y-121238095D01*
X129960389Y-121238095D02*
X130055627Y-121190476D01*
X130055627Y-121190476D02*
X130150865Y-121190476D01*
X130150865Y-121190476D02*
X130293722Y-121238095D01*
X130293722Y-121238095D02*
X130865151Y-121809523D01*
X130865151Y-121809523D02*
X130865151Y-121190476D01*
X116833333Y-105859580D02*
X116785714Y-105907200D01*
X116785714Y-105907200D02*
X116642857Y-105954819D01*
X116642857Y-105954819D02*
X116547619Y-105954819D01*
X116547619Y-105954819D02*
X116404762Y-105907200D01*
X116404762Y-105907200D02*
X116309524Y-105811961D01*
X116309524Y-105811961D02*
X116261905Y-105716723D01*
X116261905Y-105716723D02*
X116214286Y-105526247D01*
X116214286Y-105526247D02*
X116214286Y-105383390D01*
X116214286Y-105383390D02*
X116261905Y-105192914D01*
X116261905Y-105192914D02*
X116309524Y-105097676D01*
X116309524Y-105097676D02*
X116404762Y-105002438D01*
X116404762Y-105002438D02*
X116547619Y-104954819D01*
X116547619Y-104954819D02*
X116642857Y-104954819D01*
X116642857Y-104954819D02*
X116785714Y-105002438D01*
X116785714Y-105002438D02*
X116833333Y-105050057D01*
X117785714Y-105954819D02*
X117214286Y-105954819D01*
X117500000Y-105954819D02*
X117500000Y-104954819D01*
X117500000Y-104954819D02*
X117404762Y-105097676D01*
X117404762Y-105097676D02*
X117309524Y-105192914D01*
X117309524Y-105192914D02*
X117214286Y-105240533D01*
X121333333Y-105859580D02*
X121285714Y-105907200D01*
X121285714Y-105907200D02*
X121142857Y-105954819D01*
X121142857Y-105954819D02*
X121047619Y-105954819D01*
X121047619Y-105954819D02*
X120904762Y-105907200D01*
X120904762Y-105907200D02*
X120809524Y-105811961D01*
X120809524Y-105811961D02*
X120761905Y-105716723D01*
X120761905Y-105716723D02*
X120714286Y-105526247D01*
X120714286Y-105526247D02*
X120714286Y-105383390D01*
X120714286Y-105383390D02*
X120761905Y-105192914D01*
X120761905Y-105192914D02*
X120809524Y-105097676D01*
X120809524Y-105097676D02*
X120904762Y-105002438D01*
X120904762Y-105002438D02*
X121047619Y-104954819D01*
X121047619Y-104954819D02*
X121142857Y-104954819D01*
X121142857Y-104954819D02*
X121285714Y-105002438D01*
X121285714Y-105002438D02*
X121333333Y-105050057D01*
X121714286Y-105050057D02*
X121761905Y-105002438D01*
X121761905Y-105002438D02*
X121857143Y-104954819D01*
X121857143Y-104954819D02*
X122095238Y-104954819D01*
X122095238Y-104954819D02*
X122190476Y-105002438D01*
X122190476Y-105002438D02*
X122238095Y-105050057D01*
X122238095Y-105050057D02*
X122285714Y-105145295D01*
X122285714Y-105145295D02*
X122285714Y-105240533D01*
X122285714Y-105240533D02*
X122238095Y-105383390D01*
X122238095Y-105383390D02*
X121666667Y-105954819D01*
X121666667Y-105954819D02*
X122285714Y-105954819D01*
X155333333Y-86454819D02*
X155000000Y-85978628D01*
X154761905Y-86454819D02*
X154761905Y-85454819D01*
X154761905Y-85454819D02*
X155142857Y-85454819D01*
X155142857Y-85454819D02*
X155238095Y-85502438D01*
X155238095Y-85502438D02*
X155285714Y-85550057D01*
X155285714Y-85550057D02*
X155333333Y-85645295D01*
X155333333Y-85645295D02*
X155333333Y-85788152D01*
X155333333Y-85788152D02*
X155285714Y-85883390D01*
X155285714Y-85883390D02*
X155238095Y-85931009D01*
X155238095Y-85931009D02*
X155142857Y-85978628D01*
X155142857Y-85978628D02*
X154761905Y-85978628D01*
X155809524Y-86454819D02*
X156000000Y-86454819D01*
X156000000Y-86454819D02*
X156095238Y-86407200D01*
X156095238Y-86407200D02*
X156142857Y-86359580D01*
X156142857Y-86359580D02*
X156238095Y-86216723D01*
X156238095Y-86216723D02*
X156285714Y-86026247D01*
X156285714Y-86026247D02*
X156285714Y-85645295D01*
X156285714Y-85645295D02*
X156238095Y-85550057D01*
X156238095Y-85550057D02*
X156190476Y-85502438D01*
X156190476Y-85502438D02*
X156095238Y-85454819D01*
X156095238Y-85454819D02*
X155904762Y-85454819D01*
X155904762Y-85454819D02*
X155809524Y-85502438D01*
X155809524Y-85502438D02*
X155761905Y-85550057D01*
X155761905Y-85550057D02*
X155714286Y-85645295D01*
X155714286Y-85645295D02*
X155714286Y-85883390D01*
X155714286Y-85883390D02*
X155761905Y-85978628D01*
X155761905Y-85978628D02*
X155809524Y-86026247D01*
X155809524Y-86026247D02*
X155904762Y-86073866D01*
X155904762Y-86073866D02*
X156095238Y-86073866D01*
X156095238Y-86073866D02*
X156190476Y-86026247D01*
X156190476Y-86026247D02*
X156238095Y-85978628D01*
X156238095Y-85978628D02*
X156285714Y-85883390D01*
X138857142Y-105954819D02*
X138523809Y-105478628D01*
X138285714Y-105954819D02*
X138285714Y-104954819D01*
X138285714Y-104954819D02*
X138666666Y-104954819D01*
X138666666Y-104954819D02*
X138761904Y-105002438D01*
X138761904Y-105002438D02*
X138809523Y-105050057D01*
X138809523Y-105050057D02*
X138857142Y-105145295D01*
X138857142Y-105145295D02*
X138857142Y-105288152D01*
X138857142Y-105288152D02*
X138809523Y-105383390D01*
X138809523Y-105383390D02*
X138761904Y-105431009D01*
X138761904Y-105431009D02*
X138666666Y-105478628D01*
X138666666Y-105478628D02*
X138285714Y-105478628D01*
X139809523Y-105954819D02*
X139238095Y-105954819D01*
X139523809Y-105954819D02*
X139523809Y-104954819D01*
X139523809Y-104954819D02*
X139428571Y-105097676D01*
X139428571Y-105097676D02*
X139333333Y-105192914D01*
X139333333Y-105192914D02*
X139238095Y-105240533D01*
X140666666Y-105288152D02*
X140666666Y-105954819D01*
X140428571Y-104907200D02*
X140190476Y-105621485D01*
X140190476Y-105621485D02*
X140809523Y-105621485D01*
X94328214Y-90254819D02*
X94328214Y-89254819D01*
X94328214Y-89254819D02*
X94709166Y-89254819D01*
X94709166Y-89254819D02*
X94804404Y-89302438D01*
X94804404Y-89302438D02*
X94852023Y-89350057D01*
X94852023Y-89350057D02*
X94899642Y-89445295D01*
X94899642Y-89445295D02*
X94899642Y-89588152D01*
X94899642Y-89588152D02*
X94852023Y-89683390D01*
X94852023Y-89683390D02*
X94804404Y-89731009D01*
X94804404Y-89731009D02*
X94709166Y-89778628D01*
X94709166Y-89778628D02*
X94328214Y-89778628D01*
X95280595Y-90207200D02*
X95423452Y-90254819D01*
X95423452Y-90254819D02*
X95661547Y-90254819D01*
X95661547Y-90254819D02*
X95756785Y-90207200D01*
X95756785Y-90207200D02*
X95804404Y-90159580D01*
X95804404Y-90159580D02*
X95852023Y-90064342D01*
X95852023Y-90064342D02*
X95852023Y-89969104D01*
X95852023Y-89969104D02*
X95804404Y-89873866D01*
X95804404Y-89873866D02*
X95756785Y-89826247D01*
X95756785Y-89826247D02*
X95661547Y-89778628D01*
X95661547Y-89778628D02*
X95471071Y-89731009D01*
X95471071Y-89731009D02*
X95375833Y-89683390D01*
X95375833Y-89683390D02*
X95328214Y-89635771D01*
X95328214Y-89635771D02*
X95280595Y-89540533D01*
X95280595Y-89540533D02*
X95280595Y-89445295D01*
X95280595Y-89445295D02*
X95328214Y-89350057D01*
X95328214Y-89350057D02*
X95375833Y-89302438D01*
X95375833Y-89302438D02*
X95471071Y-89254819D01*
X95471071Y-89254819D02*
X95709166Y-89254819D01*
X95709166Y-89254819D02*
X95852023Y-89302438D01*
X96804404Y-90254819D02*
X96232976Y-90254819D01*
X96518690Y-90254819D02*
X96518690Y-89254819D01*
X96518690Y-89254819D02*
X96423452Y-89397676D01*
X96423452Y-89397676D02*
X96328214Y-89492914D01*
X96328214Y-89492914D02*
X96232976Y-89540533D01*
X140357142Y-112454819D02*
X140023809Y-111978628D01*
X139785714Y-112454819D02*
X139785714Y-111454819D01*
X139785714Y-111454819D02*
X140166666Y-111454819D01*
X140166666Y-111454819D02*
X140261904Y-111502438D01*
X140261904Y-111502438D02*
X140309523Y-111550057D01*
X140309523Y-111550057D02*
X140357142Y-111645295D01*
X140357142Y-111645295D02*
X140357142Y-111788152D01*
X140357142Y-111788152D02*
X140309523Y-111883390D01*
X140309523Y-111883390D02*
X140261904Y-111931009D01*
X140261904Y-111931009D02*
X140166666Y-111978628D01*
X140166666Y-111978628D02*
X139785714Y-111978628D01*
X141309523Y-112454819D02*
X140738095Y-112454819D01*
X141023809Y-112454819D02*
X141023809Y-111454819D01*
X141023809Y-111454819D02*
X140928571Y-111597676D01*
X140928571Y-111597676D02*
X140833333Y-111692914D01*
X140833333Y-111692914D02*
X140738095Y-111740533D01*
X142214285Y-111454819D02*
X141738095Y-111454819D01*
X141738095Y-111454819D02*
X141690476Y-111931009D01*
X141690476Y-111931009D02*
X141738095Y-111883390D01*
X141738095Y-111883390D02*
X141833333Y-111835771D01*
X141833333Y-111835771D02*
X142071428Y-111835771D01*
X142071428Y-111835771D02*
X142166666Y-111883390D01*
X142166666Y-111883390D02*
X142214285Y-111931009D01*
X142214285Y-111931009D02*
X142261904Y-112026247D01*
X142261904Y-112026247D02*
X142261904Y-112264342D01*
X142261904Y-112264342D02*
X142214285Y-112359580D01*
X142214285Y-112359580D02*
X142166666Y-112407200D01*
X142166666Y-112407200D02*
X142071428Y-112454819D01*
X142071428Y-112454819D02*
X141833333Y-112454819D01*
X141833333Y-112454819D02*
X141738095Y-112407200D01*
X141738095Y-112407200D02*
X141690476Y-112359580D01*
X113666666Y-83454819D02*
X113666666Y-84169104D01*
X113666666Y-84169104D02*
X113619047Y-84311961D01*
X113619047Y-84311961D02*
X113523809Y-84407200D01*
X113523809Y-84407200D02*
X113380952Y-84454819D01*
X113380952Y-84454819D02*
X113285714Y-84454819D01*
X114666666Y-84454819D02*
X114095238Y-84454819D01*
X114380952Y-84454819D02*
X114380952Y-83454819D01*
X114380952Y-83454819D02*
X114285714Y-83597676D01*
X114285714Y-83597676D02*
X114190476Y-83692914D01*
X114190476Y-83692914D02*
X114095238Y-83740533D01*
X145359580Y-87087576D02*
X145407200Y-87135195D01*
X145407200Y-87135195D02*
X145454819Y-87278052D01*
X145454819Y-87278052D02*
X145454819Y-87373290D01*
X145454819Y-87373290D02*
X145407200Y-87516147D01*
X145407200Y-87516147D02*
X145311961Y-87611385D01*
X145311961Y-87611385D02*
X145216723Y-87659004D01*
X145216723Y-87659004D02*
X145026247Y-87706623D01*
X145026247Y-87706623D02*
X144883390Y-87706623D01*
X144883390Y-87706623D02*
X144692914Y-87659004D01*
X144692914Y-87659004D02*
X144597676Y-87611385D01*
X144597676Y-87611385D02*
X144502438Y-87516147D01*
X144502438Y-87516147D02*
X144454819Y-87373290D01*
X144454819Y-87373290D02*
X144454819Y-87278052D01*
X144454819Y-87278052D02*
X144502438Y-87135195D01*
X144502438Y-87135195D02*
X144550057Y-87087576D01*
X145454819Y-86135195D02*
X145454819Y-86706623D01*
X145454819Y-86420909D02*
X144454819Y-86420909D01*
X144454819Y-86420909D02*
X144597676Y-86516147D01*
X144597676Y-86516147D02*
X144692914Y-86611385D01*
X144692914Y-86611385D02*
X144740533Y-86706623D01*
X144788152Y-85278052D02*
X145454819Y-85278052D01*
X144407200Y-85516147D02*
X145121485Y-85754242D01*
X145121485Y-85754242D02*
X145121485Y-85135195D01*
X177767142Y-141494819D02*
X177433809Y-141018628D01*
X177195714Y-141494819D02*
X177195714Y-140494819D01*
X177195714Y-140494819D02*
X177576666Y-140494819D01*
X177576666Y-140494819D02*
X177671904Y-140542438D01*
X177671904Y-140542438D02*
X177719523Y-140590057D01*
X177719523Y-140590057D02*
X177767142Y-140685295D01*
X177767142Y-140685295D02*
X177767142Y-140828152D01*
X177767142Y-140828152D02*
X177719523Y-140923390D01*
X177719523Y-140923390D02*
X177671904Y-140971009D01*
X177671904Y-140971009D02*
X177576666Y-141018628D01*
X177576666Y-141018628D02*
X177195714Y-141018628D01*
X178719523Y-141494819D02*
X178148095Y-141494819D01*
X178433809Y-141494819D02*
X178433809Y-140494819D01*
X178433809Y-140494819D02*
X178338571Y-140637676D01*
X178338571Y-140637676D02*
X178243333Y-140732914D01*
X178243333Y-140732914D02*
X178148095Y-140780533D01*
X179052857Y-140494819D02*
X179671904Y-140494819D01*
X179671904Y-140494819D02*
X179338571Y-140875771D01*
X179338571Y-140875771D02*
X179481428Y-140875771D01*
X179481428Y-140875771D02*
X179576666Y-140923390D01*
X179576666Y-140923390D02*
X179624285Y-140971009D01*
X179624285Y-140971009D02*
X179671904Y-141066247D01*
X179671904Y-141066247D02*
X179671904Y-141304342D01*
X179671904Y-141304342D02*
X179624285Y-141399580D01*
X179624285Y-141399580D02*
X179576666Y-141447200D01*
X179576666Y-141447200D02*
X179481428Y-141494819D01*
X179481428Y-141494819D02*
X179195714Y-141494819D01*
X179195714Y-141494819D02*
X179100476Y-141447200D01*
X179100476Y-141447200D02*
X179052857Y-141399580D01*
X141888878Y-104292911D02*
X141888878Y-105346337D01*
X141888878Y-105346337D02*
X141950844Y-105470269D01*
X141950844Y-105470269D02*
X142012810Y-105532236D01*
X142012810Y-105532236D02*
X142136743Y-105594202D01*
X142136743Y-105594202D02*
X142384608Y-105594202D01*
X142384608Y-105594202D02*
X142508540Y-105532236D01*
X142508540Y-105532236D02*
X142570506Y-105470269D01*
X142570506Y-105470269D02*
X142632473Y-105346337D01*
X142632473Y-105346337D02*
X142632473Y-104292911D01*
X143933763Y-105594202D02*
X143190168Y-105594202D01*
X143561966Y-105594202D02*
X143561966Y-104292911D01*
X143561966Y-104292911D02*
X143438033Y-104478809D01*
X143438033Y-104478809D02*
X143314101Y-104602742D01*
X143314101Y-104602742D02*
X143190168Y-104664708D01*
X144739325Y-104292911D02*
X144863257Y-104292911D01*
X144863257Y-104292911D02*
X144987190Y-104354877D01*
X144987190Y-104354877D02*
X145049156Y-104416843D01*
X145049156Y-104416843D02*
X145111122Y-104540776D01*
X145111122Y-104540776D02*
X145173088Y-104788641D01*
X145173088Y-104788641D02*
X145173088Y-105098472D01*
X145173088Y-105098472D02*
X145111122Y-105346337D01*
X145111122Y-105346337D02*
X145049156Y-105470269D01*
X145049156Y-105470269D02*
X144987190Y-105532236D01*
X144987190Y-105532236D02*
X144863257Y-105594202D01*
X144863257Y-105594202D02*
X144739325Y-105594202D01*
X144739325Y-105594202D02*
X144615392Y-105532236D01*
X144615392Y-105532236D02*
X144553426Y-105470269D01*
X144553426Y-105470269D02*
X144491460Y-105346337D01*
X144491460Y-105346337D02*
X144429493Y-105098472D01*
X144429493Y-105098472D02*
X144429493Y-104788641D01*
X144429493Y-104788641D02*
X144491460Y-104540776D01*
X144491460Y-104540776D02*
X144553426Y-104416843D01*
X144553426Y-104416843D02*
X144615392Y-104354877D01*
X144615392Y-104354877D02*
X144739325Y-104292911D01*
X140147142Y-128059580D02*
X140099523Y-128107200D01*
X140099523Y-128107200D02*
X139956666Y-128154819D01*
X139956666Y-128154819D02*
X139861428Y-128154819D01*
X139861428Y-128154819D02*
X139718571Y-128107200D01*
X139718571Y-128107200D02*
X139623333Y-128011961D01*
X139623333Y-128011961D02*
X139575714Y-127916723D01*
X139575714Y-127916723D02*
X139528095Y-127726247D01*
X139528095Y-127726247D02*
X139528095Y-127583390D01*
X139528095Y-127583390D02*
X139575714Y-127392914D01*
X139575714Y-127392914D02*
X139623333Y-127297676D01*
X139623333Y-127297676D02*
X139718571Y-127202438D01*
X139718571Y-127202438D02*
X139861428Y-127154819D01*
X139861428Y-127154819D02*
X139956666Y-127154819D01*
X139956666Y-127154819D02*
X140099523Y-127202438D01*
X140099523Y-127202438D02*
X140147142Y-127250057D01*
X141099523Y-128154819D02*
X140528095Y-128154819D01*
X140813809Y-128154819D02*
X140813809Y-127154819D01*
X140813809Y-127154819D02*
X140718571Y-127297676D01*
X140718571Y-127297676D02*
X140623333Y-127392914D01*
X140623333Y-127392914D02*
X140528095Y-127440533D01*
X141480476Y-127250057D02*
X141528095Y-127202438D01*
X141528095Y-127202438D02*
X141623333Y-127154819D01*
X141623333Y-127154819D02*
X141861428Y-127154819D01*
X141861428Y-127154819D02*
X141956666Y-127202438D01*
X141956666Y-127202438D02*
X142004285Y-127250057D01*
X142004285Y-127250057D02*
X142051904Y-127345295D01*
X142051904Y-127345295D02*
X142051904Y-127440533D01*
X142051904Y-127440533D02*
X142004285Y-127583390D01*
X142004285Y-127583390D02*
X141432857Y-128154819D01*
X141432857Y-128154819D02*
X142051904Y-128154819D01*
X175169104Y-124571428D02*
X175169104Y-124095238D01*
X175454819Y-124666666D02*
X174454819Y-124333333D01*
X174454819Y-124333333D02*
X175454819Y-124000000D01*
X174931009Y-123333333D02*
X174931009Y-123666666D01*
X175454819Y-123666666D02*
X174454819Y-123666666D01*
X174454819Y-123666666D02*
X174454819Y-123190476D01*
X174931009Y-122476190D02*
X174931009Y-122809523D01*
X175454819Y-122809523D02*
X174454819Y-122809523D01*
X174454819Y-122809523D02*
X174454819Y-122333333D01*
X174550057Y-121999999D02*
X174502438Y-121952380D01*
X174502438Y-121952380D02*
X174454819Y-121857142D01*
X174454819Y-121857142D02*
X174454819Y-121619047D01*
X174454819Y-121619047D02*
X174502438Y-121523809D01*
X174502438Y-121523809D02*
X174550057Y-121476190D01*
X174550057Y-121476190D02*
X174645295Y-121428571D01*
X174645295Y-121428571D02*
X174740533Y-121428571D01*
X174740533Y-121428571D02*
X174883390Y-121476190D01*
X174883390Y-121476190D02*
X175454819Y-122047618D01*
X175454819Y-122047618D02*
X175454819Y-121428571D01*
X135623333Y-96874819D02*
X135290000Y-96398628D01*
X135051905Y-96874819D02*
X135051905Y-95874819D01*
X135051905Y-95874819D02*
X135432857Y-95874819D01*
X135432857Y-95874819D02*
X135528095Y-95922438D01*
X135528095Y-95922438D02*
X135575714Y-95970057D01*
X135575714Y-95970057D02*
X135623333Y-96065295D01*
X135623333Y-96065295D02*
X135623333Y-96208152D01*
X135623333Y-96208152D02*
X135575714Y-96303390D01*
X135575714Y-96303390D02*
X135528095Y-96351009D01*
X135528095Y-96351009D02*
X135432857Y-96398628D01*
X135432857Y-96398628D02*
X135051905Y-96398628D01*
X136480476Y-96208152D02*
X136480476Y-96874819D01*
X136242381Y-95827200D02*
X136004286Y-96541485D01*
X136004286Y-96541485D02*
X136623333Y-96541485D01*
X150859580Y-99166666D02*
X150907200Y-99214285D01*
X150907200Y-99214285D02*
X150954819Y-99357142D01*
X150954819Y-99357142D02*
X150954819Y-99452380D01*
X150954819Y-99452380D02*
X150907200Y-99595237D01*
X150907200Y-99595237D02*
X150811961Y-99690475D01*
X150811961Y-99690475D02*
X150716723Y-99738094D01*
X150716723Y-99738094D02*
X150526247Y-99785713D01*
X150526247Y-99785713D02*
X150383390Y-99785713D01*
X150383390Y-99785713D02*
X150192914Y-99738094D01*
X150192914Y-99738094D02*
X150097676Y-99690475D01*
X150097676Y-99690475D02*
X150002438Y-99595237D01*
X150002438Y-99595237D02*
X149954819Y-99452380D01*
X149954819Y-99452380D02*
X149954819Y-99357142D01*
X149954819Y-99357142D02*
X150002438Y-99214285D01*
X150002438Y-99214285D02*
X150050057Y-99166666D01*
X149954819Y-98261904D02*
X149954819Y-98738094D01*
X149954819Y-98738094D02*
X150431009Y-98785713D01*
X150431009Y-98785713D02*
X150383390Y-98738094D01*
X150383390Y-98738094D02*
X150335771Y-98642856D01*
X150335771Y-98642856D02*
X150335771Y-98404761D01*
X150335771Y-98404761D02*
X150383390Y-98309523D01*
X150383390Y-98309523D02*
X150431009Y-98261904D01*
X150431009Y-98261904D02*
X150526247Y-98214285D01*
X150526247Y-98214285D02*
X150764342Y-98214285D01*
X150764342Y-98214285D02*
X150859580Y-98261904D01*
X150859580Y-98261904D02*
X150907200Y-98309523D01*
X150907200Y-98309523D02*
X150954819Y-98404761D01*
X150954819Y-98404761D02*
X150954819Y-98642856D01*
X150954819Y-98642856D02*
X150907200Y-98738094D01*
X150907200Y-98738094D02*
X150859580Y-98785713D01*
X197238095Y-102454819D02*
X197238095Y-103264342D01*
X197238095Y-103264342D02*
X197285714Y-103359580D01*
X197285714Y-103359580D02*
X197333333Y-103407200D01*
X197333333Y-103407200D02*
X197428571Y-103454819D01*
X197428571Y-103454819D02*
X197619047Y-103454819D01*
X197619047Y-103454819D02*
X197714285Y-103407200D01*
X197714285Y-103407200D02*
X197761904Y-103359580D01*
X197761904Y-103359580D02*
X197809523Y-103264342D01*
X197809523Y-103264342D02*
X197809523Y-102454819D01*
X198714285Y-102454819D02*
X198523809Y-102454819D01*
X198523809Y-102454819D02*
X198428571Y-102502438D01*
X198428571Y-102502438D02*
X198380952Y-102550057D01*
X198380952Y-102550057D02*
X198285714Y-102692914D01*
X198285714Y-102692914D02*
X198238095Y-102883390D01*
X198238095Y-102883390D02*
X198238095Y-103264342D01*
X198238095Y-103264342D02*
X198285714Y-103359580D01*
X198285714Y-103359580D02*
X198333333Y-103407200D01*
X198333333Y-103407200D02*
X198428571Y-103454819D01*
X198428571Y-103454819D02*
X198619047Y-103454819D01*
X198619047Y-103454819D02*
X198714285Y-103407200D01*
X198714285Y-103407200D02*
X198761904Y-103359580D01*
X198761904Y-103359580D02*
X198809523Y-103264342D01*
X198809523Y-103264342D02*
X198809523Y-103026247D01*
X198809523Y-103026247D02*
X198761904Y-102931009D01*
X198761904Y-102931009D02*
X198714285Y-102883390D01*
X198714285Y-102883390D02*
X198619047Y-102835771D01*
X198619047Y-102835771D02*
X198428571Y-102835771D01*
X198428571Y-102835771D02*
X198333333Y-102883390D01*
X198333333Y-102883390D02*
X198285714Y-102931009D01*
X198285714Y-102931009D02*
X198238095Y-103026247D01*
X129454819Y-104108657D02*
X130264342Y-104108657D01*
X130264342Y-104108657D02*
X130359580Y-104061038D01*
X130359580Y-104061038D02*
X130407200Y-104013419D01*
X130407200Y-104013419D02*
X130454819Y-103918181D01*
X130454819Y-103918181D02*
X130454819Y-103727705D01*
X130454819Y-103727705D02*
X130407200Y-103632467D01*
X130407200Y-103632467D02*
X130359580Y-103584848D01*
X130359580Y-103584848D02*
X130264342Y-103537229D01*
X130264342Y-103537229D02*
X129454819Y-103537229D01*
X130454819Y-102537229D02*
X130454819Y-103108657D01*
X130454819Y-102822943D02*
X129454819Y-102822943D01*
X129454819Y-102822943D02*
X129597676Y-102918181D01*
X129597676Y-102918181D02*
X129692914Y-103013419D01*
X129692914Y-103013419D02*
X129740533Y-103108657D01*
X130454819Y-101584848D02*
X130454819Y-102156276D01*
X130454819Y-101870562D02*
X129454819Y-101870562D01*
X129454819Y-101870562D02*
X129597676Y-101965800D01*
X129597676Y-101965800D02*
X129692914Y-102061038D01*
X129692914Y-102061038D02*
X129740533Y-102156276D01*
X135349580Y-99166666D02*
X135397200Y-99214285D01*
X135397200Y-99214285D02*
X135444819Y-99357142D01*
X135444819Y-99357142D02*
X135444819Y-99452380D01*
X135444819Y-99452380D02*
X135397200Y-99595237D01*
X135397200Y-99595237D02*
X135301961Y-99690475D01*
X135301961Y-99690475D02*
X135206723Y-99738094D01*
X135206723Y-99738094D02*
X135016247Y-99785713D01*
X135016247Y-99785713D02*
X134873390Y-99785713D01*
X134873390Y-99785713D02*
X134682914Y-99738094D01*
X134682914Y-99738094D02*
X134587676Y-99690475D01*
X134587676Y-99690475D02*
X134492438Y-99595237D01*
X134492438Y-99595237D02*
X134444819Y-99452380D01*
X134444819Y-99452380D02*
X134444819Y-99357142D01*
X134444819Y-99357142D02*
X134492438Y-99214285D01*
X134492438Y-99214285D02*
X134540057Y-99166666D01*
X134444819Y-98833332D02*
X134444819Y-98214285D01*
X134444819Y-98214285D02*
X134825771Y-98547618D01*
X134825771Y-98547618D02*
X134825771Y-98404761D01*
X134825771Y-98404761D02*
X134873390Y-98309523D01*
X134873390Y-98309523D02*
X134921009Y-98261904D01*
X134921009Y-98261904D02*
X135016247Y-98214285D01*
X135016247Y-98214285D02*
X135254342Y-98214285D01*
X135254342Y-98214285D02*
X135349580Y-98261904D01*
X135349580Y-98261904D02*
X135397200Y-98309523D01*
X135397200Y-98309523D02*
X135444819Y-98404761D01*
X135444819Y-98404761D02*
X135444819Y-98690475D01*
X135444819Y-98690475D02*
X135397200Y-98785713D01*
X135397200Y-98785713D02*
X135349580Y-98833332D01*
X71666666Y-94304819D02*
X71666666Y-95019104D01*
X71666666Y-95019104D02*
X71619047Y-95161961D01*
X71619047Y-95161961D02*
X71523809Y-95257200D01*
X71523809Y-95257200D02*
X71380952Y-95304819D01*
X71380952Y-95304819D02*
X71285714Y-95304819D01*
X72047619Y-94304819D02*
X72666666Y-94304819D01*
X72666666Y-94304819D02*
X72333333Y-94685771D01*
X72333333Y-94685771D02*
X72476190Y-94685771D01*
X72476190Y-94685771D02*
X72571428Y-94733390D01*
X72571428Y-94733390D02*
X72619047Y-94781009D01*
X72619047Y-94781009D02*
X72666666Y-94876247D01*
X72666666Y-94876247D02*
X72666666Y-95114342D01*
X72666666Y-95114342D02*
X72619047Y-95209580D01*
X72619047Y-95209580D02*
X72571428Y-95257200D01*
X72571428Y-95257200D02*
X72476190Y-95304819D01*
X72476190Y-95304819D02*
X72190476Y-95304819D01*
X72190476Y-95304819D02*
X72095238Y-95257200D01*
X72095238Y-95257200D02*
X72047619Y-95209580D01*
X149238095Y-123954819D02*
X149238095Y-124764342D01*
X149238095Y-124764342D02*
X149285714Y-124859580D01*
X149285714Y-124859580D02*
X149333333Y-124907200D01*
X149333333Y-124907200D02*
X149428571Y-124954819D01*
X149428571Y-124954819D02*
X149619047Y-124954819D01*
X149619047Y-124954819D02*
X149714285Y-124907200D01*
X149714285Y-124907200D02*
X149761904Y-124859580D01*
X149761904Y-124859580D02*
X149809523Y-124764342D01*
X149809523Y-124764342D02*
X149809523Y-123954819D01*
X150190476Y-123954819D02*
X150809523Y-123954819D01*
X150809523Y-123954819D02*
X150476190Y-124335771D01*
X150476190Y-124335771D02*
X150619047Y-124335771D01*
X150619047Y-124335771D02*
X150714285Y-124383390D01*
X150714285Y-124383390D02*
X150761904Y-124431009D01*
X150761904Y-124431009D02*
X150809523Y-124526247D01*
X150809523Y-124526247D02*
X150809523Y-124764342D01*
X150809523Y-124764342D02*
X150761904Y-124859580D01*
X150761904Y-124859580D02*
X150714285Y-124907200D01*
X150714285Y-124907200D02*
X150619047Y-124954819D01*
X150619047Y-124954819D02*
X150333333Y-124954819D01*
X150333333Y-124954819D02*
X150238095Y-124907200D01*
X150238095Y-124907200D02*
X150190476Y-124859580D01*
X176238095Y-104954819D02*
X176238095Y-105764342D01*
X176238095Y-105764342D02*
X176285714Y-105859580D01*
X176285714Y-105859580D02*
X176333333Y-105907200D01*
X176333333Y-105907200D02*
X176428571Y-105954819D01*
X176428571Y-105954819D02*
X176619047Y-105954819D01*
X176619047Y-105954819D02*
X176714285Y-105907200D01*
X176714285Y-105907200D02*
X176761904Y-105859580D01*
X176761904Y-105859580D02*
X176809523Y-105764342D01*
X176809523Y-105764342D02*
X176809523Y-104954819D01*
X177714285Y-105288152D02*
X177714285Y-105954819D01*
X177476190Y-104907200D02*
X177238095Y-105621485D01*
X177238095Y-105621485D02*
X177857142Y-105621485D01*
X133846667Y-113357200D02*
X133989524Y-113404819D01*
X133989524Y-113404819D02*
X134227619Y-113404819D01*
X134227619Y-113404819D02*
X134322857Y-113357200D01*
X134322857Y-113357200D02*
X134370476Y-113309580D01*
X134370476Y-113309580D02*
X134418095Y-113214342D01*
X134418095Y-113214342D02*
X134418095Y-113119104D01*
X134418095Y-113119104D02*
X134370476Y-113023866D01*
X134370476Y-113023866D02*
X134322857Y-112976247D01*
X134322857Y-112976247D02*
X134227619Y-112928628D01*
X134227619Y-112928628D02*
X134037143Y-112881009D01*
X134037143Y-112881009D02*
X133941905Y-112833390D01*
X133941905Y-112833390D02*
X133894286Y-112785771D01*
X133894286Y-112785771D02*
X133846667Y-112690533D01*
X133846667Y-112690533D02*
X133846667Y-112595295D01*
X133846667Y-112595295D02*
X133894286Y-112500057D01*
X133894286Y-112500057D02*
X133941905Y-112452438D01*
X133941905Y-112452438D02*
X134037143Y-112404819D01*
X134037143Y-112404819D02*
X134275238Y-112404819D01*
X134275238Y-112404819D02*
X134418095Y-112452438D01*
X134751429Y-112404819D02*
X134989524Y-113404819D01*
X134989524Y-113404819D02*
X135180000Y-112690533D01*
X135180000Y-112690533D02*
X135370476Y-113404819D01*
X135370476Y-113404819D02*
X135608572Y-112404819D01*
X136513333Y-113404819D02*
X135941905Y-113404819D01*
X136227619Y-113404819D02*
X136227619Y-112404819D01*
X136227619Y-112404819D02*
X136132381Y-112547676D01*
X136132381Y-112547676D02*
X136037143Y-112642914D01*
X136037143Y-112642914D02*
X135941905Y-112690533D01*
X137833333Y-102859580D02*
X137785714Y-102907200D01*
X137785714Y-102907200D02*
X137642857Y-102954819D01*
X137642857Y-102954819D02*
X137547619Y-102954819D01*
X137547619Y-102954819D02*
X137404762Y-102907200D01*
X137404762Y-102907200D02*
X137309524Y-102811961D01*
X137309524Y-102811961D02*
X137261905Y-102716723D01*
X137261905Y-102716723D02*
X137214286Y-102526247D01*
X137214286Y-102526247D02*
X137214286Y-102383390D01*
X137214286Y-102383390D02*
X137261905Y-102192914D01*
X137261905Y-102192914D02*
X137309524Y-102097676D01*
X137309524Y-102097676D02*
X137404762Y-102002438D01*
X137404762Y-102002438D02*
X137547619Y-101954819D01*
X137547619Y-101954819D02*
X137642857Y-101954819D01*
X137642857Y-101954819D02*
X137785714Y-102002438D01*
X137785714Y-102002438D02*
X137833333Y-102050057D01*
X138690476Y-102288152D02*
X138690476Y-102954819D01*
X138452381Y-101907200D02*
X138214286Y-102621485D01*
X138214286Y-102621485D02*
X138833333Y-102621485D01*
X165738095Y-103954819D02*
X165738095Y-104764342D01*
X165738095Y-104764342D02*
X165785714Y-104859580D01*
X165785714Y-104859580D02*
X165833333Y-104907200D01*
X165833333Y-104907200D02*
X165928571Y-104954819D01*
X165928571Y-104954819D02*
X166119047Y-104954819D01*
X166119047Y-104954819D02*
X166214285Y-104907200D01*
X166214285Y-104907200D02*
X166261904Y-104859580D01*
X166261904Y-104859580D02*
X166309523Y-104764342D01*
X166309523Y-104764342D02*
X166309523Y-103954819D01*
X166833333Y-104954819D02*
X167023809Y-104954819D01*
X167023809Y-104954819D02*
X167119047Y-104907200D01*
X167119047Y-104907200D02*
X167166666Y-104859580D01*
X167166666Y-104859580D02*
X167261904Y-104716723D01*
X167261904Y-104716723D02*
X167309523Y-104526247D01*
X167309523Y-104526247D02*
X167309523Y-104145295D01*
X167309523Y-104145295D02*
X167261904Y-104050057D01*
X167261904Y-104050057D02*
X167214285Y-104002438D01*
X167214285Y-104002438D02*
X167119047Y-103954819D01*
X167119047Y-103954819D02*
X166928571Y-103954819D01*
X166928571Y-103954819D02*
X166833333Y-104002438D01*
X166833333Y-104002438D02*
X166785714Y-104050057D01*
X166785714Y-104050057D02*
X166738095Y-104145295D01*
X166738095Y-104145295D02*
X166738095Y-104383390D01*
X166738095Y-104383390D02*
X166785714Y-104478628D01*
X166785714Y-104478628D02*
X166833333Y-104526247D01*
X166833333Y-104526247D02*
X166928571Y-104573866D01*
X166928571Y-104573866D02*
X167119047Y-104573866D01*
X167119047Y-104573866D02*
X167214285Y-104526247D01*
X167214285Y-104526247D02*
X167261904Y-104478628D01*
X167261904Y-104478628D02*
X167309523Y-104383390D01*
X119666666Y-88454819D02*
X119666666Y-89169104D01*
X119666666Y-89169104D02*
X119619047Y-89311961D01*
X119619047Y-89311961D02*
X119523809Y-89407200D01*
X119523809Y-89407200D02*
X119380952Y-89454819D01*
X119380952Y-89454819D02*
X119285714Y-89454819D01*
X120095238Y-88550057D02*
X120142857Y-88502438D01*
X120142857Y-88502438D02*
X120238095Y-88454819D01*
X120238095Y-88454819D02*
X120476190Y-88454819D01*
X120476190Y-88454819D02*
X120571428Y-88502438D01*
X120571428Y-88502438D02*
X120619047Y-88550057D01*
X120619047Y-88550057D02*
X120666666Y-88645295D01*
X120666666Y-88645295D02*
X120666666Y-88740533D01*
X120666666Y-88740533D02*
X120619047Y-88883390D01*
X120619047Y-88883390D02*
X120047619Y-89454819D01*
X120047619Y-89454819D02*
X120666666Y-89454819D01*
X129647142Y-113159580D02*
X129599523Y-113207200D01*
X129599523Y-113207200D02*
X129456666Y-113254819D01*
X129456666Y-113254819D02*
X129361428Y-113254819D01*
X129361428Y-113254819D02*
X129218571Y-113207200D01*
X129218571Y-113207200D02*
X129123333Y-113111961D01*
X129123333Y-113111961D02*
X129075714Y-113016723D01*
X129075714Y-113016723D02*
X129028095Y-112826247D01*
X129028095Y-112826247D02*
X129028095Y-112683390D01*
X129028095Y-112683390D02*
X129075714Y-112492914D01*
X129075714Y-112492914D02*
X129123333Y-112397676D01*
X129123333Y-112397676D02*
X129218571Y-112302438D01*
X129218571Y-112302438D02*
X129361428Y-112254819D01*
X129361428Y-112254819D02*
X129456666Y-112254819D01*
X129456666Y-112254819D02*
X129599523Y-112302438D01*
X129599523Y-112302438D02*
X129647142Y-112350057D01*
X130599523Y-113254819D02*
X130028095Y-113254819D01*
X130313809Y-113254819D02*
X130313809Y-112254819D01*
X130313809Y-112254819D02*
X130218571Y-112397676D01*
X130218571Y-112397676D02*
X130123333Y-112492914D01*
X130123333Y-112492914D02*
X130028095Y-112540533D01*
X131218571Y-112254819D02*
X131313809Y-112254819D01*
X131313809Y-112254819D02*
X131409047Y-112302438D01*
X131409047Y-112302438D02*
X131456666Y-112350057D01*
X131456666Y-112350057D02*
X131504285Y-112445295D01*
X131504285Y-112445295D02*
X131551904Y-112635771D01*
X131551904Y-112635771D02*
X131551904Y-112873866D01*
X131551904Y-112873866D02*
X131504285Y-113064342D01*
X131504285Y-113064342D02*
X131456666Y-113159580D01*
X131456666Y-113159580D02*
X131409047Y-113207200D01*
X131409047Y-113207200D02*
X131313809Y-113254819D01*
X131313809Y-113254819D02*
X131218571Y-113254819D01*
X131218571Y-113254819D02*
X131123333Y-113207200D01*
X131123333Y-113207200D02*
X131075714Y-113159580D01*
X131075714Y-113159580D02*
X131028095Y-113064342D01*
X131028095Y-113064342D02*
X130980476Y-112873866D01*
X130980476Y-112873866D02*
X130980476Y-112635771D01*
X130980476Y-112635771D02*
X131028095Y-112445295D01*
X131028095Y-112445295D02*
X131075714Y-112350057D01*
X131075714Y-112350057D02*
X131123333Y-112302438D01*
X131123333Y-112302438D02*
X131218571Y-112254819D01*
X130123333Y-89874819D02*
X129790000Y-89398628D01*
X129551905Y-89874819D02*
X129551905Y-88874819D01*
X129551905Y-88874819D02*
X129932857Y-88874819D01*
X129932857Y-88874819D02*
X130028095Y-88922438D01*
X130028095Y-88922438D02*
X130075714Y-88970057D01*
X130075714Y-88970057D02*
X130123333Y-89065295D01*
X130123333Y-89065295D02*
X130123333Y-89208152D01*
X130123333Y-89208152D02*
X130075714Y-89303390D01*
X130075714Y-89303390D02*
X130028095Y-89351009D01*
X130028095Y-89351009D02*
X129932857Y-89398628D01*
X129932857Y-89398628D02*
X129551905Y-89398628D01*
X131028095Y-88874819D02*
X130551905Y-88874819D01*
X130551905Y-88874819D02*
X130504286Y-89351009D01*
X130504286Y-89351009D02*
X130551905Y-89303390D01*
X130551905Y-89303390D02*
X130647143Y-89255771D01*
X130647143Y-89255771D02*
X130885238Y-89255771D01*
X130885238Y-89255771D02*
X130980476Y-89303390D01*
X130980476Y-89303390D02*
X131028095Y-89351009D01*
X131028095Y-89351009D02*
X131075714Y-89446247D01*
X131075714Y-89446247D02*
X131075714Y-89684342D01*
X131075714Y-89684342D02*
X131028095Y-89779580D01*
X131028095Y-89779580D02*
X130980476Y-89827200D01*
X130980476Y-89827200D02*
X130885238Y-89874819D01*
X130885238Y-89874819D02*
X130647143Y-89874819D01*
X130647143Y-89874819D02*
X130551905Y-89827200D01*
X130551905Y-89827200D02*
X130504286Y-89779580D01*
X155857142Y-94954819D02*
X155523809Y-94478628D01*
X155285714Y-94954819D02*
X155285714Y-93954819D01*
X155285714Y-93954819D02*
X155666666Y-93954819D01*
X155666666Y-93954819D02*
X155761904Y-94002438D01*
X155761904Y-94002438D02*
X155809523Y-94050057D01*
X155809523Y-94050057D02*
X155857142Y-94145295D01*
X155857142Y-94145295D02*
X155857142Y-94288152D01*
X155857142Y-94288152D02*
X155809523Y-94383390D01*
X155809523Y-94383390D02*
X155761904Y-94431009D01*
X155761904Y-94431009D02*
X155666666Y-94478628D01*
X155666666Y-94478628D02*
X155285714Y-94478628D01*
X156809523Y-94954819D02*
X156238095Y-94954819D01*
X156523809Y-94954819D02*
X156523809Y-93954819D01*
X156523809Y-93954819D02*
X156428571Y-94097676D01*
X156428571Y-94097676D02*
X156333333Y-94192914D01*
X156333333Y-94192914D02*
X156238095Y-94240533D01*
X157428571Y-93954819D02*
X157523809Y-93954819D01*
X157523809Y-93954819D02*
X157619047Y-94002438D01*
X157619047Y-94002438D02*
X157666666Y-94050057D01*
X157666666Y-94050057D02*
X157714285Y-94145295D01*
X157714285Y-94145295D02*
X157761904Y-94335771D01*
X157761904Y-94335771D02*
X157761904Y-94573866D01*
X157761904Y-94573866D02*
X157714285Y-94764342D01*
X157714285Y-94764342D02*
X157666666Y-94859580D01*
X157666666Y-94859580D02*
X157619047Y-94907200D01*
X157619047Y-94907200D02*
X157523809Y-94954819D01*
X157523809Y-94954819D02*
X157428571Y-94954819D01*
X157428571Y-94954819D02*
X157333333Y-94907200D01*
X157333333Y-94907200D02*
X157285714Y-94859580D01*
X157285714Y-94859580D02*
X157238095Y-94764342D01*
X157238095Y-94764342D02*
X157190476Y-94573866D01*
X157190476Y-94573866D02*
X157190476Y-94335771D01*
X157190476Y-94335771D02*
X157238095Y-94145295D01*
X157238095Y-94145295D02*
X157285714Y-94050057D01*
X157285714Y-94050057D02*
X157333333Y-94002438D01*
X157333333Y-94002438D02*
X157428571Y-93954819D01*
X124333333Y-110859580D02*
X124285714Y-110907200D01*
X124285714Y-110907200D02*
X124142857Y-110954819D01*
X124142857Y-110954819D02*
X124047619Y-110954819D01*
X124047619Y-110954819D02*
X123904762Y-110907200D01*
X123904762Y-110907200D02*
X123809524Y-110811961D01*
X123809524Y-110811961D02*
X123761905Y-110716723D01*
X123761905Y-110716723D02*
X123714286Y-110526247D01*
X123714286Y-110526247D02*
X123714286Y-110383390D01*
X123714286Y-110383390D02*
X123761905Y-110192914D01*
X123761905Y-110192914D02*
X123809524Y-110097676D01*
X123809524Y-110097676D02*
X123904762Y-110002438D01*
X123904762Y-110002438D02*
X124047619Y-109954819D01*
X124047619Y-109954819D02*
X124142857Y-109954819D01*
X124142857Y-109954819D02*
X124285714Y-110002438D01*
X124285714Y-110002438D02*
X124333333Y-110050057D01*
X124666667Y-109954819D02*
X125333333Y-109954819D01*
X125333333Y-109954819D02*
X124904762Y-110954819D01*
X158579104Y-127691428D02*
X158579104Y-127215238D01*
X158864819Y-127786666D02*
X157864819Y-127453333D01*
X157864819Y-127453333D02*
X158864819Y-127120000D01*
X158341009Y-126453333D02*
X158341009Y-126786666D01*
X158864819Y-126786666D02*
X157864819Y-126786666D01*
X157864819Y-126786666D02*
X157864819Y-126310476D01*
X158341009Y-125596190D02*
X158341009Y-125929523D01*
X158864819Y-125929523D02*
X157864819Y-125929523D01*
X157864819Y-125929523D02*
X157864819Y-125453333D01*
X158864819Y-124548571D02*
X158864819Y-125119999D01*
X158864819Y-124834285D02*
X157864819Y-124834285D01*
X157864819Y-124834285D02*
X158007676Y-124929523D01*
X158007676Y-124929523D02*
X158102914Y-125024761D01*
X158102914Y-125024761D02*
X158150533Y-125119999D01*
X186738095Y-103454819D02*
X186738095Y-104264342D01*
X186738095Y-104264342D02*
X186785714Y-104359580D01*
X186785714Y-104359580D02*
X186833333Y-104407200D01*
X186833333Y-104407200D02*
X186928571Y-104454819D01*
X186928571Y-104454819D02*
X187119047Y-104454819D01*
X187119047Y-104454819D02*
X187214285Y-104407200D01*
X187214285Y-104407200D02*
X187261904Y-104359580D01*
X187261904Y-104359580D02*
X187309523Y-104264342D01*
X187309523Y-104264342D02*
X187309523Y-103454819D01*
X188261904Y-103454819D02*
X187785714Y-103454819D01*
X187785714Y-103454819D02*
X187738095Y-103931009D01*
X187738095Y-103931009D02*
X187785714Y-103883390D01*
X187785714Y-103883390D02*
X187880952Y-103835771D01*
X187880952Y-103835771D02*
X188119047Y-103835771D01*
X188119047Y-103835771D02*
X188214285Y-103883390D01*
X188214285Y-103883390D02*
X188261904Y-103931009D01*
X188261904Y-103931009D02*
X188309523Y-104026247D01*
X188309523Y-104026247D02*
X188309523Y-104264342D01*
X188309523Y-104264342D02*
X188261904Y-104359580D01*
X188261904Y-104359580D02*
X188214285Y-104407200D01*
X188214285Y-104407200D02*
X188119047Y-104454819D01*
X188119047Y-104454819D02*
X187880952Y-104454819D01*
X187880952Y-104454819D02*
X187785714Y-104407200D01*
X187785714Y-104407200D02*
X187738095Y-104359580D01*
X188169104Y-127571428D02*
X188169104Y-127095238D01*
X188454819Y-127666666D02*
X187454819Y-127333333D01*
X187454819Y-127333333D02*
X188454819Y-127000000D01*
X187931009Y-126333333D02*
X187931009Y-126666666D01*
X188454819Y-126666666D02*
X187454819Y-126666666D01*
X187454819Y-126666666D02*
X187454819Y-126190476D01*
X187931009Y-125476190D02*
X187931009Y-125809523D01*
X188454819Y-125809523D02*
X187454819Y-125809523D01*
X187454819Y-125809523D02*
X187454819Y-125333333D01*
X187454819Y-125047618D02*
X187454819Y-124428571D01*
X187454819Y-124428571D02*
X187835771Y-124761904D01*
X187835771Y-124761904D02*
X187835771Y-124619047D01*
X187835771Y-124619047D02*
X187883390Y-124523809D01*
X187883390Y-124523809D02*
X187931009Y-124476190D01*
X187931009Y-124476190D02*
X188026247Y-124428571D01*
X188026247Y-124428571D02*
X188264342Y-124428571D01*
X188264342Y-124428571D02*
X188359580Y-124476190D01*
X188359580Y-124476190D02*
X188407200Y-124523809D01*
X188407200Y-124523809D02*
X188454819Y-124619047D01*
X188454819Y-124619047D02*
X188454819Y-124904761D01*
X188454819Y-124904761D02*
X188407200Y-124999999D01*
X188407200Y-124999999D02*
X188359580Y-125047618D01*
X146050457Y-90375306D02*
X146002804Y-90470612D01*
X146002804Y-90470612D02*
X145907498Y-90565919D01*
X145907498Y-90565919D02*
X145764538Y-90708878D01*
X145764538Y-90708878D02*
X145716885Y-90804185D01*
X145716885Y-90804185D02*
X145716885Y-90899491D01*
X145955151Y-90851838D02*
X145907498Y-90947144D01*
X145907498Y-90947144D02*
X145812191Y-91042451D01*
X145812191Y-91042451D02*
X145621578Y-91090104D01*
X145621578Y-91090104D02*
X145288006Y-91090104D01*
X145288006Y-91090104D02*
X145097393Y-91042451D01*
X145097393Y-91042451D02*
X145002087Y-90947144D01*
X145002087Y-90947144D02*
X144954434Y-90851838D01*
X144954434Y-90851838D02*
X144954434Y-90661225D01*
X144954434Y-90661225D02*
X145002087Y-90565919D01*
X145002087Y-90565919D02*
X145097393Y-90470612D01*
X145097393Y-90470612D02*
X145288006Y-90422959D01*
X145288006Y-90422959D02*
X145621578Y-90422959D01*
X145621578Y-90422959D02*
X145812191Y-90470612D01*
X145812191Y-90470612D02*
X145907498Y-90565919D01*
X145907498Y-90565919D02*
X145955151Y-90661225D01*
X145955151Y-90661225D02*
X145955151Y-90851838D01*
X145955151Y-89469895D02*
X145955151Y-90041734D01*
X145955151Y-89755815D02*
X144954434Y-89755815D01*
X144954434Y-89755815D02*
X145097393Y-89851121D01*
X145097393Y-89851121D02*
X145192700Y-89946427D01*
X145192700Y-89946427D02*
X145240353Y-90041734D01*
X162767142Y-141494819D02*
X162433809Y-141018628D01*
X162195714Y-141494819D02*
X162195714Y-140494819D01*
X162195714Y-140494819D02*
X162576666Y-140494819D01*
X162576666Y-140494819D02*
X162671904Y-140542438D01*
X162671904Y-140542438D02*
X162719523Y-140590057D01*
X162719523Y-140590057D02*
X162767142Y-140685295D01*
X162767142Y-140685295D02*
X162767142Y-140828152D01*
X162767142Y-140828152D02*
X162719523Y-140923390D01*
X162719523Y-140923390D02*
X162671904Y-140971009D01*
X162671904Y-140971009D02*
X162576666Y-141018628D01*
X162576666Y-141018628D02*
X162195714Y-141018628D01*
X163719523Y-141494819D02*
X163148095Y-141494819D01*
X163433809Y-141494819D02*
X163433809Y-140494819D01*
X163433809Y-140494819D02*
X163338571Y-140637676D01*
X163338571Y-140637676D02*
X163243333Y-140732914D01*
X163243333Y-140732914D02*
X163148095Y-140780533D01*
X164671904Y-141494819D02*
X164100476Y-141494819D01*
X164386190Y-141494819D02*
X164386190Y-140494819D01*
X164386190Y-140494819D02*
X164290952Y-140637676D01*
X164290952Y-140637676D02*
X164195714Y-140732914D01*
X164195714Y-140732914D02*
X164100476Y-140780533D01*
X138357142Y-117859580D02*
X138309523Y-117907200D01*
X138309523Y-117907200D02*
X138166666Y-117954819D01*
X138166666Y-117954819D02*
X138071428Y-117954819D01*
X138071428Y-117954819D02*
X137928571Y-117907200D01*
X137928571Y-117907200D02*
X137833333Y-117811961D01*
X137833333Y-117811961D02*
X137785714Y-117716723D01*
X137785714Y-117716723D02*
X137738095Y-117526247D01*
X137738095Y-117526247D02*
X137738095Y-117383390D01*
X137738095Y-117383390D02*
X137785714Y-117192914D01*
X137785714Y-117192914D02*
X137833333Y-117097676D01*
X137833333Y-117097676D02*
X137928571Y-117002438D01*
X137928571Y-117002438D02*
X138071428Y-116954819D01*
X138071428Y-116954819D02*
X138166666Y-116954819D01*
X138166666Y-116954819D02*
X138309523Y-117002438D01*
X138309523Y-117002438D02*
X138357142Y-117050057D01*
X139309523Y-117954819D02*
X138738095Y-117954819D01*
X139023809Y-117954819D02*
X139023809Y-116954819D01*
X139023809Y-116954819D02*
X138928571Y-117097676D01*
X138928571Y-117097676D02*
X138833333Y-117192914D01*
X138833333Y-117192914D02*
X138738095Y-117240533D01*
X139642857Y-116954819D02*
X140261904Y-116954819D01*
X140261904Y-116954819D02*
X139928571Y-117335771D01*
X139928571Y-117335771D02*
X140071428Y-117335771D01*
X140071428Y-117335771D02*
X140166666Y-117383390D01*
X140166666Y-117383390D02*
X140214285Y-117431009D01*
X140214285Y-117431009D02*
X140261904Y-117526247D01*
X140261904Y-117526247D02*
X140261904Y-117764342D01*
X140261904Y-117764342D02*
X140214285Y-117859580D01*
X140214285Y-117859580D02*
X140166666Y-117907200D01*
X140166666Y-117907200D02*
X140071428Y-117954819D01*
X140071428Y-117954819D02*
X139785714Y-117954819D01*
X139785714Y-117954819D02*
X139690476Y-117907200D01*
X139690476Y-117907200D02*
X139642857Y-117859580D01*
D11*
%TO.C,R7*%
X125330000Y-123080000D02*
X129170000Y-123080000D01*
X125330000Y-124920000D02*
X129170000Y-124920000D01*
%TO.C,J4*%
X68715000Y-102350000D02*
X72000000Y-102350000D01*
X68715000Y-105000000D02*
X68715000Y-102350000D01*
X68715000Y-107540000D02*
X68715000Y-107650000D01*
X68715000Y-107540000D02*
X75285000Y-107540000D01*
X68715000Y-107650000D02*
X75285000Y-107650000D01*
X75285000Y-107540000D02*
X75285000Y-107650000D01*
%TO.C,C8*%
X133030000Y-89740000D02*
X133030000Y-90440000D01*
X133030000Y-93260000D02*
X133030000Y-92560000D01*
X135660563Y-89740000D02*
X133030000Y-89740000D01*
X135660563Y-93260000D02*
X133030000Y-93260000D01*
X136360563Y-90440000D02*
X135660563Y-89740000D01*
X136360563Y-92560000D02*
X135660563Y-93260000D01*
X136977500Y-93122500D02*
X136977500Y-92747500D01*
X137165000Y-92935000D02*
X136790000Y-92935000D01*
%TO.C,C9*%
X120530000Y-110740000D02*
X120530000Y-111440000D01*
X120530000Y-114260000D02*
X120530000Y-113560000D01*
X123160563Y-110740000D02*
X120530000Y-110740000D01*
X123160563Y-114260000D02*
X120530000Y-114260000D01*
X123860563Y-111440000D02*
X123160563Y-110740000D01*
X123860563Y-113560000D02*
X123160563Y-114260000D01*
X124477500Y-114122500D02*
X124477500Y-113747500D01*
X124665000Y-113935000D02*
X124290000Y-113935000D01*
%TO.C,D1*%
X151620000Y-98220000D02*
X151620000Y-102780000D01*
X151620000Y-98220000D02*
X157840000Y-98220000D01*
X151620000Y-102780000D02*
X157840000Y-102780000D01*
%TO.C,C6*%
X129030000Y-106240000D02*
X129730000Y-106240000D01*
X129030000Y-108870563D02*
X129030000Y-106240000D01*
X129167500Y-110187500D02*
X129542500Y-110187500D01*
X129355000Y-110375000D02*
X129355000Y-110000000D01*
X129730000Y-109570563D02*
X129030000Y-108870563D01*
X131850000Y-109570563D02*
X132550000Y-108870563D01*
X132550000Y-106240000D02*
X131850000Y-106240000D01*
X132550000Y-108870563D02*
X132550000Y-106240000D01*
%TO.C,R2*%
X150670000Y-106580000D02*
X146830000Y-106580000D01*
X150670000Y-108420000D02*
X146830000Y-108420000D01*
%TO.C,R12*%
X172790000Y-138200000D02*
X168950000Y-138200000D01*
X172790000Y-140040000D02*
X168950000Y-140040000D01*
%TO.C,R8*%
X138330000Y-128580000D02*
X142170000Y-128580000D01*
X138330000Y-130420000D02*
X142170000Y-130420000D01*
%TO.C,U1*%
X121730000Y-116440000D02*
X121825000Y-116440000D01*
X121730000Y-120560000D02*
X121730000Y-116440000D01*
X121825000Y-120560000D02*
X121730000Y-120560000D01*
X126755000Y-116440000D02*
X126850000Y-116440000D01*
X126850000Y-116440000D02*
X126850000Y-120560000D01*
X126850000Y-120560000D02*
X126755000Y-120560000D01*
X127090000Y-116140000D02*
X126760000Y-115900000D01*
X127090000Y-115660000D01*
X127090000Y-116140000D01*
G36*
X127090000Y-116140000D02*
G01*
X126760000Y-115900000D01*
X127090000Y-115660000D01*
X127090000Y-116140000D01*
G37*
%TO.C,C11*%
X139030000Y-119240000D02*
X139030000Y-119940000D01*
X139030000Y-122760000D02*
X139030000Y-122060000D01*
X141660563Y-119240000D02*
X139030000Y-119240000D01*
X141660563Y-122760000D02*
X139030000Y-122760000D01*
X142360563Y-119940000D02*
X141660563Y-119240000D01*
X142360563Y-122060000D02*
X141660563Y-122760000D01*
X142977500Y-122622500D02*
X142977500Y-122247500D01*
X143165000Y-122435000D02*
X142790000Y-122435000D01*
%TO.C,R3*%
X150670000Y-109080000D02*
X146830000Y-109080000D01*
X150670000Y-110920000D02*
X146830000Y-110920000D01*
%TO.C,R1*%
X151870000Y-103580000D02*
X155710000Y-103580000D01*
X151870000Y-105420000D02*
X155710000Y-105420000D01*
%TO.C,R6*%
X115370000Y-115460000D02*
X115370000Y-111620000D01*
X117210000Y-115460000D02*
X117210000Y-111620000D01*
%TO.C,U2*%
X131230000Y-121440000D02*
X131325000Y-121440000D01*
X131230000Y-125560000D02*
X131230000Y-121440000D01*
X131325000Y-125560000D02*
X131230000Y-125560000D01*
X136255000Y-121440000D02*
X136350000Y-121440000D01*
X136350000Y-121440000D02*
X136350000Y-125560000D01*
X136350000Y-125560000D02*
X136255000Y-125560000D01*
X131320000Y-126100000D02*
X130990000Y-126340000D01*
X130990000Y-125860000D01*
X131320000Y-126100000D01*
G36*
X131320000Y-126100000D02*
G01*
X130990000Y-126340000D01*
X130990000Y-125860000D01*
X131320000Y-126100000D01*
G37*
%TO.C,C1*%
X115030000Y-100240000D02*
X115730000Y-100240000D01*
X115030000Y-102870563D02*
X115030000Y-100240000D01*
X115167500Y-104187500D02*
X115542500Y-104187500D01*
X115355000Y-104375000D02*
X115355000Y-104000000D01*
X115730000Y-103570563D02*
X115030000Y-102870563D01*
X117850000Y-103570563D02*
X118550000Y-102870563D01*
X118550000Y-100240000D02*
X117850000Y-100240000D01*
X118550000Y-102870563D02*
X118550000Y-100240000D01*
%TO.C,C2*%
X120030000Y-100240000D02*
X120730000Y-100240000D01*
X120030000Y-102870563D02*
X120030000Y-100240000D01*
X120167500Y-104187500D02*
X120542500Y-104187500D01*
X120355000Y-104375000D02*
X120355000Y-104000000D01*
X120730000Y-103570563D02*
X120030000Y-102870563D01*
X122850000Y-103570563D02*
X123550000Y-102870563D01*
X123550000Y-100240000D02*
X122850000Y-100240000D01*
X123550000Y-102870563D02*
X123550000Y-100240000D01*
%TO.C,R9*%
X155710000Y-87080000D02*
X151870000Y-87080000D01*
X155710000Y-88920000D02*
X151870000Y-88920000D01*
%TO.C,R14*%
X143170000Y-106580000D02*
X139330000Y-106580000D01*
X143170000Y-108420000D02*
X139330000Y-108420000D01*
%TO.C,PS1*%
X77032500Y-90640000D02*
X114052500Y-90640000D01*
X77032500Y-99204000D02*
X77032500Y-90640000D01*
X77032500Y-113360000D02*
X77032500Y-99796000D01*
X114052500Y-90640000D02*
X114052500Y-113360000D01*
X114052500Y-113360000D02*
X77032500Y-113360000D01*
X77032500Y-99500000D02*
X76422500Y-99940000D01*
X76422500Y-99060000D01*
X77032500Y-99500000D01*
G36*
X77032500Y-99500000D02*
G01*
X76422500Y-99940000D01*
X76422500Y-99060000D01*
X77032500Y-99500000D01*
G37*
%TO.C,R15*%
X143210000Y-109080000D02*
X139370000Y-109080000D01*
X143210000Y-110920000D02*
X139370000Y-110920000D01*
%TO.C,J1*%
X115505000Y-82460000D02*
X115505000Y-82350000D01*
X122075000Y-82350000D02*
X115505000Y-82350000D01*
X122075000Y-82460000D02*
X115505000Y-82460000D01*
X122075000Y-82460000D02*
X122075000Y-82350000D01*
X122075000Y-85000000D02*
X122075000Y-87650000D01*
X122075000Y-87650000D02*
X118790000Y-87650000D01*
%TO.C,C14*%
X146030000Y-85129437D02*
X146030000Y-87760000D01*
X146030000Y-87760000D02*
X146730000Y-87760000D01*
X146730000Y-84429437D02*
X146030000Y-85129437D01*
X148850000Y-84429437D02*
X149550000Y-85129437D01*
X149225000Y-83625000D02*
X149225000Y-84000000D01*
X149412500Y-83812500D02*
X149037500Y-83812500D01*
X149550000Y-85129437D02*
X149550000Y-87760000D01*
X149550000Y-87760000D02*
X148850000Y-87760000D01*
%TO.C,R13*%
X180330000Y-138200000D02*
X176490000Y-138200000D01*
X180330000Y-140040000D02*
X176490000Y-140040000D01*
D12*
%TO.C,U10*%
X141340000Y-95350000D02*
X141340000Y-105750000D01*
X141340000Y-105750000D02*
X145940000Y-105750000D01*
X145940000Y-95350000D02*
X141340000Y-95350000D01*
X145940000Y-95350000D02*
X145940000Y-105750000D01*
D13*
X143040000Y-94510000D02*
G75*
G02*
X142740000Y-94510000I-150000J0D01*
G01*
X142740000Y-94510000D02*
G75*
G02*
X143040000Y-94510000I150000J0D01*
G01*
D11*
%TO.C,C12*%
X139030000Y-123240000D02*
X139030000Y-123940000D01*
X139030000Y-126760000D02*
X139030000Y-126060000D01*
X141660563Y-123240000D02*
X139030000Y-123240000D01*
X141660563Y-126760000D02*
X139030000Y-126760000D01*
X142360563Y-123940000D02*
X141660563Y-123240000D01*
X142360563Y-126060000D02*
X141660563Y-126760000D01*
X142977500Y-126622500D02*
X142977500Y-126247500D01*
X143165000Y-126435000D02*
X142790000Y-126435000D01*
%TO.C,AFF2*%
X173420000Y-131715000D02*
X173420000Y-120285000D01*
X174530000Y-135635000D02*
X186130000Y-135635000D01*
X174830000Y-131000000D02*
X181830000Y-131000000D01*
X175830000Y-126000000D02*
X174830000Y-131000000D01*
X176830000Y-121000000D02*
X175830000Y-126000000D01*
X176830000Y-121000000D02*
X183830000Y-121000000D01*
X181830000Y-131000000D02*
X182830000Y-126000000D01*
X182830000Y-126000000D02*
X175830000Y-126000000D01*
X183830000Y-121000000D02*
X182830000Y-126000000D01*
X186130000Y-116365000D02*
X173530000Y-116365000D01*
X186240000Y-131715000D02*
X186240000Y-120285000D01*
X184277214Y-131000000D02*
G75*
G02*
X183382786Y-131000000I-447214J0D01*
G01*
X183382786Y-131000000D02*
G75*
G02*
X184277214Y-131000000I447214J0D01*
G01*
%TO.C,R4*%
X137710000Y-93580000D02*
X133870000Y-93580000D01*
X137710000Y-95420000D02*
X133870000Y-95420000D01*
%TO.C,C5*%
X147030000Y-100240000D02*
X147730000Y-100240000D01*
X147030000Y-102870563D02*
X147030000Y-100240000D01*
X147167500Y-104187500D02*
X147542500Y-104187500D01*
X147355000Y-104375000D02*
X147355000Y-104000000D01*
X147730000Y-103570563D02*
X147030000Y-102870563D01*
X149850000Y-103570563D02*
X150550000Y-102870563D01*
X150550000Y-100240000D02*
X149850000Y-100240000D01*
X150550000Y-102870563D02*
X150550000Y-100240000D01*
D14*
%TO.C,U6*%
X194869600Y-96620440D02*
X194869600Y-97341431D01*
X194869600Y-99018569D02*
X194869600Y-99881431D01*
X194869600Y-101558569D02*
X194869600Y-102421431D01*
X194869600Y-104098569D02*
X194869600Y-104961431D01*
X194869600Y-106638569D02*
X194869600Y-107501431D01*
X194869600Y-109178569D02*
X194869600Y-110041431D01*
X194869600Y-111718569D02*
X194869600Y-112581431D01*
X194869600Y-114372500D02*
X201473600Y-114372500D01*
X201473600Y-94687500D02*
X195142765Y-94687500D01*
X201473600Y-97341431D02*
X201473600Y-96478569D01*
X201473600Y-99881431D02*
X201473600Y-99018569D01*
X201473600Y-102421431D02*
X201473600Y-101558569D01*
X201473600Y-104961431D02*
X201473600Y-104098569D01*
X201473600Y-107501431D02*
X201473600Y-106638569D01*
X201473600Y-110041431D02*
X201473600Y-109178569D01*
X201473600Y-112581431D02*
X201473600Y-111718569D01*
X198476400Y-94687500D02*
G75*
G02*
X197866800Y-94687500I-304800J0D01*
G01*
D12*
%TO.C,U11*%
X124435000Y-95450000D02*
X128935000Y-95450000D01*
X124435000Y-105650000D02*
X124435000Y-95450000D01*
X128935000Y-95450000D02*
X128935000Y-105650000D01*
X128935000Y-105650000D02*
X124435000Y-105650000D01*
D15*
X127390000Y-106300000D02*
G75*
G02*
X127190000Y-106300000I-100000J0D01*
G01*
X127190000Y-106300000D02*
G75*
G02*
X127390000Y-106300000I100000J0D01*
G01*
D11*
%TO.C,C3*%
X130530000Y-98129437D02*
X130530000Y-100760000D01*
X130530000Y-100760000D02*
X131230000Y-100760000D01*
X131230000Y-97429437D02*
X130530000Y-98129437D01*
X133350000Y-97429437D02*
X134050000Y-98129437D01*
X133725000Y-96625000D02*
X133725000Y-97000000D01*
X133912500Y-96812500D02*
X133537500Y-96812500D01*
X134050000Y-98129437D02*
X134050000Y-100760000D01*
X134050000Y-100760000D02*
X133350000Y-100760000D01*
%TO.C,J3*%
X68715000Y-95850000D02*
X72000000Y-95850000D01*
X68715000Y-98500000D02*
X68715000Y-95850000D01*
X68715000Y-101040000D02*
X68715000Y-101150000D01*
X68715000Y-101040000D02*
X75285000Y-101040000D01*
X68715000Y-101150000D02*
X75285000Y-101150000D01*
X75285000Y-101040000D02*
X75285000Y-101150000D01*
D14*
%TO.C,U3*%
X146798000Y-113277500D02*
X146798000Y-114519560D01*
X146798000Y-116480440D02*
X146798000Y-117201431D01*
X146798000Y-118878569D02*
X146798000Y-119741431D01*
X146798000Y-121418569D02*
X146798000Y-122281431D01*
X146798000Y-123958569D02*
X146798000Y-124821431D01*
X146798000Y-126498569D02*
X146798000Y-127361431D01*
X146798000Y-129038569D02*
X146798000Y-129901431D01*
X146798000Y-131578569D02*
X146798000Y-132962500D01*
X146798000Y-132962500D02*
X153402000Y-132962500D01*
X153402000Y-113277500D02*
X146798000Y-113277500D01*
X153402000Y-114661431D02*
X153402000Y-113277500D01*
X153402000Y-117201431D02*
X153402000Y-116338569D01*
X153402000Y-119741431D02*
X153402000Y-118878569D01*
X153402000Y-122281431D02*
X153402000Y-121418569D01*
X153402000Y-124821431D02*
X153402000Y-123958569D01*
X153402000Y-127361431D02*
X153402000Y-126498569D01*
X153402000Y-129901431D02*
X153402000Y-129038569D01*
X153402000Y-132962500D02*
X153402000Y-131578569D01*
X150404800Y-113277500D02*
G75*
G02*
X149795200Y-113277500I-304800J0D01*
G01*
%TO.C,U4*%
X173718000Y-96620440D02*
X173718000Y-97341431D01*
X173718000Y-99018569D02*
X173718000Y-99881431D01*
X173718000Y-101558569D02*
X173718000Y-102421431D01*
X173718000Y-104098569D02*
X173718000Y-104961431D01*
X173718000Y-106638569D02*
X173718000Y-107501431D01*
X173718000Y-109178569D02*
X173718000Y-110041431D01*
X173718000Y-111718569D02*
X173718000Y-112581431D01*
X173718000Y-114372500D02*
X180322000Y-114372500D01*
X180322000Y-94687500D02*
X173991165Y-94687500D01*
X180322000Y-97341431D02*
X180322000Y-96478569D01*
X180322000Y-99881431D02*
X180322000Y-99018569D01*
X180322000Y-102421431D02*
X180322000Y-101558569D01*
X180322000Y-104961431D02*
X180322000Y-104098569D01*
X180322000Y-107501431D02*
X180322000Y-106638569D01*
X180322000Y-110041431D02*
X180322000Y-109178569D01*
X180322000Y-112581431D02*
X180322000Y-111718569D01*
X177324800Y-94687500D02*
G75*
G02*
X176715200Y-94687500I-304800J0D01*
G01*
D11*
%TO.C,SW1*%
X133820000Y-108450000D02*
X133820000Y-106440000D01*
X133820000Y-112060000D02*
X133820000Y-110050000D01*
X133830000Y-106440000D02*
X136530000Y-106440000D01*
X136540000Y-106440000D02*
X136540000Y-106700000D01*
X136540000Y-110230000D02*
X136540000Y-108270000D01*
X136540000Y-111800000D02*
X136540000Y-112050000D01*
X136540000Y-111800000D02*
X137080000Y-111800000D01*
X136540000Y-112060000D02*
X133820000Y-112060000D01*
%TO.C,C4*%
X136530000Y-98129437D02*
X136530000Y-100760000D01*
X136530000Y-100760000D02*
X137230000Y-100760000D01*
X137230000Y-97429437D02*
X136530000Y-98129437D01*
X139350000Y-97429437D02*
X140050000Y-98129437D01*
X139725000Y-96625000D02*
X139725000Y-97000000D01*
X139912500Y-96812500D02*
X139537500Y-96812500D01*
X140050000Y-98129437D02*
X140050000Y-100760000D01*
X140050000Y-100760000D02*
X139350000Y-100760000D01*
D14*
%TO.C,U9*%
X163178000Y-93777500D02*
X163178000Y-95019560D01*
X163178000Y-96980440D02*
X163178000Y-97701431D01*
X163178000Y-99378569D02*
X163178000Y-100241431D01*
X163178000Y-101918569D02*
X163178000Y-102781431D01*
X163178000Y-104458569D02*
X163178000Y-105321431D01*
X163178000Y-106998569D02*
X163178000Y-107861431D01*
X163178000Y-109538569D02*
X163178000Y-110401431D01*
X163178000Y-112078569D02*
X163178000Y-113462500D01*
X163178000Y-113462500D02*
X169782000Y-113462500D01*
X169782000Y-93777500D02*
X163178000Y-93777500D01*
X169782000Y-95161431D02*
X169782000Y-93777500D01*
X169782000Y-97701431D02*
X169782000Y-96838569D01*
X169782000Y-100241431D02*
X169782000Y-99378569D01*
X169782000Y-102781431D02*
X169782000Y-101918569D01*
X169782000Y-105321431D02*
X169782000Y-104458569D01*
X169782000Y-107861431D02*
X169782000Y-106998569D01*
X169782000Y-110401431D02*
X169782000Y-109538569D01*
X169782000Y-113462500D02*
X169782000Y-112078569D01*
X166784800Y-93777500D02*
G75*
G02*
X166175200Y-93777500I-304800J0D01*
G01*
D11*
%TO.C,J2*%
X115505000Y-90350000D02*
X118790000Y-90350000D01*
X115505000Y-93000000D02*
X115505000Y-90350000D01*
X115505000Y-95540000D02*
X115505000Y-95650000D01*
X115505000Y-95540000D02*
X122075000Y-95540000D01*
X115505000Y-95650000D02*
X122075000Y-95650000D01*
X122075000Y-95540000D02*
X122075000Y-95650000D01*
%TO.C,C10*%
X127915000Y-114065000D02*
X128290000Y-114065000D01*
X128102500Y-113877500D02*
X128102500Y-114252500D01*
X128719437Y-114440000D02*
X129419437Y-113740000D01*
X128719437Y-116560000D02*
X129419437Y-117260000D01*
X129419437Y-113740000D02*
X132050000Y-113740000D01*
X129419437Y-117260000D02*
X132050000Y-117260000D01*
X132050000Y-113740000D02*
X132050000Y-114440000D01*
X132050000Y-117260000D02*
X132050000Y-116560000D01*
%TO.C,R5*%
X132210000Y-86580000D02*
X128370000Y-86580000D01*
X132210000Y-88420000D02*
X128370000Y-88420000D01*
%TO.C,R10*%
X155710000Y-91080000D02*
X151870000Y-91080000D01*
X155710000Y-92920000D02*
X151870000Y-92920000D01*
%TO.C,C7*%
X121915000Y-106565000D02*
X122290000Y-106565000D01*
X122102500Y-106377500D02*
X122102500Y-106752500D01*
X122719437Y-106940000D02*
X123419437Y-106240000D01*
X122719437Y-109060000D02*
X123419437Y-109760000D01*
X123419437Y-106240000D02*
X126050000Y-106240000D01*
X123419437Y-109760000D02*
X126050000Y-109760000D01*
X126050000Y-106240000D02*
X126050000Y-106940000D01*
X126050000Y-109760000D02*
X126050000Y-109060000D01*
%TO.C,AFF1*%
X159500000Y-131835000D02*
X159500000Y-120405000D01*
X160610000Y-135755000D02*
X172210000Y-135755000D01*
X160910000Y-131120000D02*
X167910000Y-131120000D01*
X161910000Y-126120000D02*
X160910000Y-131120000D01*
X162910000Y-121120000D02*
X161910000Y-126120000D01*
X162910000Y-121120000D02*
X169910000Y-121120000D01*
X167910000Y-131120000D02*
X168910000Y-126120000D01*
X168910000Y-126120000D02*
X161910000Y-126120000D01*
X169910000Y-121120000D02*
X168910000Y-126120000D01*
X172210000Y-116485000D02*
X159610000Y-116485000D01*
X172320000Y-131835000D02*
X172320000Y-120405000D01*
X170357214Y-131120000D02*
G75*
G02*
X169462786Y-131120000I-447214J0D01*
G01*
X169462786Y-131120000D02*
G75*
G02*
X170357214Y-131120000I447214J0D01*
G01*
D14*
%TO.C,U5*%
X184293800Y-96620440D02*
X184293800Y-97341431D01*
X184293800Y-99018569D02*
X184293800Y-99881431D01*
X184293800Y-101558569D02*
X184293800Y-102421431D01*
X184293800Y-104098569D02*
X184293800Y-104961431D01*
X184293800Y-106638569D02*
X184293800Y-107501431D01*
X184293800Y-109178569D02*
X184293800Y-110041431D01*
X184293800Y-111718569D02*
X184293800Y-112581431D01*
X184293800Y-114372500D02*
X190897800Y-114372500D01*
X190897800Y-94687500D02*
X184566965Y-94687500D01*
X190897800Y-97341431D02*
X190897800Y-96478569D01*
X190897800Y-99881431D02*
X190897800Y-99018569D01*
X190897800Y-102421431D02*
X190897800Y-101558569D01*
X190897800Y-104961431D02*
X190897800Y-104098569D01*
X190897800Y-107501431D02*
X190897800Y-106638569D01*
X190897800Y-110041431D02*
X190897800Y-109178569D01*
X190897800Y-112581431D02*
X190897800Y-111718569D01*
X187900600Y-94687500D02*
G75*
G02*
X187291000Y-94687500I-304800J0D01*
G01*
D11*
%TO.C,AFF3*%
X186880000Y-131715000D02*
X186880000Y-120285000D01*
X187990000Y-135635000D02*
X199590000Y-135635000D01*
X188290000Y-131000000D02*
X195290000Y-131000000D01*
X189290000Y-126000000D02*
X188290000Y-131000000D01*
X190290000Y-121000000D02*
X189290000Y-126000000D01*
X190290000Y-121000000D02*
X197290000Y-121000000D01*
X195290000Y-131000000D02*
X196290000Y-126000000D01*
X196290000Y-126000000D02*
X189290000Y-126000000D01*
X197290000Y-121000000D02*
X196290000Y-126000000D01*
X199590000Y-116365000D02*
X186990000Y-116365000D01*
X199700000Y-131715000D02*
X199700000Y-120285000D01*
X197737214Y-131000000D02*
G75*
G02*
X196842786Y-131000000I-447214J0D01*
G01*
X196842786Y-131000000D02*
G75*
G02*
X197737214Y-131000000I447214J0D01*
G01*
D12*
%TO.C,Q1*%
X146765000Y-90280000D02*
X147801500Y-90280000D01*
X146765000Y-91680000D02*
X146765000Y-90280000D01*
X149815000Y-90280000D02*
X148778500Y-90280000D01*
X149815000Y-91680000D02*
X149815000Y-90280000D01*
D11*
%TO.C,R11*%
X165330000Y-138200000D02*
X161490000Y-138200000D01*
X165330000Y-140040000D02*
X161490000Y-140040000D01*
%TO.C,C13*%
X139415000Y-114065000D02*
X139790000Y-114065000D01*
X139602500Y-113877500D02*
X139602500Y-114252500D01*
X140219437Y-114440000D02*
X140919437Y-113740000D01*
X140219437Y-116560000D02*
X140919437Y-117260000D01*
X140919437Y-113740000D02*
X143550000Y-113740000D01*
X140919437Y-117260000D02*
X143550000Y-117260000D01*
X143550000Y-113740000D02*
X143550000Y-114440000D01*
X143550000Y-117260000D02*
X143550000Y-116560000D01*
%TD*%
M02*
