%TF.GenerationSoftware,KiCad,Pcbnew,9.0.5*%
%TF.CreationDate,2025-11-16T11:42:38+05:30*%
%TF.ProjectId,PCBProject,50434250-726f-46a6-9563-742e6b696361,rev?*%
%TF.SameCoordinates,Original*%
%TF.FileFunction,Soldermask,Bot*%
%TF.FilePolarity,Negative*%
%FSLAX46Y46*%
G04 Gerber Fmt 4.6, Leading zero omitted, Abs format (unit mm)*
G04 Created by KiCad (PCBNEW 9.0.5) date 2025-11-16 11:42:38*
%MOMM*%
%LPD*%
G01*
G04 APERTURE LIST*
G04 Aperture macros list*
%AMRoundRect*
0 Rectangle with rounded corners*
0 $1 Rounding radius*
0 $2 $3 $4 $5 $6 $7 $8 $9 X,Y pos of 4 corners*
0 Add a 4 corners polygon primitive as box body*
4,1,4,$2,$3,$4,$5,$6,$7,$8,$9,$2,$3,0*
0 Add four circle primitives for the rounded corners*
1,1,$1+$1,$2,$3*
1,1,$1+$1,$4,$5*
1,1,$1+$1,$6,$7*
1,1,$1+$1,$8,$9*
0 Add four rect primitives between the rounded corners*
20,1,$1+$1,$2,$3,$4,$5,0*
20,1,$1+$1,$4,$5,$6,$7,0*
20,1,$1+$1,$6,$7,$8,$9,0*
20,1,$1+$1,$8,$9,$2,$3,0*%
G04 Aperture macros list end*
%ADD10C,1.400000*%
%ADD11R,2.800000X2.800000*%
%ADD12RoundRect,0.250000X-0.600000X-0.750000X0.600000X-0.750000X0.600000X0.750000X-0.600000X0.750000X0*%
%ADD13O,1.700000X2.000000*%
%ADD14RoundRect,0.102000X-0.955000X0.955000X-0.955000X-0.955000X0.955000X-0.955000X0.955000X0.955000X0*%
%ADD15C,2.114000*%
%ADD16R,1.524000X2.524000*%
%ADD17O,1.524000X2.524000*%
%ADD18R,1.295400X1.295400*%
%ADD19C,1.295400*%
%ADD20RoundRect,0.102000X0.952500X-0.952500X0.952500X0.952500X-0.952500X0.952500X-0.952500X-0.952500X0*%
%ADD21C,2.109000*%
G04 APERTURE END LIST*
D10*
%TO.C,R7*%
X124710000Y-124000000D03*
X129790000Y-124000000D03*
%TD*%
D11*
%TO.C,J4*%
X72000000Y-105000000D03*
%TD*%
D10*
%TO.C,R2*%
X151290000Y-107500000D03*
X146210000Y-107500000D03*
%TD*%
%TO.C,R12*%
X173410000Y-139120000D03*
X168330000Y-139120000D03*
%TD*%
%TO.C,R8*%
X137710000Y-129500000D03*
X142790000Y-129500000D03*
%TD*%
%TO.C,R3*%
X151290000Y-110000000D03*
X146210000Y-110000000D03*
%TD*%
%TO.C,R1*%
X151250000Y-104500000D03*
X156330000Y-104500000D03*
%TD*%
%TO.C,R6*%
X116290000Y-116080000D03*
X116290000Y-111000000D03*
%TD*%
%TO.C,R9*%
X156330000Y-88000000D03*
X151250000Y-88000000D03*
%TD*%
%TO.C,R14*%
X143790000Y-107500000D03*
X138710000Y-107500000D03*
%TD*%
D12*
%TO.C,PS1*%
X81002500Y-99500000D03*
D13*
X81002500Y-104500000D03*
X110082500Y-94500000D03*
X110082500Y-109500000D03*
%TD*%
D10*
%TO.C,R15*%
X143830000Y-110000000D03*
X138750000Y-110000000D03*
%TD*%
D11*
%TO.C,J1*%
X118790000Y-85000000D03*
%TD*%
D10*
%TO.C,R13*%
X180950000Y-139120000D03*
X175870000Y-139120000D03*
%TD*%
D14*
%TO.C,U10*%
X142790000Y-98000000D03*
D15*
X142790000Y-100550000D03*
X142790000Y-103100000D03*
%TD*%
D16*
%TO.C,AFF2*%
X174750000Y-133620000D03*
D17*
X177290000Y-133620000D03*
X179830000Y-133620000D03*
X182370000Y-133620000D03*
X184910000Y-133620000D03*
X184910000Y-118380000D03*
X182370000Y-118380000D03*
X179830000Y-118380000D03*
X177290000Y-118380000D03*
X174750000Y-118380000D03*
%TD*%
D10*
%TO.C,R4*%
X138330000Y-94500000D03*
X133250000Y-94500000D03*
%TD*%
D18*
%TO.C,U6*%
X194361600Y-95640000D03*
D19*
X194361600Y-98180000D03*
X194361600Y-100720000D03*
X194361600Y-103260000D03*
X194361600Y-105800000D03*
X194361600Y-108340000D03*
X194361600Y-110880000D03*
X194361600Y-113420000D03*
X201981600Y-113420000D03*
X201981600Y-110880000D03*
X201981600Y-108340000D03*
X201981600Y-105800000D03*
X201981600Y-103260000D03*
X201981600Y-100720000D03*
X201981600Y-98180000D03*
X201981600Y-95640000D03*
%TD*%
D20*
%TO.C,U11*%
X127290000Y-103100000D03*
D21*
X127290000Y-100550000D03*
X127290000Y-98000000D03*
%TD*%
D11*
%TO.C,J3*%
X72000000Y-98500000D03*
%TD*%
D18*
%TO.C,U3*%
X146290000Y-115500000D03*
D19*
X146290000Y-118040000D03*
X146290000Y-120580000D03*
X146290000Y-123120000D03*
X146290000Y-125660000D03*
X146290000Y-128200000D03*
X146290000Y-130740000D03*
X153910000Y-130740000D03*
X153910000Y-128200000D03*
X153910000Y-125660000D03*
X153910000Y-123120000D03*
X153910000Y-120580000D03*
X153910000Y-118040000D03*
X153910000Y-115500000D03*
%TD*%
D18*
%TO.C,U4*%
X173210000Y-95640000D03*
D19*
X173210000Y-98180000D03*
X173210000Y-100720000D03*
X173210000Y-103260000D03*
X173210000Y-105800000D03*
X173210000Y-108340000D03*
X173210000Y-110880000D03*
X173210000Y-113420000D03*
X180830000Y-113420000D03*
X180830000Y-110880000D03*
X180830000Y-108340000D03*
X180830000Y-105800000D03*
X180830000Y-103260000D03*
X180830000Y-100720000D03*
X180830000Y-98180000D03*
X180830000Y-95640000D03*
%TD*%
D18*
%TO.C,U9*%
X162670000Y-96000000D03*
D19*
X162670000Y-98540000D03*
X162670000Y-101080000D03*
X162670000Y-103620000D03*
X162670000Y-106160000D03*
X162670000Y-108700000D03*
X162670000Y-111240000D03*
X170290000Y-111240000D03*
X170290000Y-108700000D03*
X170290000Y-106160000D03*
X170290000Y-103620000D03*
X170290000Y-101080000D03*
X170290000Y-98540000D03*
X170290000Y-96000000D03*
%TD*%
D11*
%TO.C,J2*%
X118790000Y-93000000D03*
%TD*%
D10*
%TO.C,R5*%
X132830000Y-87500000D03*
X127750000Y-87500000D03*
%TD*%
%TO.C,R10*%
X156330000Y-92000000D03*
X151250000Y-92000000D03*
%TD*%
D16*
%TO.C,AFF1*%
X160830000Y-133740000D03*
D17*
X163370000Y-133740000D03*
X165910000Y-133740000D03*
X168450000Y-133740000D03*
X170990000Y-133740000D03*
X170990000Y-118500000D03*
X168450000Y-118500000D03*
X165910000Y-118500000D03*
X163370000Y-118500000D03*
X160830000Y-118500000D03*
%TD*%
D18*
%TO.C,U5*%
X183785800Y-95640000D03*
D19*
X183785800Y-98180000D03*
X183785800Y-100720000D03*
X183785800Y-103260000D03*
X183785800Y-105800000D03*
X183785800Y-108340000D03*
X183785800Y-110880000D03*
X183785800Y-113420000D03*
X191405800Y-113420000D03*
X191405800Y-110880000D03*
X191405800Y-108340000D03*
X191405800Y-105800000D03*
X191405800Y-103260000D03*
X191405800Y-100720000D03*
X191405800Y-98180000D03*
X191405800Y-95640000D03*
%TD*%
D16*
%TO.C,AFF3*%
X188210000Y-133620000D03*
D17*
X190750000Y-133620000D03*
X193290000Y-133620000D03*
X195830000Y-133620000D03*
X198370000Y-133620000D03*
X198370000Y-118380000D03*
X195830000Y-118380000D03*
X193290000Y-118380000D03*
X190750000Y-118380000D03*
X188210000Y-118380000D03*
%TD*%
D10*
%TO.C,R11*%
X165950000Y-139120000D03*
X160870000Y-139120000D03*
%TD*%
M02*
